Truculenta-ExpandedThin.ufo
<glyph name="exclam" format="2">
  <advance width="337"/>
  <unicode hex="0021"/>
  <outline>
    <contour>
      <point x="154" y="216" type="curve"/>
      <point x="182" y="216" type="line"/>
      <point x="183" y="250"/>
      <point x="184" y="367"/>
      <point x="185" y="425" type="curve" smooth="yes"/>
      <point x="186" y="487"/>
      <point x="192" y="655"/>
      <point x="194" y="708" type="curve"/>
      <point x="142" y="705" type="line"/>
      <point x="143" y="659"/>
      <point x="148" y="513"/>
      <point x="150" y="423" type="curve" smooth="yes"/>
      <point x="152" y="346"/>
      <point x="153" y="244"/>
    </contour>
    <contour>
      <point x="192" y="0" type="line"/>
      <point x="187" y="101" type="line"/>
      <point x="150" y="99" type="line"/>
      <point x="147" y="0" type="line"/>
    </contour>
  </outline>
</glyph>
<glyph name="quotedbl" format="2">
  <advance width="488"/>
  <unicode hex="0022"/>
  <outline>
    <contour>
      <point x="297" y="498" type="curve"/>
      <point x="328" y="503" type="line"/>
      <point x="332" y="532"/>
      <point x="337" y="569"/>
      <point x="342" y="604" type="curve" smooth="yes"/>
      <point x="347" y="642"/>
      <point x="353" y="678"/>
      <point x="358" y="699" type="curve"/>
      <point x="303" y="700" type="line"/>
      <point x="303" y="681"/>
      <point x="303" y="635"/>
      <point x="301" y="603" type="curve" smooth="yes"/>
      <point x="300" y="570"/>
      <point x="298" y="520"/>
    </contour>
    <contour>
      <point x="137" y="496" type="curve"/>
      <point x="168" y="504" type="line"/>
      <point x="169" y="531"/>
      <point x="171" y="568"/>
      <point x="174" y="604" type="curve" smooth="yes"/>
      <point x="177" y="646"/>
      <point x="180" y="684"/>
      <point x="183" y="702" type="curve"/>
      <point x="129" y="698" type="line"/>
      <point x="130" y="679"/>
      <point x="133" y="634"/>
      <point x="134" y="602" type="curve" smooth="yes"/>
      <point x="136" y="568"/>
      <point x="136" y="518"/>
    </contour>
  </outline>
</glyph>
<glyph name="numbersign" format="2">
  <advance width="956"/>
  <unicode hex="0023"/>
  <outline>
    <contour>
      <point x="195" y="1" type="line"/>
      <point x="234" y="3" type="line"/>
      <point x="317" y="378" type="line"/>
      <point x="400" y="695" type="line"/>
      <point x="362" y="693" type="line"/>
      <point x="293" y="381" type="line"/>
    </contour>
    <contour>
      <point x="85" y="190" type="line"/>
      <point x="133" y="192"/>
      <point x="368" y="195"/>
      <point x="466" y="194" type="curve" smooth="yes"/>
      <point x="564" y="193"/>
      <point x="771" y="192"/>
      <point x="813" y="192" type="curve"/>
      <point x="811" y="223" type="line"/>
      <point x="771" y="222"/>
      <point x="562" y="220"/>
      <point x="469" y="220" type="curve" smooth="yes"/>
      <point x="377" y="220"/>
      <point x="134" y="222"/>
      <point x="85" y="223" type="curve"/>
    </contour>
    <contour>
      <point x="546" y="0" type="line"/>
      <point x="585" y="1" type="line"/>
      <point x="665" y="367" type="line"/>
      <point x="748" y="682" type="line"/>
      <point x="710" y="683" type="line"/>
      <point x="644" y="381" type="line"/>
    </contour>
    <contour>
      <point x="132" y="477" type="line"/>
      <point x="178" y="479"/>
      <point x="417" y="484"/>
      <point x="517" y="483" type="curve" smooth="yes"/>
      <point x="615" y="482"/>
      <point x="820" y="479"/>
      <point x="860" y="478" type="curve"/>
      <point x="860" y="510" type="line"/>
      <point x="819" y="509"/>
      <point x="611" y="507"/>
      <point x="519" y="507" type="curve" smooth="yes"/>
      <point x="428" y="507"/>
      <point x="181" y="509"/>
      <point x="128" y="510" type="curve"/>
    </contour>
  </outline>
</glyph>
<glyph name="dollar" format="2">
  <advance width="640"/>
  <unicode hex="0024"/>
  <outline>
    <contour>
      <point x="313" y="-10" type="curve" smooth="yes"/>
      <point x="458" y="-10"/>
      <point x="516" y="74"/>
      <point x="516" y="150" type="curve" smooth="yes"/>
      <point x="516" y="255"/>
      <point x="393" y="295"/>
      <point x="296" y="344" type="curve" smooth="yes"/>
      <point x="211" y="387"/>
      <point x="158" y="417"/>
      <point x="158" y="511" type="curve" smooth="yes"/>
      <point x="158" y="601"/>
      <point x="200" y="673"/>
      <point x="322" y="673" type="curve" smooth="yes"/>
      <point x="448" y="673"/>
      <point x="482" y="596"/>
      <point x="482" y="499" type="curve" smooth="yes"/>
      <point x="482" y="476"/>
      <point x="480" y="452"/>
      <point x="477" y="428" type="curve"/>
      <point x="512" y="428" type="line"/>
      <point x="515" y="451"/>
      <point x="516" y="474"/>
      <point x="516" y="496" type="curve" smooth="yes"/>
      <point x="516" y="615"/>
      <point x="469" y="704"/>
      <point x="317" y="704" type="curve" smooth="yes"/>
      <point x="181" y="704"/>
      <point x="123" y="609"/>
      <point x="123" y="517" type="curve" smooth="yes"/>
      <point x="123" y="399"/>
      <point x="189" y="358"/>
      <point x="281" y="315" type="curve" smooth="yes"/>
      <point x="375" y="271"/>
      <point x="480" y="234"/>
      <point x="480" y="145" type="curve" smooth="yes"/>
      <point x="480" y="87"/>
      <point x="439" y="22"/>
      <point x="312" y="22" type="curve" smooth="yes"/>
      <point x="206" y="22"/>
      <point x="159" y="76"/>
      <point x="159" y="145" type="curve" smooth="yes"/>
      <point x="159" y="158"/>
      <point x="160" y="170"/>
      <point x="163" y="183" type="curve"/>
      <point x="128" y="183" type="line"/>
      <point x="126" y="171"/>
      <point x="125" y="158"/>
      <point x="125" y="147" type="curve" smooth="yes"/>
      <point x="125" y="57"/>
      <point x="180" y="-10"/>
    </contour>
    <contour>
      <point x="332" y="-107" type="line"/>
      <point x="330" y="-57"/>
      <point x="328" y="186"/>
      <point x="328" y="311" type="curve" smooth="yes"/>
      <point x="328" y="433"/>
      <point x="333" y="760"/>
      <point x="336" y="800" type="curve"/>
      <point x="304" y="801" type="line"/>
      <point x="304" y="771"/>
      <point x="304" y="483"/>
      <point x="304" y="322" type="curve" smooth="yes"/>
      <point x="304" y="142"/>
      <point x="301" y="-65"/>
      <point x="300" y="-106" type="curve"/>
    </contour>
  </outline>
</glyph>
<glyph name="ampersand" format="2">
  <advance width="693"/>
  <unicode hex="0026"/>
  <outline>
    <contour>
      <point x="274" y="-10" type="curve" smooth="yes"/>
      <point x="486" y="-10"/>
      <point x="592" y="166"/>
      <point x="577" y="380" type="curve"/>
      <point x="541" y="383" type="line"/>
      <point x="555" y="181"/>
      <point x="468" y="23"/>
      <point x="280" y="23" type="curve" smooth="yes"/>
      <point x="168" y="23"/>
      <point x="101" y="77"/>
      <point x="101" y="163" type="curve" smooth="yes"/>
      <point x="101" y="254"/>
      <point x="170" y="304"/>
      <point x="248" y="350" type="curve" smooth="yes"/>
      <point x="346" y="407"/>
      <point x="458" y="458"/>
      <point x="458" y="577" type="curve" smooth="yes"/>
      <point x="458" y="661"/>
      <point x="390" y="703"/>
      <point x="312" y="703" type="curve" smooth="yes"/>
      <point x="225" y="703"/>
      <point x="146" y="649"/>
      <point x="146" y="547" type="curve" smooth="yes"/>
      <point x="146" y="412"/>
      <point x="295" y="258"/>
      <point x="461" y="62" type="curve" smooth="yes"/>
      <point x="494" y="24"/>
      <point x="547" y="-7"/>
      <point x="626" y="-7" type="curve"/>
      <point x="631" y="27" type="line"/>
      <point x="556" y="24"/>
      <point x="508" y="63"/>
      <point x="484" y="91" type="curve" smooth="yes"/>
      <point x="303" y="298"/>
      <point x="187" y="429"/>
      <point x="187" y="553" type="curve" smooth="yes"/>
      <point x="187" y="631"/>
      <point x="242" y="666"/>
      <point x="307" y="666" type="curve" smooth="yes"/>
      <point x="367" y="666"/>
      <point x="417" y="635"/>
      <point x="417" y="576" type="curve" smooth="yes"/>
      <point x="417" y="476"/>
      <point x="320" y="430"/>
      <point x="228" y="377" type="curve" smooth="yes"/>
      <point x="144" y="329"/>
      <point x="63" y="274"/>
      <point x="63" y="167" type="curve" smooth="yes"/>
      <point x="63" y="50"/>
      <point x="153" y="-10"/>
    </contour>
  </outline>
</glyph>
<glyph name="quotesingle" format="2">
  <advance width="312"/>
  <unicode hex="0027"/>
  <outline>
    <contour>
      <point x="137" y="496" type="curve"/>
      <point x="168" y="504" type="line"/>
      <point x="169" y="531"/>
      <point x="171" y="568"/>
      <point x="174" y="604" type="curve" smooth="yes"/>
      <point x="177" y="646"/>
      <point x="180" y="684"/>
      <point x="183" y="702" type="curve"/>
      <point x="129" y="698" type="line"/>
      <point x="130" y="679"/>
      <point x="133" y="634"/>
      <point x="134" y="602" type="curve" smooth="yes"/>
      <point x="136" y="568"/>
      <point x="136" y="518"/>
    </contour>
  </outline>
</glyph>
<glyph name="parenleft" format="2">
  <advance width="504"/>
  <unicode hex="0028"/>
  <outline>
    <contour>
      <point x="342" y="-139" type="curve"/>
      <point x="350" y="-115" type="line"/>
      <point x="231" y="-55"/>
      <point x="181" y="111"/>
      <point x="181" y="281" type="curve" smooth="yes"/>
      <point x="181" y="452"/>
      <point x="228" y="617"/>
      <point x="350" y="678" type="curve"/>
      <point x="342" y="702" type="line"/>
      <point x="228" y="650"/>
      <point x="151" y="528"/>
      <point x="151" y="281" type="curve" smooth="yes"/>
      <point x="151" y="35"/>
      <point x="226" y="-86"/>
    </contour>
  </outline>
</glyph>
<glyph name="parenright" format="2">
  <advance width="504"/>
  <unicode hex="0029"/>
  <outline>
    <contour>
      <point x="159" y="702" type="curve"/>
      <point x="151" y="678" type="line"/>
      <point x="270" y="618"/>
      <point x="320" y="452"/>
      <point x="320" y="282" type="curve" smooth="yes"/>
      <point x="320" y="111"/>
      <point x="273" y="-54"/>
      <point x="151" y="-115" type="curve"/>
      <point x="159" y="-139" type="line"/>
      <point x="273" y="-87"/>
      <point x="350" y="35"/>
      <point x="350" y="282" type="curve" smooth="yes"/>
      <point x="350" y="528"/>
      <point x="275" y="649"/>
    </contour>
  </outline>
</glyph>
<glyph name="asterisk" format="2">
  <advance width="624"/>
  <unicode hex="002A"/>
  <outline>
    <contour>
      <point x="458" y="436" type="curve"/>
      <point x="485" y="460" type="line"/>
      <point x="447" y="483"/>
      <point x="347" y="544"/>
      <point x="311" y="565" type="curve" smooth="yes"/>
      <point x="271" y="588"/>
      <point x="192" y="648"/>
      <point x="165" y="668" type="curve"/>
      <point x="140" y="638" type="line"/>
      <point x="175" y="621"/>
      <point x="265" y="570"/>
      <point x="307" y="546" type="curve" smooth="yes"/>
      <point x="348" y="522"/>
      <point x="432" y="457"/>
    </contour>
    <contour>
      <point x="159" y="428" type="line"/>
      <point x="193" y="454"/>
      <point x="283" y="523"/>
      <point x="324" y="546" type="curve" smooth="yes"/>
      <point x="367" y="570"/>
      <point x="456" y="625"/>
      <point x="484" y="640" type="curve"/>
      <point x="475" y="673" type="line"/>
      <point x="441" y="649"/>
      <point x="357" y="587"/>
      <point x="320" y="565" type="curve" smooth="yes"/>
      <point x="282" y="542"/>
      <point x="179" y="477"/>
      <point x="147" y="457" type="curve"/>
    </contour>
    <contour>
      <point x="337" y="361" type="line"/>
      <point x="333" y="400"/>
      <point x="326" y="509"/>
      <point x="326" y="562" type="curve" smooth="yes"/>
      <point x="326" y="616"/>
      <point x="332" y="704"/>
      <point x="335" y="736" type="curve"/>
      <point x="298" y="739" type="line"/>
      <point x="300" y="704"/>
      <point x="304" y="611"/>
      <point x="305" y="561" type="curve" smooth="yes"/>
      <point x="306" y="511"/>
      <point x="301" y="401"/>
      <point x="299" y="364" type="curve"/>
    </contour>
  </outline>
</glyph>
<glyph name="hyphen" format="2">
  <advance width="499"/>
  <unicode hex="002D"/>
  <outline>
    <contour>
      <point x="75" y="272" type="line"/>
      <point x="75" y="272"/>
      <point x="186" y="274"/>
      <point x="245" y="274" type="curve" smooth="yes"/>
      <point x="301" y="274"/>
      <point x="424" y="272"/>
      <point x="424" y="272" type="curve"/>
      <point x="421" y="310" type="line"/>
      <point x="421" y="310"/>
      <point x="313" y="306"/>
      <point x="251" y="307" type="curve" smooth="yes"/>
      <point x="189" y="308"/>
      <point x="81" y="310"/>
      <point x="81" y="310" type="curve"/>
    </contour>
  </outline>
</glyph>
<glyph name="slash" format="2">
  <advance width="412"/>
  <unicode hex="002F"/>
  <outline>
    <contour>
      <point x="54" y="0" type="curve"/>
      <point x="90" y="1" type="line"/>
      <point x="133" y="116"/>
      <point x="183" y="241"/>
      <point x="227" y="361" type="curve" smooth="yes"/>
      <point x="273" y="486"/>
      <point x="319" y="603"/>
      <point x="357" y="694" type="curve"/>
      <point x="321" y="695" type="line"/>
      <point x="292" y="612"/>
      <point x="248" y="491"/>
      <point x="201" y="365" type="curve" smooth="yes"/>
      <point x="154" y="238"/>
      <point x="100" y="105"/>
    </contour>
  </outline>
</glyph>
<glyph name="zero" format="2">
  <advance width="666"/>
  <unicode hex="0030"/>
  <outline>
    <contour>
      <point x="327" y="-10" type="curve" smooth="yes"/>
      <point x="521" y="-10"/>
      <point x="550" y="185"/>
      <point x="550" y="342" type="curve" smooth="yes"/>
      <point x="550" y="509"/>
      <point x="527" y="706"/>
      <point x="339" y="706" type="curve" smooth="yes"/>
      <point x="152" y="706"/>
      <point x="116" y="503"/>
      <point x="116" y="343" type="curve" smooth="yes"/>
      <point x="116" y="176"/>
      <point x="141" y="-10"/>
    </contour>
    <contour>
      <point x="330" y="20" type="curve" smooth="yes"/>
      <point x="181" y="20"/>
      <point x="154" y="148"/>
      <point x="154" y="338" type="curve" smooth="yes"/>
      <point x="154" y="505"/>
      <point x="182" y="674"/>
      <point x="337" y="674" type="curve" smooth="yes"/>
      <point x="490" y="674"/>
      <point x="514" y="513"/>
      <point x="514" y="353" type="curve" smooth="yes"/>
      <point x="514" y="185"/>
      <point x="485" y="20"/>
    </contour>
  </outline>
</glyph>
<glyph name="one" format="2">
  <advance width="404"/>
  <unicode hex="0031"/>
  <outline>
    <contour>
      <point x="227" y="0" type="curve"/>
      <point x="269" y="0" type="line"/>
      <point x="267" y="48"/>
      <point x="265" y="202"/>
      <point x="265" y="341" type="curve" smooth="yes"/>
      <point x="265" y="481"/>
      <point x="269" y="644"/>
      <point x="270" y="694" type="curve"/>
      <point x="255" y="694" type="line"/>
      <point x="231" y="638" type="line"/>
      <point x="232" y="562"/>
      <point x="231" y="418"/>
      <point x="231" y="342" type="curve" smooth="yes"/>
      <point x="231" y="245"/>
      <point x="229" y="55"/>
    </contour>
    <contour>
      <point x="71" y="617" type="line"/>
      <point x="109" y="618"/>
      <point x="230" y="629"/>
      <point x="257" y="640" type="curve"/>
      <point x="255" y="694" type="line"/>
      <point x="230" y="667"/>
      <point x="116" y="652"/>
      <point x="70" y="646" type="curve"/>
    </contour>
  </outline>
</glyph>
<glyph name="two" format="2">
  <advance width="621"/>
  <unicode hex="0032"/>
  <outline>
    <contour>
      <point x="136" y="20" type="line"/>
      <point x="272" y="126"/>
      <point x="512" y="321"/>
      <point x="512" y="515" type="curve" smooth="yes"/>
      <point x="512" y="643"/>
      <point x="426" y="700"/>
      <point x="318" y="700" type="curve" smooth="yes"/>
      <point x="208" y="700"/>
      <point x="120" y="633"/>
      <point x="120" y="493" type="curve" smooth="yes"/>
      <point x="120" y="475"/>
      <point x="121" y="457"/>
      <point x="124" y="437" type="curve"/>
      <point x="161" y="438" type="line"/>
      <point x="157" y="460"/>
      <point x="155" y="480"/>
      <point x="155" y="499" type="curve" smooth="yes"/>
      <point x="155" y="618"/>
      <point x="228" y="669"/>
      <point x="314" y="669" type="curve" smooth="yes"/>
      <point x="408" y="669"/>
      <point x="474" y="629"/>
      <point x="474" y="507" type="curve" smooth="yes"/>
      <point x="474" y="333"/>
      <point x="256" y="154"/>
      <point x="103" y="27" type="curve"/>
    </contour>
    <contour>
      <point x="103" y="-3" type="line"/>
      <point x="124" y="-2"/>
      <point x="265" y="0"/>
      <point x="309" y="0" type="curve" smooth="yes"/>
      <point x="363" y="0"/>
      <point x="463" y="0"/>
      <point x="517" y="0" type="curve"/>
      <point x="516" y="32" type="line"/>
      <point x="483" y="30"/>
      <point x="362" y="28"/>
      <point x="320" y="28" type="curve" smooth="yes"/>
      <point x="262" y="28"/>
      <point x="161" y="27"/>
      <point x="103" y="27" type="curve"/>
    </contour>
  </outline>
</glyph>
<glyph name="three" format="2">
  <advance width="580"/>
  <unicode hex="0033"/>
  <outline>
    <contour>
      <point x="283" y="-10" type="curve" smooth="yes"/>
      <point x="421" y="-10"/>
      <point x="483" y="68"/>
      <point x="483" y="157" type="curve" smooth="yes"/>
      <point x="483" y="233"/>
      <point x="441" y="280"/>
      <point x="361" y="297" type="curve"/>
      <point x="435" y="334"/>
      <point x="477" y="412"/>
      <point x="477" y="512" type="curve" smooth="yes"/>
      <point x="477" y="593"/>
      <point x="444" y="697"/>
      <point x="285" y="697" type="curve" smooth="yes"/>
      <point x="119" y="697"/>
      <point x="93" y="577"/>
      <point x="91" y="504" type="curve"/>
      <point x="124" y="506" type="line"/>
      <point x="127" y="572"/>
      <point x="144" y="669"/>
      <point x="280" y="669" type="curve" smooth="yes"/>
      <point x="418" y="669"/>
      <point x="442" y="588"/>
      <point x="442" y="502" type="curve" smooth="yes"/>
      <point x="442" y="385"/>
      <point x="377" y="307"/>
      <point x="281" y="307" type="curve" smooth="yes"/>
      <point x="271" y="307"/>
      <point x="180" y="307"/>
      <point x="172" y="308" type="curve"/>
      <point x="173" y="278" type="line"/>
      <point x="184" y="279"/>
      <point x="247" y="279"/>
      <point x="255" y="279" type="curve" smooth="yes"/>
      <point x="401" y="279"/>
      <point x="449" y="244"/>
      <point x="449" y="149" type="curve" smooth="yes"/>
      <point x="449" y="82"/>
      <point x="408" y="18"/>
      <point x="284" y="18" type="curve" smooth="yes"/>
      <point x="150" y="18"/>
      <point x="122" y="95"/>
      <point x="121" y="137" type="curve"/>
      <point x="90" y="138" type="line"/>
      <point x="91" y="81"/>
      <point x="128" y="-10"/>
    </contour>
  </outline>
</glyph>
<glyph name="four" format="2">
  <advance width="630"/>
  <unicode hex="0034"/>
  <outline>
    <contour>
      <point x="100" y="177" type="line"/>
      <point x="128" y="220"/>
      <point x="182" y="306"/>
      <point x="238" y="393" type="curve" smooth="yes"/>
      <point x="305" y="497"/>
      <point x="374" y="603"/>
      <point x="404" y="647" type="curve"/>
      <point x="411" y="664"/>
      <point x="418" y="683"/>
      <point x="429" y="697" type="curve"/>
      <point x="389" y="698" type="line"/>
      <point x="344" y="625"/>
      <point x="276" y="516"/>
      <point x="213" y="416" type="curve" smooth="yes"/>
      <point x="151" y="319"/>
      <point x="94" y="231"/>
      <point x="69" y="193" type="curve"/>
    </contour>
    <contour>
      <point x="75" y="162" type="line"/>
      <point x="102" y="163"/>
      <point x="267" y="165"/>
      <point x="314" y="166" type="curve" smooth="yes"/>
      <point x="388" y="167"/>
      <point x="527" y="166"/>
      <point x="557" y="166" type="curve"/>
      <point x="557" y="200" type="line"/>
      <point x="527" y="198"/>
      <point x="390" y="195"/>
      <point x="314" y="193" type="curve" smooth="yes"/>
      <point x="266" y="192"/>
      <point x="100" y="192"/>
      <point x="69" y="193" type="curve"/>
    </contour>
    <contour>
      <point x="389" y="-1" type="curve"/>
      <point x="428" y="0" type="line"/>
      <point x="427" y="53"/>
      <point x="425" y="236"/>
      <point x="425" y="378" type="curve" smooth="yes"/>
      <point x="425" y="512"/>
      <point x="427" y="651"/>
      <point x="429" y="697" type="curve"/>
      <point x="393" y="692" type="line"/>
      <point x="393" y="645"/>
      <point x="393" y="477"/>
      <point x="393" y="380" type="curve" smooth="yes"/>
      <point x="393" y="284"/>
      <point x="390" y="65"/>
    </contour>
  </outline>
</glyph>
<glyph name="five" format="2">
  <advance width="610"/>
  <unicode hex="0035"/>
  <outline>
    <contour>
      <point x="296" y="-10" type="curve" smooth="yes"/>
      <point x="454" y="-10"/>
      <point x="521" y="90"/>
      <point x="521" y="225" type="curve" smooth="yes"/>
      <point x="521" y="338"/>
      <point x="460" y="429"/>
      <point x="317" y="429" type="curve" smooth="yes"/>
      <point x="243" y="429"/>
      <point x="152" y="391"/>
      <point x="128" y="320" type="curve"/>
      <point x="154" y="318" type="line"/>
      <point x="177" y="373"/>
      <point x="258" y="398"/>
      <point x="314" y="398" type="curve" smooth="yes"/>
      <point x="436" y="398"/>
      <point x="485" y="318"/>
      <point x="485" y="235" type="curve" smooth="yes"/>
      <point x="485" y="106"/>
      <point x="434" y="20"/>
      <point x="300" y="20" type="curve" smooth="yes"/>
      <point x="173" y="20"/>
      <point x="139" y="66"/>
      <point x="135" y="135" type="curve"/>
      <point x="100" y="133" type="line"/>
      <point x="106" y="54"/>
      <point x="153" y="-10"/>
    </contour>
    <contour>
      <point x="154" y="318" type="line"/>
      <point x="155" y="360"/>
      <point x="157" y="446"/>
      <point x="159" y="503" type="curve" smooth="yes"/>
      <point x="161" y="565"/>
      <point x="164" y="659"/>
      <point x="166" y="695" type="curve"/>
      <point x="127" y="698" type="line"/>
      <point x="128" y="661"/>
      <point x="129" y="569"/>
      <point x="127" y="505" type="curve" smooth="yes"/>
      <point x="125" y="438"/>
      <point x="120" y="349"/>
      <point x="118" y="317" type="curve"/>
    </contour>
    <contour>
      <point x="145" y="664" type="line"/>
      <point x="164" y="665"/>
      <point x="275" y="666"/>
      <point x="312" y="666" type="curve" smooth="yes"/>
      <point x="345" y="666"/>
      <point x="472" y="664"/>
      <point x="494" y="663" type="curve"/>
      <point x="496" y="695" type="line"/>
      <point x="472" y="695"/>
      <point x="346" y="695"/>
      <point x="310" y="696" type="curve" smooth="yes"/>
      <point x="276" y="697"/>
      <point x="163" y="698"/>
      <point x="134" y="698" type="curve"/>
    </contour>
  </outline>
</glyph>
<glyph name="six" format="2">
  <advance width="641"/>
  <unicode hex="0036"/>
  <outline>
    <contour>
      <point x="321" y="-10" type="curve" smooth="yes"/>
      <point x="464" y="-10"/>
      <point x="526" y="102"/>
      <point x="526" y="192" type="curve" smooth="yes"/>
      <point x="526" y="297"/>
      <point x="466" y="375"/>
      <point x="330" y="375" type="curve" smooth="yes"/>
      <point x="218" y="375"/>
      <point x="157" y="320"/>
      <point x="134" y="254" type="curve"/>
      <point x="149" y="203" type="line"/>
      <point x="149" y="271"/>
      <point x="204" y="344"/>
      <point x="328" y="344" type="curve" smooth="yes"/>
      <point x="447" y="344"/>
      <point x="490" y="281"/>
      <point x="490" y="188" type="curve" smooth="yes"/>
      <point x="490" y="119"/>
      <point x="445" y="20"/>
      <point x="323" y="20" type="curve" smooth="yes"/>
      <point x="158" y="20"/>
      <point x="146" y="156"/>
      <point x="146" y="370" type="curve" smooth="yes"/>
      <point x="146" y="552"/>
      <point x="202" y="684"/>
      <point x="334" y="684" type="curve" smooth="yes"/>
      <point x="451" y="684"/>
      <point x="483" y="618"/>
      <point x="483" y="528" type="curve" smooth="yes"/>
      <point x="483" y="512"/>
      <point x="482" y="495"/>
      <point x="480" y="477" type="curve"/>
      <point x="515" y="478" type="line"/>
      <point x="517" y="495"/>
      <point x="518" y="511"/>
      <point x="518" y="527" type="curve" smooth="yes"/>
      <point x="518" y="630"/>
      <point x="476" y="713"/>
      <point x="335" y="713" type="curve" smooth="yes"/>
      <point x="187" y="713"/>
      <point x="109" y="596"/>
      <point x="109" y="321" type="curve" smooth="yes"/>
      <point x="109" y="102"/>
      <point x="159" y="-10"/>
    </contour>
  </outline>
</glyph>
<glyph name="seven" format="2">
  <advance width="509"/>
  <unicode hex="0037"/>
  <outline>
    <contour>
      <point x="185" y="-1" type="curve"/>
      <point x="225" y="0" type="line"/>
      <point x="216" y="122"/>
      <point x="241" y="243"/>
      <point x="287" y="357" type="curve" smooth="yes"/>
      <point x="330" y="463"/>
      <point x="390" y="565"/>
      <point x="456" y="657" type="curve"/>
      <point x="456" y="698" type="line"/>
      <point x="381" y="613"/>
      <point x="308" y="497"/>
      <point x="256" y="371" type="curve" smooth="yes"/>
      <point x="208" y="251"/>
      <point x="178" y="122"/>
    </contour>
    <contour>
      <point x="49" y="663" type="line"/>
      <point x="70" y="663"/>
      <point x="196" y="664"/>
      <point x="228" y="664" type="curve" smooth="yes"/>
      <point x="263" y="664"/>
      <point x="425" y="665"/>
      <point x="453" y="666" type="curve"/>
      <point x="456" y="698" type="line"/>
      <point x="428" y="698"/>
      <point x="275" y="697"/>
      <point x="241" y="697" type="curve" smooth="yes"/>
      <point x="207" y="697"/>
      <point x="73" y="698"/>
      <point x="48" y="699" type="curve"/>
    </contour>
  </outline>
</glyph>
<glyph name="eight" format="2">
  <advance width="615"/>
  <unicode hex="0038"/>
  <outline>
    <contour>
      <point x="300" y="289" type="curve" smooth="yes"/>
      <point x="437" y="289"/>
      <point x="499" y="378"/>
      <point x="499" y="495" type="curve" smooth="yes"/>
      <point x="499" y="629"/>
      <point x="445" y="707"/>
      <point x="312" y="707" type="curve" smooth="yes"/>
      <point x="175" y="707"/>
      <point x="116" y="621"/>
      <point x="116" y="486" type="curve" smooth="yes"/>
      <point x="116" y="386"/>
      <point x="173" y="289"/>
    </contour>
    <contour>
      <point x="305" y="-10" type="curve" smooth="yes"/>
      <point x="456" y="-10"/>
      <point x="521" y="47"/>
      <point x="521" y="151" type="curve" smooth="yes"/>
      <point x="521" y="249"/>
      <point x="457" y="314"/>
      <point x="311" y="314" type="curve" smooth="yes"/>
      <point x="167" y="314"/>
      <point x="95" y="240"/>
      <point x="95" y="145" type="curve" smooth="yes"/>
      <point x="95" y="52"/>
      <point x="163" y="-10"/>
    </contour>
    <contour>
      <point x="308" y="16" type="curve" smooth="yes"/>
      <point x="183" y="16"/>
      <point x="129" y="64"/>
      <point x="129" y="149" type="curve" smooth="yes"/>
      <point x="129" y="223"/>
      <point x="181" y="288"/>
      <point x="310" y="288" type="curve" smooth="yes"/>
      <point x="437" y="288"/>
      <point x="487" y="236"/>
      <point x="487" y="146" type="curve" smooth="yes"/>
      <point x="487" y="60"/>
      <point x="438" y="16"/>
    </contour>
    <contour>
      <point x="308" y="319" type="curve" smooth="yes"/>
      <point x="194" y="319"/>
      <point x="152" y="395"/>
      <point x="152" y="493" type="curve" smooth="yes"/>
      <point x="152" y="601"/>
      <point x="196" y="677"/>
      <point x="311" y="677" type="curve" smooth="yes"/>
      <point x="426" y="677"/>
      <point x="464" y="608"/>
      <point x="464" y="486" type="curve" smooth="yes"/>
      <point x="464" y="394"/>
      <point x="416" y="319"/>
    </contour>
  </outline>
</glyph>
<glyph name="nine" format="2">
  <advance width="641"/>
  <unicode hex="0039"/>
  <outline>
    <contour>
      <point x="297" y="-10" type="curve" smooth="yes"/>
      <point x="445" y="-10"/>
      <point x="526" y="89"/>
      <point x="526" y="382" type="curve" smooth="yes"/>
      <point x="526" y="601"/>
      <point x="476" y="713"/>
      <point x="314" y="713" type="curve" smooth="yes"/>
      <point x="171" y="713"/>
      <point x="109" y="601"/>
      <point x="109" y="481" type="curve" smooth="yes"/>
      <point x="109" y="346"/>
      <point x="169" y="268"/>
      <point x="305" y="268" type="curve" smooth="yes"/>
      <point x="417" y="268"/>
      <point x="488" y="333"/>
      <point x="501" y="419" type="curve"/>
      <point x="486" y="470" type="line"/>
      <point x="486" y="385"/>
      <point x="431" y="299"/>
      <point x="307" y="299" type="curve" smooth="yes"/>
      <point x="188" y="299"/>
      <point x="145" y="362"/>
      <point x="145" y="485" type="curve" smooth="yes"/>
      <point x="145" y="584"/>
      <point x="190" y="683"/>
      <point x="312" y="683" type="curve" smooth="yes"/>
      <point x="477" y="683"/>
      <point x="489" y="547"/>
      <point x="489" y="333" type="curve" smooth="yes"/>
      <point x="489" y="133"/>
      <point x="433" y="19"/>
      <point x="301" y="19" type="curve" smooth="yes"/>
      <point x="183" y="19"/>
      <point x="154" y="77"/>
      <point x="154" y="142" type="curve" smooth="yes"/>
      <point x="154" y="150"/>
      <point x="154" y="158"/>
      <point x="155" y="166" type="curve"/>
      <point x="120" y="165" type="line"/>
      <point x="119" y="156"/>
      <point x="118" y="147"/>
      <point x="118" y="139" type="curve" smooth="yes"/>
      <point x="118" y="62"/>
      <point x="161" y="-10"/>
    </contour>
  </outline>
</glyph>
<glyph name="colon" format="2">
  <advance width="327"/>
  <unicode hex="003A"/>
  <outline>
    <contour>
      <point x="184" y="1" type="line"/>
      <point x="184" y="104" type="line"/>
      <point x="142" y="100" type="line"/>
      <point x="145" y="1" type="line"/>
    </contour>
    <contour>
      <point x="184" y="401" type="line"/>
      <point x="184" y="503" type="line"/>
      <point x="142" y="499" type="line"/>
      <point x="145" y="402" type="line"/>
    </contour>
  </outline>
</glyph>
<glyph name="semicolon" format="2">
  <advance width="337"/>
  <unicode hex="003B"/>
  <outline>
    <contour>
      <point x="170" y="-100" type="line"/>
      <point x="186" y="-73"/>
      <point x="194" y="-38"/>
      <point x="194" y="5" type="curve" smooth="yes"/>
      <point x="194" y="98" type="line"/>
      <point x="142" y="93" type="line"/>
      <point x="144" y="1" type="line"/>
      <point x="166" y="-1" type="line"/>
      <point x="167" y="-33"/>
      <point x="159" y="-61"/>
      <point x="146" y="-91" type="curve"/>
    </contour>
    <contour>
      <point x="189" y="401" type="line"/>
      <point x="189" y="503" type="line"/>
      <point x="147" y="499" type="line"/>
      <point x="150" y="402" type="line"/>
    </contour>
  </outline>
</glyph>
<glyph name="question" format="2">
  <advance width="696"/>
  <unicode hex="003F"/>
  <outline>
    <contour>
      <point x="360" y="216" type="line"/>
      <point x="358" y="231"/>
      <point x="356" y="245"/>
      <point x="356" y="259" type="curve" smooth="yes"/>
      <point x="356" y="307"/>
      <point x="392" y="336"/>
      <point x="433" y="368" type="curve" smooth="yes"/>
      <point x="482" y="409"/>
      <point x="538" y="455"/>
      <point x="538" y="551" type="curve" smooth="yes"/>
      <point x="538" y="627"/>
      <point x="498" y="715"/>
      <point x="352" y="715" type="curve" smooth="yes"/>
      <point x="218" y="715"/>
      <point x="158" y="632"/>
      <point x="158" y="533" type="curve" smooth="yes"/>
      <point x="158" y="510"/>
      <point x="161" y="487"/>
      <point x="167" y="463" type="curve"/>
      <point x="200" y="462" type="line"/>
      <point x="194" y="485"/>
      <point x="191" y="507"/>
      <point x="191" y="530" type="curve" smooth="yes"/>
      <point x="191" y="612"/>
      <point x="236" y="684"/>
      <point x="350" y="684" type="curve" smooth="yes"/>
      <point x="475" y="684"/>
      <point x="502" y="616"/>
      <point x="502" y="548" type="curve" smooth="yes"/>
      <point x="502" y="468"/>
      <point x="459" y="427"/>
      <point x="415" y="392" type="curve" smooth="yes"/>
      <point x="369" y="355"/>
      <point x="322" y="325"/>
      <point x="322" y="264" type="curve" smooth="yes"/>
      <point x="322" y="250"/>
      <point x="323" y="234"/>
      <point x="325" y="217" type="curve"/>
    </contour>
    <contour>
      <point x="370" y="-2" type="line"/>
      <point x="363" y="94" type="line"/>
      <point x="326" y="92" type="line"/>
      <point x="325" y="-1" type="line"/>
    </contour>
  </outline>
</glyph>
<glyph name="A" format="2">
  <advance width="584"/>
  <unicode hex="0041"/>
  <anchor x="284" y="0" name="bottom"/>
  <anchor x="541" y="8" name="ogonek"/>
  <anchor x="288" y="693" name="top"/>
  <outline>
    <contour>
      <point x="500" y="-3" type="curve"/>
      <point x="536" y="0" type="line"/>
      <point x="506" y="94"/>
      <point x="467" y="221"/>
      <point x="427" y="348" type="curve" smooth="yes"/>
      <point x="386" y="479"/>
      <point x="346" y="610"/>
      <point x="317" y="706" type="curve"/>
      <point x="260" y="704" type="line"/>
      <point x="289" y="682" type="line"/>
      <point x="316" y="598"/>
      <point x="358" y="466"/>
      <point x="397" y="339" type="curve" smooth="yes"/>
      <point x="442" y="191"/>
      <point x="485" y="49"/>
    </contour>
    <contour>
      <point x="121" y="180" type="line"/>
      <point x="457" y="184" type="line"/>
      <point x="457" y="213" type="line"/>
      <point x="121" y="217" type="line"/>
    </contour>
    <contour>
      <point x="85" y="6" type="line"/>
      <point x="104" y="73"/>
      <point x="146" y="212"/>
      <point x="186" y="348" type="curve" smooth="yes"/>
      <point x="230" y="498"/>
      <point x="276" y="645"/>
      <point x="290" y="688" type="curve"/>
      <point x="317" y="706" type="line"/>
      <point x="260" y="704" type="line"/>
      <point x="239" y="632"/>
      <point x="197" y="490"/>
      <point x="153" y="347" type="curve" smooth="yes"/>
      <point x="113" y="218"/>
      <point x="74" y="88"/>
      <point x="48" y="7" type="curve"/>
    </contour>
  </outline>
</glyph>
<glyph name="B" format="2">
  <advance width="592"/>
  <unicode hex="0042"/>
  <outline>
    <contour>
      <point x="149" y="222" type="line"/>
      <point x="373" y="222"/>
      <point x="501" y="276"/>
      <point x="501" y="472" type="curve" smooth="yes"/>
      <point x="501" y="658"/>
      <point x="416" y="720"/>
      <point x="230" y="720" type="curve" smooth="yes"/>
      <point x="195" y="720"/>
      <point x="157" y="718"/>
      <point x="115" y="714" type="curve"/>
      <point x="129" y="676" type="line"/>
      <point x="175" y="682"/>
      <point x="215" y="685"/>
      <point x="251" y="685" type="curve" smooth="yes"/>
      <point x="400" y="685"/>
      <point x="465" y="627"/>
      <point x="465" y="469" type="curve" smooth="yes"/>
      <point x="465" y="303"/>
      <point x="360" y="249"/>
      <point x="145" y="249" type="curve"/>
    </contour>
    <contour>
      <point x="245" y="-10" type="curve" smooth="yes"/>
      <point x="398" y="-10"/>
      <point x="511" y="18"/>
      <point x="511" y="124" type="curve" smooth="yes"/>
      <point x="511" y="217"/>
      <point x="388" y="252"/>
      <point x="145" y="249" type="curve"/>
      <point x="149" y="217" type="line"/>
      <point x="173" y="218"/>
      <point x="196" y="219"/>
      <point x="219" y="219" type="curve" smooth="yes"/>
      <point x="359" y="219"/>
      <point x="475" y="197"/>
      <point x="475" y="126" type="curve" smooth="yes"/>
      <point x="475" y="48"/>
      <point x="390" y="23"/>
      <point x="271" y="23" type="curve" smooth="yes"/>
      <point x="230" y="23"/>
      <point x="184" y="26"/>
      <point x="137" y="31" type="curve"/>
      <point x="118" y="-5" type="line"/>
      <point x="162" y="-8"/>
      <point x="205" y="-10"/>
    </contour>
    <contour>
      <point x="118" y="-5" type="curve"/>
      <point x="160" y="1" type="line"/>
      <point x="160" y="1"/>
      <point x="156" y="234"/>
      <point x="156" y="350" type="curve"/>
      <point x="156" y="466"/>
      <point x="159" y="704"/>
      <point x="159" y="704" type="curve"/>
      <point x="115" y="714" type="line"/>
      <point x="115" y="714"/>
      <point x="122" y="523"/>
      <point x="122" y="352" type="curve"/>
      <point x="122" y="180"/>
      <point x="118" y="-5"/>
    </contour>
  </outline>
</glyph>
<glyph name="C" format="2">
  <advance width="548"/>
  <unicode hex="0043"/>
  <anchor x="282" y="0" name="bottom"/>
  <anchor x="287" y="693" name="top"/>
  <outline>
    <contour>
      <point x="287" y="-10" type="curve" smooth="yes"/>
      <point x="428" y="-10"/>
      <point x="484" y="66"/>
      <point x="484" y="161" type="curve" smooth="yes"/>
      <point x="484" y="173"/>
      <point x="483" y="186"/>
      <point x="481" y="199" type="curve"/>
      <point x="447" y="199" type="line"/>
      <point x="449" y="186"/>
      <point x="450" y="174"/>
      <point x="450" y="161" type="curve" smooth="yes"/>
      <point x="450" y="83"/>
      <point x="410" y="23"/>
      <point x="286" y="23" type="curve" smooth="yes"/>
      <point x="206" y="23"/>
      <point x="160" y="65"/>
      <point x="134" y="130" type="curve" smooth="yes"/>
      <point x="112" y="186"/>
      <point x="105" y="260"/>
      <point x="105" y="337" type="curve" smooth="yes"/>
      <point x="105" y="406"/>
      <point x="112" y="474"/>
      <point x="130" y="532" type="curve" smooth="yes"/>
      <point x="156" y="613"/>
      <point x="206" y="670"/>
      <point x="294" y="670" type="curve" smooth="yes"/>
      <point x="414" y="670"/>
      <point x="458" y="589"/>
      <point x="458" y="463" type="curve" smooth="yes"/>
      <point x="458" y="428"/>
      <point x="455" y="390"/>
      <point x="449" y="350" type="curve"/>
      <point x="484" y="350" type="line"/>
      <point x="491" y="392"/>
      <point x="495" y="432"/>
      <point x="495" y="468" type="curve" smooth="yes"/>
      <point x="495" y="607"/>
      <point x="440" y="701"/>
      <point x="299" y="701" type="curve" smooth="yes"/>
      <point x="192" y="701"/>
      <point x="130" y="641"/>
      <point x="98" y="554" type="curve" smooth="yes"/>
      <point x="76" y="496"/>
      <point x="68" y="425"/>
      <point x="68" y="352" type="curve" smooth="yes"/>
      <point x="68" y="267"/>
      <point x="75" y="185"/>
      <point x="100" y="120" type="curve" smooth="yes"/>
      <point x="130" y="42"/>
      <point x="186" y="-10"/>
    </contour>
  </outline>
</glyph>
<glyph name="D" format="2">
  <advance width="591"/>
  <unicode hex="0044"/>
  <anchor x="179" y="348" name="center"/>
  <anchor x="299" y="693" name="top"/>
  <outline>
    <contour>
      <point x="214" y="-11" type="curve" smooth="yes"/>
      <point x="450" y="-11"/>
      <point x="526" y="95"/>
      <point x="526" y="361" type="curve" smooth="yes"/>
      <point x="526" y="622"/>
      <point x="455" y="709"/>
      <point x="211" y="709" type="curve" smooth="yes"/>
      <point x="177" y="709"/>
      <point x="140" y="707"/>
      <point x="99" y="704" type="curve"/>
      <point x="113" y="668" type="line"/>
      <point x="158" y="672"/>
      <point x="198" y="674"/>
      <point x="233" y="674" type="curve" smooth="yes"/>
      <point x="434" y="674"/>
      <point x="490" y="598"/>
      <point x="490" y="364" type="curve" smooth="yes"/>
      <point x="490" y="138"/>
      <point x="446" y="21"/>
      <point x="234" y="21" type="curve" smooth="yes"/>
      <point x="201" y="21"/>
      <point x="165" y="24"/>
      <point x="124" y="29" type="curve"/>
      <point x="102" y="-5" type="line"/>
      <point x="143" y="-9"/>
      <point x="180" y="-11"/>
    </contour>
    <contour>
      <point x="102" y="-5" type="curve"/>
      <point x="144" y="-4" type="line"/>
      <point x="143" y="7"/>
      <point x="140" y="226"/>
      <point x="140" y="348" type="curve" smooth="yes"/>
      <point x="140" y="421"/>
      <point x="142" y="652"/>
      <point x="143" y="702" type="curve"/>
      <point x="99" y="704" type="line"/>
      <point x="102" y="626"/>
      <point x="106" y="477"/>
      <point x="106" y="352" type="curve"/>
      <point x="106" y="227"/>
      <point x="104" y="75"/>
    </contour>
  </outline>
</glyph>
<glyph name="G" format="2">
  <advance width="557"/>
  <unicode hex="0047"/>
  <anchor x="292" y="0" name="bottom"/>
  <anchor x="290" y="693" name="top"/>
  <outline>
    <contour>
      <point x="68" y="361" type="curve" smooth="yes"/>
      <point x="68" y="273"/>
      <point x="75" y="189"/>
      <point x="100" y="123" type="curve" smooth="yes"/>
      <point x="130" y="43"/>
      <point x="184" y="-10"/>
      <point x="283" y="-10" type="curve" smooth="yes"/>
      <point x="366" y="-10"/>
      <point x="423" y="15"/>
      <point x="456" y="71" type="curve"/>
      <point x="462" y="0" type="line"/>
      <point x="483" y="0" type="line"/>
      <point x="479" y="258" type="line"/>
      <point x="301" y="258" type="line"/>
      <point x="301" y="229" type="line"/>
      <point x="446" y="233" type="line"/>
      <point x="448" y="215"/>
      <point x="449" y="198"/>
      <point x="449" y="182" type="curve" smooth="yes"/>
      <point x="449" y="85"/>
      <point x="415" y="23"/>
      <point x="286" y="23" type="curve" smooth="yes"/>
      <point x="202" y="23"/>
      <point x="156" y="70"/>
      <point x="131" y="140" type="curve" smooth="yes"/>
      <point x="110" y="198"/>
      <point x="105" y="273"/>
      <point x="105" y="350" type="curve" smooth="yes"/>
      <point x="105" y="415"/>
      <point x="112" y="485"/>
      <point x="132" y="545" type="curve" smooth="yes"/>
      <point x="158" y="623"/>
      <point x="208" y="682"/>
      <point x="294" y="682" type="curve" smooth="yes"/>
      <point x="419" y="682"/>
      <point x="456" y="600"/>
      <point x="456" y="483" type="curve" smooth="yes"/>
      <point x="456" y="454"/>
      <point x="454" y="422"/>
      <point x="450" y="389" type="curve"/>
      <point x="485" y="389" type="line"/>
      <point x="490" y="423"/>
      <point x="493" y="456"/>
      <point x="493" y="487" type="curve" smooth="yes"/>
      <point x="493" y="615"/>
      <point x="444" y="713"/>
      <point x="299" y="713" type="curve" smooth="yes"/>
      <point x="194" y="713"/>
      <point x="133" y="651"/>
      <point x="100" y="565" type="curve" smooth="yes"/>
      <point x="77" y="505"/>
      <point x="68" y="433"/>
    </contour>
  </outline>
</glyph>
<glyph name="H" format="2">
  <advance width="643"/>
  <unicode hex="0048"/>
  <anchor x="322" y="0" name="bottom"/>
  <anchor x="321" y="459" name="center"/>
  <anchor x="321" y="693" name="top"/>
  <outline>
    <contour>
      <point x="497" y="-2" type="curve"/>
      <point x="539" y="-2" type="line"/>
      <point x="539" y="-2"/>
      <point x="534" y="210"/>
      <point x="534" y="381" type="curve"/>
      <point x="534" y="552"/>
      <point x="539" y="707"/>
      <point x="539" y="707" type="curve"/>
      <point x="496" y="705" type="line"/>
      <point x="496" y="705"/>
      <point x="499" y="496"/>
      <point x="499" y="379" type="curve"/>
      <point x="499" y="262"/>
      <point x="497" y="-2"/>
    </contour>
    <contour>
      <point x="129" y="249" type="line"/>
      <point x="129" y="217" type="line"/>
      <point x="509" y="217" type="line"/>
      <point x="508" y="254" type="line"/>
    </contour>
    <contour>
      <point x="108" y="0" type="curve"/>
      <point x="152" y="1" type="line"/>
      <point x="152" y="1"/>
      <point x="147" y="234"/>
      <point x="147" y="350" type="curve"/>
      <point x="147" y="466"/>
      <point x="151" y="697"/>
      <point x="151" y="697" type="curve"/>
      <point x="104" y="695" type="line"/>
      <point x="104" y="695"/>
      <point x="113" y="523"/>
      <point x="113" y="352" type="curve"/>
      <point x="113" y="181"/>
      <point x="108" y="0"/>
    </contour>
  </outline>
</glyph>
<glyph name="I" format="2">
  <advance width="285"/>
  <unicode hex="0049"/>
  <anchor x="139" y="0" name="bottom"/>
  <anchor x="165" y="3" name="ogonek"/>
  <anchor x="143" y="693" name="top"/>
  <outline>
    <contour>
      <point x="121" y="700" type="line"/>
      <point x="124" y="644"/>
      <point x="125" y="474"/>
      <point x="124" y="379" type="curve"/>
      <point x="124" y="263"/>
      <point x="122" y="-2"/>
      <point x="122" y="-2" type="curve"/>
      <point x="163" y="-2" type="line"/>
      <point x="163" y="-2"/>
      <point x="159" y="210"/>
      <point x="159" y="381" type="curve"/>
      <point x="159" y="552"/>
      <point x="163" y="702"/>
      <point x="163" y="702" type="curve"/>
    </contour>
  </outline>
</glyph>
<glyph name="J" format="2">
  <advance width="535"/>
  <unicode hex="004A"/>
  <anchor x="410" y="693" name="top"/>
  <outline>
    <contour>
      <point x="249" y="-10" type="curve"/>
      <point x="418" y="-10"/>
      <point x="429" y="147"/>
      <point x="429" y="258" type="curve" smooth="yes"/>
      <point x="429" y="328"/>
      <point x="429" y="384"/>
      <point x="429" y="452" type="curve"/>
      <point x="429" y="542"/>
      <point x="429" y="607"/>
      <point x="431" y="700" type="curve"/>
      <point x="388" y="698" type="line"/>
      <point x="392" y="611"/>
      <point x="394" y="514"/>
      <point x="394" y="446" type="curve"/>
      <point x="394" y="421"/>
      <point x="394" y="270"/>
      <point x="394" y="243" type="curve" smooth="yes"/>
      <point x="394" y="142"/>
      <point x="376" y="21"/>
      <point x="254" y="21" type="curve"/>
      <point x="142" y="21"/>
      <point x="113" y="103"/>
      <point x="113" y="206" type="curve" smooth="yes"/>
      <point x="113" y="235"/>
      <point x="115" y="266"/>
      <point x="119" y="298" type="curve"/>
      <point x="83" y="299" type="line"/>
      <point x="80" y="267"/>
      <point x="78" y="235"/>
      <point x="78" y="205" type="curve" smooth="yes"/>
      <point x="78" y="86"/>
      <point x="110" y="-10"/>
    </contour>
  </outline>
</glyph>
<glyph name="K" format="2">
  <advance width="557"/>
  <unicode hex="004B"/>
  <anchor x="293" y="0" name="bottom"/>
  <outline>
    <contour>
      <point x="451" y="1" type="curve"/>
      <point x="505" y="5" type="line"/>
      <point x="388" y="100"/>
      <point x="234" y="227"/>
      <point x="151" y="296" type="curve"/>
      <point x="241" y="400"/>
      <point x="420" y="605"/>
      <point x="507" y="704" type="curve"/>
      <point x="458" y="702" type="line"/>
      <point x="381" y="609"/>
      <point x="232" y="434"/>
      <point x="107" y="289" type="curve"/>
      <point x="217" y="198"/>
      <point x="348" y="89"/>
    </contour>
    <contour>
      <point x="88" y="0" type="curve"/>
      <point x="131" y="1" type="line"/>
      <point x="131" y="1"/>
      <point x="127" y="234"/>
      <point x="127" y="350" type="curve"/>
      <point x="127" y="466"/>
      <point x="130" y="697"/>
      <point x="130" y="697" type="curve"/>
      <point x="85" y="699" type="line"/>
      <point x="85" y="699"/>
      <point x="92" y="523"/>
      <point x="92" y="352" type="curve"/>
      <point x="92" y="181"/>
      <point x="88" y="0"/>
    </contour>
  </outline>
</glyph>
<glyph name="L" format="2">
  <advance width="480"/>
  <unicode hex="004C"/>
  <anchor x="287" y="0" name="bottom"/>
  <anchor x="202" y="367" name="center"/>
  <anchor x="166" y="693" name="top"/>
  <anchor x="311" y="487" name="topright"/>
  <outline>
    <contour>
      <point x="107" y="-5" type="curve"/>
      <point x="149" y="1" type="line"/>
      <point x="149" y="1"/>
      <point x="145" y="234"/>
      <point x="145" y="350" type="curve"/>
      <point x="145" y="466"/>
      <point x="148" y="704"/>
      <point x="148" y="704" type="curve"/>
      <point x="104" y="700" type="line"/>
      <point x="104" y="700"/>
      <point x="111" y="523"/>
      <point x="111" y="352" type="curve"/>
      <point x="111" y="181"/>
      <point x="107" y="-5"/>
    </contour>
    <contour>
      <point x="107" y="-5" type="line"/>
      <point x="446" y="0" type="line"/>
      <point x="446" y="28" type="line"/>
      <point x="142" y="31" type="line"/>
    </contour>
  </outline>
</glyph>
<glyph name="M" format="2">
  <advance width="849"/>
  <unicode hex="004D"/>
  <outline>
    <contour>
      <point x="118" y="-1" type="curve"/>
      <point x="159" y="-1" type="line"/>
      <point x="158" y="52"/>
      <point x="157" y="201"/>
      <point x="156" y="345" type="curve" smooth="yes"/>
      <point x="155" y="472"/>
      <point x="154" y="596"/>
      <point x="154" y="646" type="curve"/>
      <point x="176" y="596"/>
      <point x="227" y="470"/>
      <point x="277" y="343" type="curve" smooth="yes"/>
      <point x="329" y="211"/>
      <point x="381" y="78"/>
      <point x="401" y="26" type="curve"/>
      <point x="441" y="23" type="line"/>
      <point x="457" y="67"/>
      <point x="514" y="212"/>
      <point x="570" y="353" type="curve" smooth="yes"/>
      <point x="621" y="482"/>
      <point x="672" y="607"/>
      <point x="690" y="648" type="curve"/>
      <point x="691" y="588"/>
      <point x="691" y="466"/>
      <point x="691" y="338" type="curve" smooth="yes"/>
      <point x="691" y="214"/>
      <point x="690" y="84"/>
      <point x="690" y="0" type="curve"/>
      <point x="731" y="-1" type="line"/>
      <point x="730" y="78"/>
      <point x="729" y="209"/>
      <point x="729" y="341" type="curve" smooth="yes"/>
      <point x="728" y="474"/>
      <point x="729" y="609"/>
      <point x="730" y="697" type="curve"/>
      <point x="669" y="697" type="line"/>
      <point x="621" y="571"/>
      <point x="576" y="457"/>
      <point x="533" y="348" type="curve" smooth="yes"/>
      <point x="495" y="254"/>
      <point x="459" y="164"/>
      <point x="422" y="74" type="curve"/>
      <point x="405" y="114"/>
      <point x="359" y="227"/>
      <point x="310" y="348" type="curve" smooth="yes"/>
      <point x="249" y="499"/>
      <point x="185" y="662"/>
      <point x="169" y="704" type="curve"/>
      <point x="119" y="702" type="line"/>
      <point x="121" y="638"/>
      <point x="121" y="489"/>
      <point x="121" y="341" type="curve" smooth="yes"/>
      <point x="120" y="203"/>
      <point x="119" y="65"/>
    </contour>
  </outline>
</glyph>
<glyph name="N" format="2">
  <advance width="645"/>
  <unicode hex="004E"/>
  <anchor x="326" y="0" name="bottom"/>
  <anchor x="329" y="693" name="top"/>
  <outline>
    <contour>
      <point x="107" y="704" type="line"/>
      <point x="110" y="636"/>
      <point x="111" y="494"/>
      <point x="112" y="351" type="curve" smooth="yes"/>
      <point x="112" y="213"/>
      <point x="111" y="75"/>
      <point x="110" y="1" type="curve"/>
      <point x="150" y="0" type="line"/>
      <point x="149" y="53"/>
      <point x="147" y="210"/>
      <point x="146" y="360" type="curve" smooth="yes"/>
      <point x="145" y="475"/>
      <point x="146" y="585"/>
      <point x="146" y="641" type="curve"/>
      <point x="178" y="586"/>
      <point x="240" y="470"/>
      <point x="308" y="345" type="curve" smooth="yes"/>
      <point x="375" y="222"/>
      <point x="440" y="91"/>
      <point x="489" y="-1" type="curve"/>
      <point x="536" y="3" type="line"/>
      <point x="534" y="87"/>
      <point x="534" y="243"/>
      <point x="534" y="391" type="curve" smooth="yes"/>
      <point x="534" y="526"/>
      <point x="536" y="655"/>
      <point x="538" y="715" type="curve"/>
      <point x="495" y="715" type="line"/>
      <point x="496" y="669"/>
      <point x="498" y="533"/>
      <point x="499" y="392" type="curve" smooth="yes"/>
      <point x="500" y="265"/>
      <point x="499" y="134"/>
      <point x="499" y="59" type="curve"/>
      <point x="474" y="105"/>
      <point x="406" y="235"/>
      <point x="333" y="369" type="curve" smooth="yes"/>
      <point x="258" y="507"/>
      <point x="187" y="648"/>
      <point x="158" y="704" type="curve"/>
    </contour>
  </outline>
</glyph>
<glyph name="P" format="2">
  <advance width="549"/>
  <unicode hex="0050"/>
  <outline>
    <contour>
      <point x="138" y="220" type="line"/>
      <point x="363" y="220"/>
      <point x="486" y="294"/>
      <point x="486" y="472" type="curve" smooth="yes"/>
      <point x="486" y="660"/>
      <point x="408" y="713"/>
      <point x="218" y="713" type="curve" smooth="yes"/>
      <point x="184" y="713"/>
      <point x="146" y="711"/>
      <point x="104" y="708" type="curve"/>
      <point x="118" y="670" type="line"/>
      <point x="163" y="676"/>
      <point x="203" y="679"/>
      <point x="238" y="679" type="curve" smooth="yes"/>
      <point x="386" y="679"/>
      <point x="450" y="621"/>
      <point x="450" y="469" type="curve" smooth="yes"/>
      <point x="450" y="323"/>
      <point x="350" y="246"/>
      <point x="134" y="254" type="curve"/>
    </contour>
    <contour>
      <point x="107" y="-2" type="curve"/>
      <point x="149" y="1" type="line"/>
      <point x="147" y="101"/>
      <point x="145" y="265"/>
      <point x="145" y="350" type="curve"/>
      <point x="145" y="385"/>
      <point x="147" y="662"/>
      <point x="148" y="698" type="curve"/>
      <point x="104" y="708" type="line"/>
      <point x="107" y="628"/>
      <point x="111" y="477"/>
      <point x="111" y="352" type="curve"/>
      <point x="111" y="227"/>
      <point x="109" y="77"/>
    </contour>
  </outline>
</glyph>
<glyph name="R" format="2">
  <advance width="589"/>
  <unicode hex="0052"/>
  <anchor x="310" y="0" name="bottom"/>
  <anchor x="294" y="693" name="top"/>
  <outline>
    <contour>
      <point x="147" y="230" type="line"/>
      <point x="372" y="230"/>
      <point x="495" y="304"/>
      <point x="495" y="472" type="curve" smooth="yes"/>
      <point x="495" y="660"/>
      <point x="417" y="713"/>
      <point x="227" y="713" type="curve" smooth="yes"/>
      <point x="193" y="713"/>
      <point x="155" y="711"/>
      <point x="113" y="708" type="curve"/>
      <point x="127" y="670" type="line"/>
      <point x="172" y="676"/>
      <point x="212" y="679"/>
      <point x="247" y="679" type="curve" smooth="yes"/>
      <point x="395" y="679"/>
      <point x="459" y="621"/>
      <point x="459" y="469" type="curve" smooth="yes"/>
      <point x="459" y="333"/>
      <point x="359" y="256"/>
      <point x="143" y="264" type="curve"/>
    </contour>
    <contour>
      <point x="116" y="-2" type="curve"/>
      <point x="158" y="1" type="line"/>
      <point x="156" y="101"/>
      <point x="154" y="265"/>
      <point x="154" y="350" type="curve"/>
      <point x="154" y="385"/>
      <point x="156" y="662"/>
      <point x="157" y="698" type="curve"/>
      <point x="113" y="708" type="line"/>
      <point x="116" y="628"/>
      <point x="120" y="477"/>
      <point x="120" y="352" type="curve"/>
      <point x="120" y="227"/>
      <point x="118" y="77"/>
    </contour>
    <contour>
      <point x="494" y="-6" type="curve"/>
      <point x="541" y="-3" type="line"/>
      <point x="469" y="93"/>
      <point x="405" y="194"/>
      <point x="352" y="283" type="curve"/>
      <point x="324" y="258" type="line"/>
      <point x="385" y="169"/>
      <point x="442" y="78"/>
    </contour>
  </outline>
</glyph>
<glyph name="S" format="2">
  <advance width="578"/>
  <unicode hex="0053"/>
  <anchor x="296" y="0" name="bottom"/>
  <anchor x="294" y="693" name="top"/>
  <outline>
    <contour>
      <point x="286" y="-10" type="curve" smooth="yes"/>
      <point x="431" y="-10"/>
      <point x="489" y="74"/>
      <point x="489" y="150" type="curve" smooth="yes"/>
      <point x="489" y="255"/>
      <point x="366" y="295"/>
      <point x="269" y="344" type="curve" smooth="yes"/>
      <point x="184" y="387"/>
      <point x="131" y="417"/>
      <point x="131" y="511" type="curve" smooth="yes"/>
      <point x="131" y="601"/>
      <point x="173" y="673"/>
      <point x="295" y="673" type="curve" smooth="yes"/>
      <point x="421" y="673"/>
      <point x="455" y="596"/>
      <point x="455" y="499" type="curve" smooth="yes"/>
      <point x="455" y="476"/>
      <point x="453" y="452"/>
      <point x="450" y="428" type="curve"/>
      <point x="485" y="428" type="line"/>
      <point x="488" y="451"/>
      <point x="489" y="474"/>
      <point x="489" y="496" type="curve" smooth="yes"/>
      <point x="489" y="615"/>
      <point x="442" y="704"/>
      <point x="290" y="704" type="curve" smooth="yes"/>
      <point x="154" y="704"/>
      <point x="96" y="609"/>
      <point x="96" y="517" type="curve" smooth="yes"/>
      <point x="96" y="399"/>
      <point x="162" y="358"/>
      <point x="254" y="315" type="curve" smooth="yes"/>
      <point x="348" y="271"/>
      <point x="453" y="234"/>
      <point x="453" y="145" type="curve" smooth="yes"/>
      <point x="453" y="87"/>
      <point x="412" y="22"/>
      <point x="285" y="22" type="curve" smooth="yes"/>
      <point x="179" y="22"/>
      <point x="132" y="76"/>
      <point x="132" y="145" type="curve" smooth="yes"/>
      <point x="132" y="158"/>
      <point x="133" y="170"/>
      <point x="136" y="183" type="curve"/>
      <point x="101" y="183" type="line"/>
      <point x="99" y="171"/>
      <point x="98" y="158"/>
      <point x="98" y="147" type="curve" smooth="yes"/>
      <point x="98" y="57"/>
      <point x="153" y="-10"/>
    </contour>
  </outline>
</glyph>
<glyph name="V" format="2">
  <advance width="588"/>
  <unicode hex="0056"/>
  <outline>
    <contour>
      <point x="51" y="709" type="line"/>
      <point x="86" y="598"/>
      <point x="126" y="475"/>
      <point x="164" y="353" type="curve" smooth="yes"/>
      <point x="203" y="230"/>
      <point x="242" y="107"/>
      <point x="276" y="-5" type="curve"/>
      <point x="316" y="-6" type="line"/>
      <point x="342" y="81"/>
      <point x="384" y="218"/>
      <point x="425" y="350" type="curve" smooth="yes"/>
      <point x="472" y="501"/>
      <point x="518" y="646"/>
      <point x="537" y="702" type="curve"/>
      <point x="496" y="700" type="line"/>
      <point x="479" y="642"/>
      <point x="439" y="506"/>
      <point x="394" y="358" type="curve" smooth="yes"/>
      <point x="361" y="250"/>
      <point x="326" y="136"/>
      <point x="296" y="44" type="curve"/>
      <point x="267" y="133"/>
      <point x="233" y="242"/>
      <point x="200" y="347" type="curve" smooth="yes"/>
      <point x="154" y="497"/>
      <point x="112" y="640"/>
      <point x="92" y="709" type="curve"/>
    </contour>
  </outline>
</glyph>
<glyph name="W" format="2">
  <advance width="978"/>
  <unicode hex="0057"/>
  <anchor x="489" y="693" name="top"/>
  <outline>
    <contour>
      <point x="310" y="-6" type="line"/>
      <point x="328" y="61"/>
      <point x="371" y="202"/>
      <point x="413" y="342" type="curve" smooth="yes"/>
      <point x="440" y="431"/>
      <point x="467" y="530"/>
      <point x="488" y="599" type="curve"/>
      <point x="511" y="526"/>
      <point x="539" y="421"/>
      <point x="568" y="327" type="curve" smooth="yes"/>
      <point x="608" y="192"/>
      <point x="647" y="58"/>
      <point x="665" y="-6" type="curve"/>
      <point x="705" y="-5" type="line"/>
      <point x="723" y="53"/>
      <point x="769" y="205"/>
      <point x="815" y="356" type="curve" smooth="yes"/>
      <point x="861" y="507"/>
      <point x="907" y="656"/>
      <point x="923" y="709" type="curve"/>
      <point x="882" y="709" type="line"/>
      <point x="851" y="600"/>
      <point x="815" y="475"/>
      <point x="779" y="351" type="curve" smooth="yes"/>
      <point x="747" y="243"/>
      <point x="715" y="137"/>
      <point x="685" y="44" type="curve"/>
      <point x="666" y="107"/>
      <point x="633" y="216"/>
      <point x="599" y="331" type="curve" smooth="yes"/>
      <point x="565" y="445"/>
      <point x="530" y="565"/>
      <point x="506" y="653" type="curve"/>
      <point x="470" y="653" type="line"/>
      <point x="447" y="568"/>
      <point x="413" y="453"/>
      <point x="381" y="342" type="curve" smooth="yes"/>
      <point x="346" y="223"/>
      <point x="310" y="109"/>
      <point x="291" y="44" type="curve"/>
      <point x="260" y="138"/>
      <point x="228" y="243"/>
      <point x="197" y="348" type="curve" smooth="yes"/>
      <point x="161" y="466"/>
      <point x="127" y="586"/>
      <point x="96" y="694" type="curve"/>
      <point x="55" y="694" type="line"/>
      <point x="71" y="640"/>
      <point x="117" y="491"/>
      <point x="164" y="343" type="curve" smooth="yes"/>
      <point x="209" y="197"/>
      <point x="253" y="52"/>
      <point x="270" y="-5" type="curve"/>
    </contour>
  </outline>
</glyph>
<glyph name="X" format="2">
  <advance width="567"/>
  <unicode hex="0058"/>
  <outline>
    <contour>
      <point x="38" y="-1" type="curve"/>
      <point x="85" y="0" type="line"/>
      <point x="109" y="42"/>
      <point x="213" y="207"/>
      <point x="306" y="356" type="curve" smooth="yes"/>
      <point x="389" y="489"/>
      <point x="488" y="641"/>
      <point x="523" y="693" type="curve"/>
      <point x="477" y="694" type="line"/>
      <point x="452" y="651"/>
      <point x="355" y="495"/>
      <point x="267" y="354" type="curve" smooth="yes"/>
      <point x="181" y="215"/>
      <point x="74" y="55"/>
    </contour>
    <contour>
      <point x="483" y="-7" type="curve"/>
      <point x="529" y="-7" type="line"/>
      <point x="493" y="50"/>
      <point x="385" y="224"/>
      <point x="301" y="364" type="curve" smooth="yes"/>
      <point x="218" y="503"/>
      <point x="133" y="644"/>
      <point x="106" y="690" type="curve"/>
      <point x="61" y="691" type="line"/>
      <point x="95" y="638"/>
      <point x="190" y="486"/>
      <point x="271" y="353" type="curve" smooth="yes"/>
      <point x="360" y="207"/>
      <point x="459" y="38"/>
    </contour>
  </outline>
</glyph>
<glyph name="Y" format="2">
  <advance width="535"/>
  <unicode hex="0059"/>
  <anchor x="265" y="0" name="bottom"/>
  <anchor x="267" y="693" name="top"/>
  <outline>
    <contour>
      <point x="246" y="0" type="curve"/>
      <point x="285" y="1" type="line"/>
      <point x="284" y="43"/>
      <point x="282" y="143"/>
      <point x="279" y="222" type="curve"/>
      <point x="246" y="226" type="line"/>
      <point x="247" y="122"/>
      <point x="247" y="43"/>
    </contour>
    <contour>
      <point x="48" y="704" type="line"/>
      <point x="81" y="617"/>
      <point x="116" y="527"/>
      <point x="150" y="437" type="curve" smooth="yes"/>
      <point x="185" y="346"/>
      <point x="222" y="256"/>
      <point x="253" y="171" type="curve"/>
      <point x="274" y="174" type="line"/>
      <point x="306" y="257"/>
      <point x="343" y="345"/>
      <point x="380" y="436" type="curve" smooth="yes"/>
      <point x="414" y="521"/>
      <point x="451" y="608"/>
      <point x="488" y="697" type="curve"/>
      <point x="445" y="695" type="line"/>
      <point x="410" y="606"/>
      <point x="376" y="518"/>
      <point x="344" y="437" type="curve" smooth="yes"/>
      <point x="314" y="361"/>
      <point x="287" y="292"/>
      <point x="263" y="237" type="curve"/>
      <point x="242" y="292"/>
      <point x="215" y="363"/>
      <point x="186" y="441" type="curve" smooth="yes"/>
      <point x="156" y="523"/>
      <point x="123" y="614"/>
      <point x="91" y="704" type="curve"/>
    </contour>
  </outline>
</glyph>
<glyph name="Z" format="2">
  <advance width="479"/>
  <unicode hex="005A"/>
  <anchor x="247" y="693" name="top"/>
  <outline>
    <contour>
      <point x="59" y="693" type="curve"/>
      <point x="58" y="658" type="line"/>
      <point x="90" y="659"/>
      <point x="177" y="660"/>
      <point x="225" y="660" type="curve" smooth="yes"/>
      <point x="263" y="660"/>
      <point x="341" y="659"/>
      <point x="386" y="658" type="curve"/>
      <point x="343" y="580"/>
      <point x="279" y="462"/>
      <point x="210" y="338" type="curve" smooth="yes"/>
      <point x="153" y="234"/>
      <point x="94" y="126"/>
      <point x="41" y="33" type="curve"/>
      <point x="42" y="1" type="line"/>
      <point x="80" y="2"/>
      <point x="186" y="3"/>
      <point x="239" y="3" type="curve" smooth="yes"/>
      <point x="292" y="3"/>
      <point x="396" y="1"/>
      <point x="432" y="0" type="curve"/>
      <point x="436" y="38" type="line"/>
      <point x="401" y="37"/>
      <point x="309" y="36"/>
      <point x="260" y="35" type="curve" smooth="yes"/>
      <point x="221" y="34"/>
      <point x="132" y="35"/>
      <point x="81" y="35" type="curve"/>
      <point x="127" y="122"/>
      <point x="185" y="227"/>
      <point x="243" y="331" type="curve" smooth="yes"/>
      <point x="312" y="455"/>
      <point x="380" y="577"/>
      <point x="428" y="660" type="curve"/>
      <point x="428" y="695" type="line"/>
      <point x="395" y="694"/>
      <point x="302" y="693"/>
      <point x="248" y="692" type="curve" smooth="yes"/>
      <point x="195" y="691"/>
      <point x="94" y="692"/>
    </contour>
  </outline>
</glyph>
<glyph name="bracketleft" format="2">
  <advance width="557"/>
  <unicode hex="005B"/>
  <outline>
    <contour>
      <point x="144" y="-136" type="curve"/>
      <point x="180" y="-131" type="line"/>
      <point x="180" y="-70"/>
      <point x="180" y="196"/>
      <point x="180" y="315" type="curve" smooth="yes"/>
      <point x="180" y="434"/>
      <point x="180" y="635"/>
      <point x="180" y="681" type="curve"/>
      <point x="145" y="691" type="line"/>
      <point x="146" y="637"/>
      <point x="149" y="465"/>
      <point x="149" y="304" type="curve" smooth="yes"/>
      <point x="149" y="136"/>
      <point x="146" y="-78"/>
    </contour>
    <contour>
      <point x="144" y="-136" type="line"/>
      <point x="190" y="-134"/>
      <point x="382" y="-132"/>
      <point x="412" y="-131" type="curve"/>
      <point x="413" y="-103" type="line"/>
      <point x="384" y="-102"/>
      <point x="199" y="-101"/>
      <point x="158" y="-100" type="curve"/>
    </contour>
    <contour>
      <point x="167" y="659" type="line"/>
      <point x="205" y="660"/>
      <point x="385" y="661"/>
      <point x="413" y="661" type="curve"/>
      <point x="410" y="693" type="line"/>
      <point x="382" y="692"/>
      <point x="188" y="691"/>
      <point x="145" y="691" type="curve"/>
    </contour>
  </outline>
</glyph>
<glyph name="backslash" format="2">
  <advance width="412"/>
  <unicode hex="005C"/>
  <outline>
    <contour>
      <point x="357" y="0" type="line"/>
      <point x="311" y="105"/>
      <point x="257" y="238"/>
      <point x="210" y="365" type="curve" smooth="yes"/>
      <point x="163" y="491"/>
      <point x="119" y="612"/>
      <point x="90" y="695" type="curve"/>
      <point x="54" y="694" type="line"/>
      <point x="92" y="603"/>
      <point x="138" y="486"/>
      <point x="184" y="361" type="curve" smooth="yes"/>
      <point x="228" y="241"/>
      <point x="278" y="116"/>
      <point x="321" y="1" type="curve"/>
    </contour>
  </outline>
</glyph>
<glyph name="bracketright" format="2">
  <advance width="557"/>
  <unicode hex="005D"/>
  <outline>
    <contour>
      <point x="412" y="-134" type="line"/>
      <point x="411" y="-80"/>
      <point x="408" y="92"/>
      <point x="408" y="253" type="curve" smooth="yes"/>
      <point x="408" y="421"/>
      <point x="411" y="635"/>
      <point x="413" y="693" type="curve"/>
      <point x="377" y="688" type="line"/>
      <point x="377" y="627"/>
      <point x="377" y="361"/>
      <point x="377" y="242" type="curve" smooth="yes"/>
      <point x="377" y="123"/>
      <point x="377" y="-78"/>
      <point x="377" y="-124" type="curve"/>
    </contour>
    <contour>
      <point x="147" y="-136" type="line"/>
      <point x="175" y="-135"/>
      <point x="369" y="-134"/>
      <point x="412" y="-134" type="curve"/>
      <point x="390" y="-102" type="line"/>
      <point x="352" y="-103"/>
      <point x="172" y="-104"/>
      <point x="144" y="-104" type="curve"/>
    </contour>
    <contour>
      <point x="144" y="660" type="line"/>
      <point x="173" y="659"/>
      <point x="358" y="658"/>
      <point x="399" y="657" type="curve"/>
      <point x="413" y="693" type="line"/>
      <point x="367" y="691"/>
      <point x="175" y="689"/>
      <point x="145" y="688" type="curve"/>
    </contour>
  </outline>
</glyph>
<glyph name="asciicircum" format="2">
  <advance width="552"/>
  <unicode hex="005E"/>
  <outline>
    <contour>
      <point x="421" y="371" type="curve"/>
      <point x="468" y="373" type="line"/>
      <point x="440" y="419"/>
      <point x="406" y="480"/>
      <point x="372" y="540" type="curve" smooth="yes"/>
      <point x="341" y="597"/>
      <point x="310" y="654"/>
      <point x="287" y="696" type="curve"/>
      <point x="255" y="694" type="line"/>
      <point x="282" y="644"/>
      <point x="313" y="584"/>
      <point x="343" y="525" type="curve" smooth="yes"/>
      <point x="371" y="470"/>
      <point x="399" y="415"/>
    </contour>
    <contour>
      <point x="125" y="374" type="line"/>
      <point x="149" y="426"/>
      <point x="170" y="474"/>
      <point x="192" y="520" type="curve" smooth="yes"/>
      <point x="220" y="582"/>
      <point x="247" y="639"/>
      <point x="274" y="695" type="curve"/>
      <point x="243" y="694" type="line"/>
      <point x="218" y="647"/>
      <point x="189" y="588"/>
      <point x="161" y="532" type="curve" smooth="yes"/>
      <point x="133" y="473"/>
      <point x="105" y="417"/>
      <point x="83" y="376" type="curve"/>
    </contour>
  </outline>
</glyph>
<glyph name="underscore" format="2">
  <advance width="534"/>
  <unicode hex="005F"/>
  <outline>
    <contour>
      <point x="47" y="-94" type="line"/>
      <point x="47" y="-94"/>
      <point x="201" y="-91"/>
      <point x="268" y="-90" type="curve" smooth="yes"/>
      <point x="340" y="-89"/>
      <point x="487" y="-91"/>
      <point x="487" y="-91" type="curve"/>
      <point x="489" y="-64" type="line"/>
      <point x="489" y="-64"/>
      <point x="337" y="-67"/>
      <point x="262" y="-68" type="curve" smooth="yes"/>
      <point x="188" y="-69"/>
      <point x="45" y="-66"/>
      <point x="45" y="-66" type="curve"/>
    </contour>
  </outline>
</glyph>
<glyph name="a" format="2">
  <advance width="496"/>
  <unicode hex="0061"/>
  <anchor x="248" y="0" name="bottom"/>
  <anchor x="420" y="5" name="ogonek"/>
  <anchor x="255" y="515" name="top"/>
  <outline>
    <contour>
      <point x="379" y="0" type="line"/>
      <point x="414" y="-1" type="line"/>
      <point x="411" y="218" type="line"/>
      <point x="414" y="343" type="line" smooth="yes"/>
      <point x="416" y="408"/>
      <point x="404" y="525"/>
      <point x="256" y="525" type="curve" smooth="yes"/>
      <point x="155" y="525"/>
      <point x="89" y="456"/>
      <point x="89" y="367" type="curve" smooth="yes"/>
      <point x="89" y="350"/>
      <point x="92" y="332"/>
      <point x="97" y="313" type="curve"/>
      <point x="128" y="316" type="line"/>
      <point x="124" y="333"/>
      <point x="122" y="349"/>
      <point x="122" y="365" type="curve" smooth="yes"/>
      <point x="122" y="439"/>
      <point x="168" y="495"/>
      <point x="256" y="495" type="curve" smooth="yes"/>
      <point x="345" y="495"/>
      <point x="379" y="450"/>
      <point x="379" y="356" type="curve" smooth="yes"/>
      <point x="379" y="149" type="line"/>
    </contour>
    <contour>
      <point x="208" y="-10" type="curve" smooth="yes"/>
      <point x="370" y="-10"/>
      <point x="406" y="140"/>
      <point x="409" y="257" type="curve"/>
      <point x="382" y="219" type="line"/>
      <point x="382" y="118"/>
      <point x="323" y="22"/>
      <point x="212" y="22" type="curve" smooth="yes"/>
      <point x="130" y="22"/>
      <point x="109" y="71"/>
      <point x="109" y="125" type="curve" smooth="yes"/>
      <point x="109" y="198"/>
      <point x="171" y="225"/>
      <point x="238" y="246" type="curve" smooth="yes"/>
      <point x="315" y="269"/>
      <point x="397" y="284"/>
      <point x="397" y="350" type="curve"/>
      <point x="380" y="363" type="line"/>
      <point x="380" y="312"/>
      <point x="305" y="299"/>
      <point x="229" y="275" type="curve" smooth="yes"/>
      <point x="151" y="251"/>
      <point x="73" y="216"/>
      <point x="73" y="119" type="curve" smooth="yes"/>
      <point x="73" y="42"/>
      <point x="124" y="-10"/>
    </contour>
  </outline>
</glyph>
<glyph name="b" format="2">
  <advance width="557"/>
  <unicode hex="0062"/>
  <outline>
    <contour>
      <point x="283" y="-8" type="curve" smooth="yes"/>
      <point x="376" y="-8"/>
      <point x="423" y="49"/>
      <point x="447" y="128" type="curve" smooth="yes"/>
      <point x="471" y="206"/>
      <point x="479" y="319"/>
      <point x="457" y="401" type="curve" smooth="yes"/>
      <point x="438" y="471"/>
      <point x="394" y="523"/>
      <point x="309" y="523" type="curve" smooth="yes"/>
      <point x="187" y="523"/>
      <point x="107" y="418"/>
      <point x="107" y="250" type="curve"/>
      <point x="134" y="293" type="line"/>
      <point x="134" y="409"/>
      <point x="214" y="493"/>
      <point x="306" y="493" type="curve" smooth="yes"/>
      <point x="371" y="493"/>
      <point x="406" y="452"/>
      <point x="423" y="395" type="curve" smooth="yes"/>
      <point x="445" y="323"/>
      <point x="440" y="221"/>
      <point x="419" y="143" type="curve" smooth="yes"/>
      <point x="400" y="74"/>
      <point x="362" y="21"/>
      <point x="288" y="21" type="curve" smooth="yes"/>
      <point x="182" y="21"/>
      <point x="134" y="119"/>
      <point x="134" y="215" type="curve"/>
      <point x="107" y="256" type="line"/>
      <point x="107" y="67"/>
      <point x="184" y="-8"/>
    </contour>
    <contour>
      <point x="134" y="-1" type="line"/>
      <point x="134" y="93" type="line"/>
      <point x="134" y="173"/>
      <point x="135" y="275"/>
      <point x="135" y="343" type="curve"/>
      <point x="135" y="489"/>
      <point x="136" y="690"/>
      <point x="136" y="690" type="curve"/>
      <point x="101" y="687" type="line"/>
      <point x="101" y="687"/>
      <point x="103" y="488"/>
      <point x="103" y="345" type="curve"/>
      <point x="103" y="201"/>
      <point x="103" y="0"/>
      <point x="103" y="0" type="curve"/>
    </contour>
  </outline>
</glyph>
<glyph name="c" format="2">
  <advance width="524"/>
  <unicode hex="0063"/>
  <anchor x="271" y="0" name="bottom"/>
  <anchor x="267" y="515" name="top"/>
  <outline>
    <contour>
      <point x="263" y="-10" type="curve" smooth="yes"/>
      <point x="376" y="-10"/>
      <point x="435" y="53"/>
      <point x="435" y="140" type="curve" smooth="yes"/>
      <point x="435" y="149"/>
      <point x="434" y="158"/>
      <point x="433" y="167" type="curve"/>
      <point x="401" y="167" type="line"/>
      <point x="402" y="158"/>
      <point x="403" y="149"/>
      <point x="403" y="140" type="curve" smooth="yes"/>
      <point x="403" y="66"/>
      <point x="359" y="20"/>
      <point x="268" y="20" type="curve" smooth="yes"/>
      <point x="206" y="20"/>
      <point x="168" y="47"/>
      <point x="145" y="89" type="curve" smooth="yes"/>
      <point x="120" y="137"/>
      <point x="114" y="203"/>
      <point x="114" y="270" type="curve" smooth="yes"/>
      <point x="114" y="322"/>
      <point x="121" y="372"/>
      <point x="140" y="412" type="curve" smooth="yes"/>
      <point x="164" y="463"/>
      <point x="206" y="497"/>
      <point x="273" y="497" type="curve" smooth="yes"/>
      <point x="365" y="497"/>
      <point x="403" y="430"/>
      <point x="403" y="349" type="curve" smooth="yes"/>
      <point x="403" y="328"/>
      <point x="401" y="307"/>
      <point x="396" y="285" type="curve"/>
      <point x="428" y="285" type="line"/>
      <point x="433" y="306"/>
      <point x="436" y="328"/>
      <point x="436" y="349" type="curve" smooth="yes"/>
      <point x="436" y="442"/>
      <point x="385" y="525"/>
      <point x="278" y="525" type="curve" smooth="yes"/>
      <point x="199" y="525"/>
      <point x="146" y="488"/>
      <point x="115" y="431" type="curve" smooth="yes"/>
      <point x="92" y="387"/>
      <point x="81" y="332"/>
      <point x="81" y="271" type="curve" smooth="yes"/>
      <point x="81" y="193"/>
      <point x="91" y="120"/>
      <point x="122" y="67" type="curve" smooth="yes"/>
      <point x="149" y="20"/>
      <point x="194" y="-10"/>
    </contour>
  </outline>
</glyph>
<glyph name="d" format="2">
  <advance width="555"/>
  <unicode hex="0064"/>
  <anchor x="398" y="597" name="center"/>
  <anchor x="488" y="491" name="topright"/>
  <outline>
    <contour>
      <point x="90" y="240" type="curve" smooth="yes"/>
      <point x="90" y="178"/>
      <point x="97" y="119"/>
      <point x="119" y="75" type="curve" smooth="yes"/>
      <point x="143" y="24"/>
      <point x="185" y="-8"/>
      <point x="255" y="-8" type="curve" smooth="yes"/>
      <point x="361" y="-8"/>
      <point x="408" y="73"/>
      <point x="429" y="127" type="curve"/>
      <point x="429" y="0" type="line"/>
      <point x="462" y="-1" type="line"/>
      <point x="462" y="76"/>
      <point x="459" y="295"/>
      <point x="459" y="317" type="curve" smooth="yes"/>
      <point x="459" y="429"/>
      <point x="460" y="540"/>
      <point x="461" y="672" type="curve"/>
      <point x="429" y="670" type="line"/>
      <point x="429" y="603"/>
      <point x="430" y="487"/>
      <point x="430" y="420" type="curve"/>
      <point x="405" y="482"/>
      <point x="357" y="525"/>
      <point x="277" y="525" type="curve" smooth="yes"/>
      <point x="199" y="525"/>
      <point x="151" y="487"/>
      <point x="123" y="427" type="curve" smooth="yes"/>
      <point x="99" y="377"/>
      <point x="90" y="311"/>
    </contour>
    <contour>
      <point x="123" y="256" type="curve" smooth="yes"/>
      <point x="123" y="313"/>
      <point x="131" y="370"/>
      <point x="151" y="414" type="curve" smooth="yes"/>
      <point x="173" y="463"/>
      <point x="211" y="496"/>
      <point x="271" y="496" type="curve" smooth="yes"/>
      <point x="354" y="496"/>
      <point x="395" y="453"/>
      <point x="414" y="387" type="curve" smooth="yes"/>
      <point x="423" y="352"/>
      <point x="427" y="312"/>
      <point x="427" y="268" type="curve" smooth="yes"/>
      <point x="427" y="224"/>
      <point x="421" y="181"/>
      <point x="408" y="143" type="curve" smooth="yes"/>
      <point x="385" y="73"/>
      <point x="337" y="22"/>
      <point x="258" y="22" type="curve" smooth="yes"/>
      <point x="200" y="22"/>
      <point x="166" y="50"/>
      <point x="147" y="93" type="curve" smooth="yes"/>
      <point x="128" y="137"/>
      <point x="123" y="195"/>
    </contour>
  </outline>
</glyph>
<glyph name="e" format="2">
  <advance width="524"/>
  <unicode hex="0065"/>
  <anchor x="270" y="0" name="bottom"/>
  <anchor x="308" y="-1" name="ogonek"/>
  <anchor x="274" y="515" name="top"/>
  <outline>
    <contour>
      <point x="270" y="-10" type="curve" smooth="yes"/>
      <point x="395" y="-10"/>
      <point x="453" y="55"/>
      <point x="453" y="148" type="curve" smooth="yes"/>
      <point x="453" y="154"/>
      <point x="452" y="161"/>
      <point x="452" y="167" type="curve"/>
      <point x="417" y="167" type="line"/>
      <point x="418" y="159"/>
      <point x="419" y="150"/>
      <point x="419" y="143" type="curve" smooth="yes"/>
      <point x="419" y="68"/>
      <point x="371" y="20"/>
      <point x="274" y="20" type="curve" smooth="yes"/>
      <point x="206" y="20"/>
      <point x="165" y="54"/>
      <point x="142" y="107" type="curve" smooth="yes"/>
      <point x="123" y="151"/>
      <point x="116" y="209"/>
      <point x="116" y="270" type="curve" smooth="yes"/>
      <point x="116" y="332"/>
      <point x="127" y="391"/>
      <point x="155" y="434" type="curve" smooth="yes"/>
      <point x="180" y="473"/>
      <point x="220" y="498"/>
      <point x="279" y="498" type="curve" smooth="yes"/>
      <point x="380" y="498"/>
      <point x="420" y="433"/>
      <point x="420" y="347" type="curve" smooth="yes"/>
      <point x="420" y="326"/>
      <point x="418" y="305"/>
      <point x="414" y="283" type="curve"/>
      <point x="444" y="256" type="line"/>
      <point x="449" y="283"/>
      <point x="452" y="310"/>
      <point x="452" y="336" type="curve" smooth="yes"/>
      <point x="452" y="442"/>
      <point x="404" y="525"/>
      <point x="285" y="525" type="curve" smooth="yes"/>
      <point x="212" y="525"/>
      <point x="161" y="495"/>
      <point x="129" y="448" type="curve" smooth="yes"/>
      <point x="97" y="402"/>
      <point x="83" y="339"/>
      <point x="83" y="271" type="curve" smooth="yes"/>
      <point x="83" y="201"/>
      <point x="92" y="136"/>
      <point x="115" y="86" type="curve" smooth="yes"/>
      <point x="143" y="27"/>
      <point x="191" y="-10"/>
    </contour>
    <contour>
      <point x="99" y="252" type="line"/>
      <point x="135" y="254"/>
      <point x="291" y="256"/>
      <point x="444" y="256" type="curve"/>
      <point x="446" y="286" type="line"/>
      <point x="99" y="284" type="line"/>
    </contour>
  </outline>
</glyph>
<glyph name="f" format="2">
  <advance width="369"/>
  <unicode hex="0066"/>
  <outline>
    <contour>
      <point x="26" y="484" type="line"/>
      <point x="26" y="484"/>
      <point x="131" y="485"/>
      <point x="201" y="485" type="curve"/>
      <point x="251" y="486"/>
      <point x="361" y="486"/>
      <point x="361" y="486" type="curve"/>
      <point x="363" y="513" type="line"/>
      <point x="363" y="513"/>
      <point x="252" y="511"/>
      <point x="203" y="511" type="curve"/>
      <point x="134" y="511"/>
      <point x="30" y="513"/>
      <point x="30" y="513" type="curve"/>
    </contour>
    <contour>
      <point x="278" y="716" type="curve" smooth="yes"/>
      <point x="161" y="716"/>
      <point x="126" y="622"/>
      <point x="126" y="541" type="curve" smooth="yes"/>
      <point x="126" y="446"/>
      <point x="125" y="401"/>
      <point x="125" y="270" type="curve" smooth="yes"/>
      <point x="125" y="124"/>
      <point x="121" y="-3"/>
      <point x="121" y="-3" type="curve"/>
      <point x="158" y="0" type="line"/>
      <point x="158" y="0"/>
      <point x="157" y="128"/>
      <point x="157" y="271" type="curve" smooth="yes"/>
      <point x="157" y="397"/>
      <point x="157" y="474"/>
      <point x="158" y="543" type="curve" smooth="yes"/>
      <point x="160" y="647"/>
      <point x="203" y="689"/>
      <point x="275" y="689" type="curve" smooth="yes"/>
      <point x="349" y="689"/>
      <point x="386" y="658"/>
      <point x="385" y="606" type="curve"/>
      <point x="415" y="604" type="line"/>
      <point x="416" y="663"/>
      <point x="376" y="716"/>
    </contour>
  </outline>
</glyph>
<glyph name="g" format="2">
  <advance width="552"/>
  <unicode hex="0067"/>
  <anchor x="282" y="515" name="top"/>
  <outline>
    <contour>
      <point x="266" y="-166" type="curve"/>
      <point x="414" y="-166"/>
      <point x="450" y="-58"/>
      <point x="450" y="41" type="curve"/>
      <point x="451" y="87"/>
      <point x="450" y="105"/>
      <point x="451" y="257" type="curve"/>
      <point x="451" y="383"/>
      <point x="464" y="515"/>
      <point x="464" y="515" type="curve"/>
      <point x="433" y="515" type="line"/>
      <point x="433" y="515"/>
      <point x="418" y="380"/>
      <point x="418" y="256" type="curve"/>
      <point x="418" y="113"/>
      <point x="417" y="63"/>
      <point x="417" y="33" type="curve"/>
      <point x="417" y="-52"/>
      <point x="389" y="-136"/>
      <point x="271" y="-136" type="curve"/>
      <point x="191" y="-136"/>
      <point x="154" y="-115"/>
      <point x="144" y="-72" type="curve" smooth="yes"/>
      <point x="142" y="-63"/>
      <point x="141" y="-53"/>
      <point x="141" y="-43" type="curve"/>
      <point x="111" y="-49" type="line"/>
      <point x="111" y="-61"/>
      <point x="112" y="-73"/>
      <point x="115" y="-83" type="curve" smooth="yes"/>
      <point x="129" y="-135"/>
      <point x="176" y="-166"/>
    </contour>
    <contour>
      <point x="259" y="-9" type="curve" smooth="yes"/>
      <point x="397" y="-9"/>
      <point x="447" y="128"/>
      <point x="447" y="255" type="curve"/>
      <point x="418" y="212" type="line"/>
      <point x="418" y="92"/>
      <point x="343" y="21"/>
      <point x="261" y="21" type="curve" smooth="yes"/>
      <point x="201" y="21"/>
      <point x="166" y="53"/>
      <point x="147" y="101" type="curve" smooth="yes"/>
      <point x="129" y="144"/>
      <point x="124" y="199"/>
      <point x="124" y="255" type="curve" smooth="yes"/>
      <point x="124" y="312"/>
      <point x="132" y="372"/>
      <point x="154" y="418" type="curve" smooth="yes"/>
      <point x="177" y="463"/>
      <point x="213" y="494"/>
      <point x="270" y="494" type="curve" smooth="yes"/>
      <point x="374" y="494"/>
      <point x="418" y="412"/>
      <point x="418" y="291" type="curve"/>
      <point x="447" y="249" type="line"/>
      <point x="447" y="441"/>
      <point x="387" y="523"/>
      <point x="277" y="523" type="curve" smooth="yes"/>
      <point x="202" y="523"/>
      <point x="154" y="488"/>
      <point x="126" y="434" type="curve" smooth="yes"/>
      <point x="101" y="387"/>
      <point x="91" y="326"/>
      <point x="91" y="261" type="curve" smooth="yes"/>
      <point x="91" y="194"/>
      <point x="99" y="129"/>
      <point x="122" y="80" type="curve" smooth="yes"/>
      <point x="147" y="26"/>
      <point x="190" y="-9"/>
    </contour>
  </outline>
</glyph>
<glyph name="h" format="2">
  <advance width="558"/>
  <unicode hex="0068"/>
  <anchor x="281" y="0" name="bottom"/>
  <anchor x="185" y="609" name="center"/>
  <anchor x="126" y="669" name="top"/>
  <outline>
    <contour>
      <point x="108" y="0" type="curve"/>
      <point x="143" y="0" type="line"/>
      <point x="143" y="0"/>
      <point x="143" y="103"/>
      <point x="143" y="246" type="curve"/>
      <point x="143" y="390"/>
      <point x="145" y="694"/>
      <point x="145" y="694" type="curve"/>
      <point x="108" y="694" type="line"/>
      <point x="108" y="694"/>
      <point x="111" y="431"/>
      <point x="111" y="285" type="curve"/>
      <point x="111" y="140"/>
      <point x="108" y="0"/>
    </contour>
    <contour>
      <point x="460" y="-1" type="line"/>
      <point x="460" y="50"/>
      <point x="457" y="44"/>
      <point x="457" y="177" type="curve" smooth="yes"/>
      <point x="457" y="270"/>
      <point x="457" y="286"/>
      <point x="457" y="334" type="curve" smooth="yes"/>
      <point x="457" y="438"/>
      <point x="421" y="520"/>
      <point x="311" y="520" type="curve" smooth="yes"/>
      <point x="209" y="520"/>
      <point x="119" y="422"/>
      <point x="119" y="233" type="curve"/>
      <point x="143" y="246" type="line"/>
      <point x="143" y="387"/>
      <point x="214" y="489"/>
      <point x="309" y="489" type="curve" smooth="yes"/>
      <point x="404" y="489"/>
      <point x="425" y="415"/>
      <point x="425" y="337" type="curve" smooth="yes"/>
      <point x="425" y="292"/>
      <point x="425" y="248"/>
      <point x="425" y="176" type="curve" smooth="yes"/>
      <point x="425" y="46"/>
      <point x="422" y="46"/>
      <point x="419" y="0" type="curve"/>
    </contour>
  </outline>
</glyph>
<glyph name="i" format="2">
  <advance width="275"/>
  <unicode hex="0069"/>
  <anchor x="131" y="0" name="bottom"/>
  <anchor x="160" y="7" name="ogonek"/>
  <outline>
    <contour>
      <point x="154" y="0" type="line"/>
      <point x="154" y="0"/>
      <point x="152" y="122"/>
      <point x="152" y="265" type="curve"/>
      <point x="152" y="409"/>
      <point x="156" y="516"/>
      <point x="156" y="516" type="curve"/>
      <point x="119" y="516" type="line"/>
      <point x="119" y="516"/>
      <point x="120" y="412"/>
      <point x="120" y="266" type="curve"/>
      <point x="120" y="121"/>
      <point x="116" y="2"/>
      <point x="116" y="2" type="curve"/>
    </contour>
    <contour>
      <point x="157" y="615" type="line"/>
      <point x="157" y="685" type="line"/>
      <point x="115" y="683" type="line"/>
      <point x="118" y="613" type="line"/>
    </contour>
  </outline>
</glyph>
<glyph name="k" format="2">
  <advance width="482"/>
  <unicode hex="006B"/>
  <anchor x="267" y="0" name="bottom"/>
  <outline>
    <contour>
      <point x="411" y="0" type="curve"/>
      <point x="455" y="3" type="line"/>
      <point x="344" y="103"/>
      <point x="261" y="180"/>
      <point x="171" y="271" type="curve"/>
      <point x="267" y="367"/>
      <point x="342" y="438"/>
      <point x="431" y="519" type="curve"/>
      <point x="390" y="521" type="line"/>
      <point x="313" y="445"/>
      <point x="247" y="383"/>
      <point x="128" y="269" type="curve"/>
      <point x="228" y="177"/>
      <point x="320" y="88"/>
    </contour>
    <contour>
      <point x="108" y="0" type="curve"/>
      <point x="143" y="0" type="line"/>
      <point x="143" y="0"/>
      <point x="143" y="141"/>
      <point x="143" y="284" type="curve"/>
      <point x="143" y="428"/>
      <point x="145" y="694"/>
      <point x="145" y="694" type="curve"/>
      <point x="108" y="694" type="line"/>
      <point x="108" y="694"/>
      <point x="111" y="431"/>
      <point x="111" y="285" type="curve"/>
      <point x="111" y="140"/>
      <point x="108" y="0"/>
    </contour>
  </outline>
</glyph>
<glyph name="l" format="2">
  <advance width="264"/>
  <unicode hex="006C"/>
  <anchor x="142" y="0" name="bottom"/>
  <anchor x="142" y="359" name="center"/>
  <anchor x="141" y="693" name="top"/>
  <anchor x="223" y="473" name="topright"/>
  <outline>
    <contour>
      <point x="121" y="0" type="curve"/>
      <point x="156" y="6" type="line"/>
      <point x="156" y="64"/>
      <point x="156" y="180"/>
      <point x="156" y="284" type="curve"/>
      <point x="156" y="389"/>
      <point x="157" y="580"/>
      <point x="158" y="694" type="curve"/>
      <point x="121" y="694" type="line"/>
      <point x="122" y="581"/>
      <point x="124" y="392"/>
      <point x="124" y="285" type="curve"/>
      <point x="124" y="179"/>
      <point x="122" y="60"/>
    </contour>
  </outline>
</glyph>
<glyph name="m" format="2">
  <advance width="840"/>
  <unicode hex="006D"/>
  <outline>
    <contour>
      <point x="407" y="0" type="curve"/>
      <point x="448" y="0" type="line"/>
      <point x="448" y="51"/>
      <point x="445" y="113"/>
      <point x="445" y="246" type="curve" smooth="yes"/>
      <point x="445" y="422"/>
      <point x="430" y="520"/>
      <point x="304" y="520" type="curve" smooth="yes"/>
      <point x="202" y="520"/>
      <point x="117" y="422"/>
      <point x="117" y="233" type="curve"/>
      <point x="141" y="246" type="line"/>
      <point x="141" y="387"/>
      <point x="207" y="489"/>
      <point x="302" y="489" type="curve" smooth="yes"/>
      <point x="392" y="489"/>
      <point x="413" y="415"/>
      <point x="413" y="337" type="curve" smooth="yes"/>
      <point x="413" y="292"/>
      <point x="413" y="228"/>
      <point x="413" y="176" type="curve" smooth="yes"/>
      <point x="413" y="46"/>
      <point x="410" y="46"/>
    </contour>
    <contour>
      <point x="103" y="0" type="curve"/>
      <point x="141" y="0" type="line"/>
      <point x="139" y="50"/>
      <point x="141" y="113"/>
      <point x="141" y="246" type="curve"/>
      <point x="139" y="375"/>
      <point x="141" y="483"/>
      <point x="143" y="519" type="curve"/>
      <point x="103" y="516" type="line"/>
      <point x="105" y="484"/>
      <point x="106" y="381"/>
      <point x="107" y="245" type="curve" smooth="yes"/>
      <point x="108" y="112"/>
      <point x="105" y="51"/>
    </contour>
    <contour>
      <point x="739" y="-1" type="line"/>
      <point x="742" y="69"/>
      <point x="744" y="105"/>
      <point x="746" y="151" type="curve" smooth="yes"/>
      <point x="749" y="226"/>
      <point x="749" y="281"/>
      <point x="749" y="334" type="curve" smooth="yes"/>
      <point x="749" y="438"/>
      <point x="713" y="520"/>
      <point x="608" y="520" type="curve" smooth="yes"/>
      <point x="506" y="520"/>
      <point x="421" y="422"/>
      <point x="421" y="233" type="curve"/>
      <point x="445" y="246" type="line"/>
      <point x="445" y="387"/>
      <point x="511" y="489"/>
      <point x="606" y="489" type="curve" smooth="yes"/>
      <point x="696" y="489"/>
      <point x="717" y="415"/>
      <point x="717" y="337" type="curve" smooth="yes"/>
      <point x="717" y="266"/>
      <point x="715" y="218"/>
      <point x="712" y="148" type="curve" smooth="yes"/>
      <point x="709" y="95"/>
      <point x="706" y="62"/>
      <point x="701" y="6" type="curve"/>
    </contour>
  </outline>
</glyph>
<glyph name="n" format="2">
  <advance width="562"/>
  <unicode hex="006E"/>
  <anchor x="283" y="0" name="bottom"/>
  <anchor x="298" y="515" name="top"/>
  <anchor x="178" y="515" name="topright"/>
  <outline>
    <contour>
      <point x="464" y="-1" type="line"/>
      <point x="464" y="50"/>
      <point x="461" y="44"/>
      <point x="461" y="177" type="curve" smooth="yes"/>
      <point x="461" y="250"/>
      <point x="461" y="286"/>
      <point x="461" y="334" type="curve" smooth="yes"/>
      <point x="461" y="438"/>
      <point x="425" y="520"/>
      <point x="315" y="520" type="curve" smooth="yes"/>
      <point x="213" y="520"/>
      <point x="123" y="422"/>
      <point x="123" y="233" type="curve"/>
      <point x="147" y="246" type="line"/>
      <point x="147" y="387"/>
      <point x="218" y="489"/>
      <point x="313" y="489" type="curve" smooth="yes"/>
      <point x="408" y="489"/>
      <point x="429" y="415"/>
      <point x="429" y="337" type="curve" smooth="yes"/>
      <point x="429" y="292"/>
      <point x="429" y="228"/>
      <point x="429" y="176" type="curve" smooth="yes"/>
      <point x="429" y="46"/>
      <point x="426" y="46"/>
      <point x="423" y="0" type="curve"/>
    </contour>
    <contour>
      <point x="109" y="0" type="curve"/>
      <point x="147" y="0" type="line"/>
      <point x="145" y="50"/>
      <point x="147" y="113"/>
      <point x="147" y="246" type="curve"/>
      <point x="145" y="375"/>
      <point x="147" y="483"/>
      <point x="149" y="519" type="curve"/>
      <point x="109" y="516" type="line"/>
      <point x="111" y="484"/>
      <point x="112" y="381"/>
      <point x="113" y="245" type="curve" smooth="yes"/>
      <point x="114" y="112"/>
      <point x="111" y="51"/>
    </contour>
  </outline>
</glyph>
<glyph name="p" format="2">
  <advance width="573"/>
  <unicode hex="0070"/>
  <outline>
    <contour>
      <point x="116" y="-149" type="curve"/>
      <point x="153" y="-147" type="line"/>
      <point x="151" y="75" type="line"/>
      <point x="167" y="37"/>
      <point x="210" y="-10"/>
      <point x="299" y="-10" type="curve" smooth="yes"/>
      <point x="374" y="-10"/>
      <point x="421" y="26"/>
      <point x="449" y="81" type="curve" smooth="yes"/>
      <point x="476" y="133"/>
      <point x="486" y="201"/>
      <point x="486" y="273" type="curve" smooth="yes"/>
      <point x="486" y="338"/>
      <point x="478" y="401"/>
      <point x="453" y="447" type="curve" smooth="yes"/>
      <point x="428" y="492"/>
      <point x="387" y="521"/>
      <point x="321" y="521" type="curve" smooth="yes"/>
      <point x="225" y="521"/>
      <point x="176" y="465"/>
      <point x="151" y="408" type="curve"/>
      <point x="151" y="519" type="line"/>
      <point x="116" y="515" type="line"/>
      <point x="117" y="472"/>
      <point x="118" y="303"/>
      <point x="118" y="188" type="curve" smooth="yes"/>
      <point x="118" y="64"/>
      <point x="116" y="-149"/>
    </contour>
    <contour>
      <point x="150" y="210" type="curve" smooth="yes"/>
      <point x="150" y="274" type="line" smooth="yes"/>
      <point x="150" y="436"/>
      <point x="229" y="491"/>
      <point x="318" y="491" type="curve" smooth="yes"/>
      <point x="370" y="491"/>
      <point x="403" y="468"/>
      <point x="423" y="431" type="curve" smooth="yes"/>
      <point x="447" y="388"/>
      <point x="453" y="324"/>
      <point x="453" y="257" type="curve" smooth="yes"/>
      <point x="453" y="201"/>
      <point x="444" y="143"/>
      <point x="422" y="99" type="curve" smooth="yes"/>
      <point x="399" y="52"/>
      <point x="361" y="19"/>
      <point x="305" y="19" type="curve" smooth="yes"/>
      <point x="183" y="19"/>
      <point x="150" y="97"/>
    </contour>
  </outline>
</glyph>
<glyph name="q" format="2">
  <advance width="556"/>
  <unicode hex="0071"/>
  <outline>
    <contour>
      <point x="87" y="277" type="curve" smooth="yes"/>
      <point x="87" y="206"/>
      <point x="94" y="138"/>
      <point x="118" y="86" type="curve" smooth="yes"/>
      <point x="143" y="29"/>
      <point x="187" y="-8"/>
      <point x="261" y="-8" type="curve" smooth="yes"/>
      <point x="358" y="-8"/>
      <point x="403" y="44"/>
      <point x="428" y="107" type="curve"/>
      <point x="423" y="-146" type="line"/>
      <point x="458" y="-147" type="line"/>
      <point x="456" y="-44"/>
      <point x="455" y="76"/>
      <point x="455" y="198" type="curve" smooth="yes"/>
      <point x="455" y="321"/>
      <point x="459" y="445"/>
      <point x="460" y="525" type="curve"/>
      <point x="424" y="523" type="line"/>
      <point x="427" y="402" type="line"/>
      <point x="411" y="457"/>
      <point x="367" y="525"/>
      <point x="271" y="525" type="curve" smooth="yes"/>
      <point x="198" y="525"/>
      <point x="150" y="492"/>
      <point x="121" y="440" type="curve" smooth="yes"/>
      <point x="97" y="396"/>
      <point x="87" y="339"/>
    </contour>
    <contour>
      <point x="120" y="261" type="curve" smooth="yes"/>
      <point x="120" y="320"/>
      <point x="126" y="377"/>
      <point x="146" y="421" type="curve" smooth="yes"/>
      <point x="168" y="465"/>
      <point x="204" y="495"/>
      <point x="266" y="495" type="curve" smooth="yes"/>
      <point x="337" y="495"/>
      <point x="379" y="458"/>
      <point x="401" y="401" type="curve" smooth="yes"/>
      <point x="417" y="362"/>
      <point x="423" y="313"/>
      <point x="423" y="261" type="curve" smooth="yes"/>
      <point x="423" y="209"/>
      <point x="419" y="160"/>
      <point x="406" y="121" type="curve" smooth="yes"/>
      <point x="386" y="60"/>
      <point x="344" y="21"/>
      <point x="262" y="21" type="curve" smooth="yes"/>
      <point x="204" y="21"/>
      <point x="169" y="52"/>
      <point x="147" y="98" type="curve" smooth="yes"/>
      <point x="127" y="143"/>
      <point x="120" y="203"/>
    </contour>
  </outline>
</glyph>
<glyph name="r" format="2">
  <advance width="472"/>
  <unicode hex="0072"/>
  <anchor x="133" y="0" name="bottom"/>
  <anchor x="284" y="515" name="top"/>
  <outline>
    <contour>
      <point x="398" y="230" type="curve"/>
      <point x="426" y="231" type="line"/>
      <point x="438" y="278"/>
      <point x="446" y="324"/>
      <point x="446" y="366" type="curve" smooth="yes"/>
      <point x="446" y="460"/>
      <point x="409" y="531"/>
      <point x="310" y="531" type="curve" smooth="yes"/>
      <point x="180" y="531"/>
      <point x="125" y="404"/>
      <point x="125" y="248" type="curve"/>
      <point x="150" y="283" type="line"/>
      <point x="150" y="396"/>
      <point x="204" y="502"/>
      <point x="307" y="502" type="curve" smooth="yes"/>
      <point x="390" y="502"/>
      <point x="417" y="446"/>
      <point x="417" y="369" type="curve" smooth="yes"/>
      <point x="417" y="327"/>
      <point x="409" y="279"/>
    </contour>
    <contour>
      <point x="114" y="0" type="curve"/>
      <point x="150" y="0" type="line"/>
      <point x="148" y="50"/>
      <point x="150" y="150"/>
      <point x="150" y="283" type="curve"/>
      <point x="148" y="412"/>
      <point x="148" y="483"/>
      <point x="149" y="519" type="curve"/>
      <point x="109" y="516" type="line"/>
      <point x="113" y="484"/>
      <point x="117" y="381"/>
      <point x="118" y="245" type="curve" smooth="yes"/>
      <point x="119" y="112"/>
      <point x="116" y="51"/>
    </contour>
  </outline>
</glyph>
<glyph name="s" format="2">
  <advance width="480"/>
  <unicode hex="0073"/>
  <anchor x="247" y="0" name="bottom"/>
  <anchor x="244" y="515" name="top"/>
  <outline>
    <contour>
      <point x="241" y="-10" type="curve" smooth="yes"/>
      <point x="377" y="-10"/>
      <point x="425" y="59"/>
      <point x="425" y="118" type="curve" smooth="yes"/>
      <point x="425" y="210"/>
      <point x="321" y="231"/>
      <point x="229" y="259" type="curve" smooth="yes"/>
      <point x="157" y="282"/>
      <point x="92" y="309"/>
      <point x="92" y="381" type="curve" smooth="yes"/>
      <point x="92" y="448"/>
      <point x="129" y="503"/>
      <point x="243" y="503" type="curve" smooth="yes"/>
      <point x="341" y="503"/>
      <point x="389" y="446"/>
      <point x="389" y="362" type="curve" smooth="yes"/>
      <point x="389" y="343"/>
      <point x="386" y="322"/>
      <point x="381" y="300" type="curve"/>
      <point x="415" y="300" type="line"/>
      <point x="420" y="321"/>
      <point x="422" y="341"/>
      <point x="422" y="360" type="curve" smooth="yes"/>
      <point x="422" y="456"/>
      <point x="365" y="532"/>
      <point x="245" y="532" type="curve" smooth="yes"/>
      <point x="124" y="532"/>
      <point x="59" y="471"/>
      <point x="59" y="379" type="curve" smooth="yes"/>
      <point x="59" y="289"/>
      <point x="137" y="257"/>
      <point x="217" y="232" type="curve" smooth="yes"/>
      <point x="303" y="205"/>
      <point x="393" y="186"/>
      <point x="393" y="113" type="curve" smooth="yes"/>
      <point x="393" y="73"/>
      <point x="361" y="20"/>
      <point x="239" y="20" type="curve" smooth="yes"/>
      <point x="143" y="20"/>
      <point x="90" y="55"/>
      <point x="90" y="120" type="curve" smooth="yes"/>
      <point x="90" y="132"/>
      <point x="92" y="144"/>
      <point x="95" y="157" type="curve"/>
      <point x="62" y="157" type="line"/>
      <point x="60" y="145"/>
      <point x="59" y="133"/>
      <point x="59" y="122" type="curve" smooth="yes"/>
      <point x="59" y="36"/>
      <point x="121" y="-10"/>
    </contour>
  </outline>
</glyph>
<glyph name="t" format="2">
  <advance width="493"/>
  <unicode hex="0074"/>
  <anchor x="273" y="-11" name="bottom"/>
  <anchor x="205" y="388" name="center"/>
  <anchor x="302" y="555" name="topright"/>
  <outline>
    <contour>
      <point x="257" y="-11" type="curve" smooth="yes"/>
      <point x="385" y="-12"/>
      <point x="438" y="73"/>
      <point x="438" y="184" type="curve" smooth="yes"/>
      <point x="438" y="208"/>
      <point x="436" y="233"/>
      <point x="431" y="258" type="curve"/>
      <point x="400" y="258" type="line"/>
      <point x="404" y="230"/>
      <point x="406" y="203"/>
      <point x="406" y="179" type="curve" smooth="yes"/>
      <point x="406" y="82"/>
      <point x="370" y="19"/>
      <point x="256" y="19" type="curve" smooth="yes"/>
      <point x="149" y="19"/>
      <point x="133" y="111"/>
      <point x="133" y="207" type="curve" smooth="yes"/>
      <point x="133" y="223"/>
      <point x="133" y="238"/>
      <point x="134" y="254" type="curve" smooth="yes"/>
      <point x="137" y="348"/>
      <point x="144" y="442"/>
      <point x="153" y="616" type="curve"/>
      <point x="114" y="615" type="line"/>
      <point x="113" y="455"/>
      <point x="109" y="344"/>
      <point x="103" y="250" type="curve" smooth="yes"/>
      <point x="102" y="233"/>
      <point x="101" y="216"/>
      <point x="101" y="200" type="curve" smooth="yes"/>
      <point x="101" y="79"/>
      <point x="135" y="-10"/>
    </contour>
    <contour>
      <point x="41" y="484" type="line"/>
      <point x="41" y="484"/>
      <point x="128" y="487"/>
      <point x="237" y="488" type="curve"/>
      <point x="249" y="488"/>
      <point x="431" y="488"/>
      <point x="434" y="488" type="curve"/>
      <point x="436" y="515" type="line"/>
      <point x="436" y="515"/>
      <point x="272" y="513"/>
      <point x="223" y="512" type="curve"/>
      <point x="116" y="512"/>
      <point x="43" y="513"/>
      <point x="43" y="513" type="curve"/>
    </contour>
  </outline>
</glyph>
<glyph name="u" format="2">
  <advance width="541"/>
  <unicode hex="0075"/>
  <anchor x="267" y="0" name="bottom"/>
  <anchor x="449" y="5" name="ogonek"/>
  <anchor x="277" y="515" name="top"/>
  <anchor x="360" y="515" name="topright"/>
  <outline>
    <contour>
      <point x="225" y="-10" type="curve" smooth="yes"/>
      <point x="360" y="-10"/>
      <point x="433" y="130"/>
      <point x="433" y="285" type="curve"/>
      <point x="407" y="268" type="line"/>
      <point x="407" y="127"/>
      <point x="324" y="20"/>
      <point x="229" y="20" type="curve" smooth="yes"/>
      <point x="147" y="20"/>
      <point x="124" y="89"/>
      <point x="124" y="214" type="curve" smooth="yes"/>
      <point x="124" y="255"/>
      <point x="124" y="301"/>
      <point x="127" y="353" type="curve" smooth="yes"/>
      <point x="130" y="415"/>
      <point x="134" y="446"/>
      <point x="140" y="524" type="curve"/>
      <point x="102" y="519" type="line"/>
      <point x="97" y="451"/>
      <point x="95" y="429"/>
      <point x="93" y="373" type="curve" smooth="yes"/>
      <point x="91" y="319"/>
      <point x="91" y="271"/>
      <point x="91" y="229" type="curve" smooth="yes"/>
      <point x="91" y="68"/>
      <point x="119" y="-10"/>
    </contour>
    <contour>
      <point x="412" y="0" type="line"/>
      <point x="444" y="0" type="line"/>
      <point x="444" y="90"/>
      <point x="438" y="171"/>
      <point x="438" y="260" type="curve" smooth="yes"/>
      <point x="438" y="384"/>
      <point x="441" y="405"/>
      <point x="442" y="523" type="curve"/>
      <point x="404" y="526" type="line"/>
      <point x="406" y="411"/>
      <point x="407" y="383"/>
      <point x="407" y="268" type="curve" smooth="yes"/>
      <point x="407" y="229"/>
      <point x="407" y="181"/>
      <point x="408" y="160" type="curve"/>
    </contour>
  </outline>
</glyph>
<glyph name="v" format="2">
  <advance width="494"/>
  <unicode hex="0076"/>
  <outline>
    <contour>
      <point x="33" y="521" type="line"/>
      <point x="71" y="423"/>
      <point x="99" y="347"/>
      <point x="135" y="253" type="curve" smooth="yes"/>
      <point x="171" y="160"/>
      <point x="198" y="90"/>
      <point x="229" y="-1" type="curve"/>
      <point x="273" y="-1" type="line"/>
      <point x="307" y="98"/>
      <point x="334" y="165"/>
      <point x="369" y="255" type="curve" smooth="yes"/>
      <point x="403" y="342"/>
      <point x="429" y="412"/>
      <point x="471" y="519" type="curve"/>
      <point x="433" y="515" type="line"/>
      <point x="399" y="421"/>
      <point x="376" y="353"/>
      <point x="342" y="266" type="curve" smooth="yes"/>
      <point x="309" y="181"/>
      <point x="285" y="117"/>
      <point x="251" y="30" type="curve"/>
      <point x="222" y="103"/>
      <point x="198" y="170"/>
      <point x="164" y="260" type="curve" smooth="yes"/>
      <point x="129" y="353"/>
      <point x="103" y="430"/>
      <point x="72" y="521" type="curve"/>
    </contour>
  </outline>
</glyph>
<glyph name="w" format="2">
  <advance width="787"/>
  <unicode hex="0077"/>
  <anchor x="397" y="515" name="top"/>
  <outline>
    <contour>
      <point x="235" y="-1" type="curve"/>
      <point x="279" y="-1" type="line"/>
      <point x="301" y="83"/>
      <point x="326" y="170"/>
      <point x="350" y="250" type="curve" smooth="yes"/>
      <point x="367" y="309"/>
      <point x="384" y="364"/>
      <point x="398" y="411" type="curve"/>
      <point x="413" y="371"/>
      <point x="432" y="318"/>
      <point x="455" y="254" type="curve" smooth="yes"/>
      <point x="481" y="182"/>
      <point x="512" y="96"/>
      <point x="545" y="-1" type="curve"/>
      <point x="589" y="-1" type="line"/>
      <point x="614" y="87"/>
      <point x="640" y="175"/>
      <point x="665" y="259" type="curve" smooth="yes"/>
      <point x="694" y="353"/>
      <point x="722" y="442"/>
      <point x="747" y="519" type="curve"/>
      <point x="708" y="515" type="line"/>
      <point x="688" y="443"/>
      <point x="664" y="355"/>
      <point x="640" y="272" type="curve" smooth="yes"/>
      <point x="612" y="176"/>
      <point x="585" y="86"/>
      <point x="567" y="30" type="curve"/>
      <point x="553" y="69"/>
      <point x="519" y="168"/>
      <point x="485" y="265" type="curve" smooth="yes"/>
      <point x="457" y="346"/>
      <point x="430" y="426"/>
      <point x="416" y="468" type="curve"/>
      <point x="377" y="468" type="line"/>
      <point x="368" y="432"/>
      <point x="344" y="345"/>
      <point x="319" y="255" type="curve" smooth="yes"/>
      <point x="295" y="167"/>
      <point x="269" y="75"/>
      <point x="257" y="30" type="curve"/>
      <point x="235" y="94"/>
      <point x="197" y="195"/>
      <point x="161" y="291" type="curve" smooth="yes"/>
      <point x="125" y="387"/>
      <point x="92" y="478"/>
      <point x="79" y="521" type="curve"/>
      <point x="39" y="521" type="line"/>
      <point x="67" y="446"/>
      <point x="100" y="361"/>
      <point x="134" y="273" type="curve" smooth="yes"/>
      <point x="169" y="181"/>
      <point x="204" y="87"/>
    </contour>
  </outline>
</glyph>
<glyph name="x" format="2">
  <advance width="446"/>
  <unicode hex="0078"/>
  <outline>
    <contour>
      <point x="69" y="-4" type="line"/>
      <point x="119" y="86"/>
      <point x="154" y="134"/>
      <point x="239" y="261" type="curve" smooth="yes"/>
      <point x="321" y="383"/>
      <point x="362" y="446"/>
      <point x="413" y="518" type="curve"/>
      <point x="371" y="518" type="line"/>
      <point x="329" y="448"/>
      <point x="297" y="404"/>
      <point x="215" y="279" type="curve" smooth="yes"/>
      <point x="128" y="146"/>
      <point x="89" y="86"/>
      <point x="27" y="-2" type="curve"/>
    </contour>
    <contour>
      <point x="378" y="2" type="curve"/>
      <point x="421" y="3" type="line"/>
      <point x="373" y="70"/>
      <point x="321" y="140"/>
      <point x="231" y="279" type="curve" smooth="yes"/>
      <point x="151" y="402"/>
      <point x="115" y="454"/>
      <point x="78" y="518" type="curve"/>
      <point x="37" y="515" type="line"/>
      <point x="101" y="425"/>
      <point x="129" y="383"/>
      <point x="208" y="261" type="curve" smooth="yes"/>
      <point x="296" y="125"/>
      <point x="339" y="64"/>
    </contour>
  </outline>
</glyph>
<glyph name="y" format="2">
  <advance width="494"/>
  <unicode hex="0079"/>
  <anchor x="348" y="0" name="bottom"/>
  <anchor x="244" y="515" name="top"/>
  <outline>
    <contour>
      <point x="236" y="-149" type="line"/>
      <point x="271" y="-34"/>
      <point x="318" y="98"/>
      <point x="364" y="241" type="curve" smooth="yes"/>
      <point x="400" y="353"/>
      <point x="433" y="439"/>
      <point x="460" y="519" type="curve"/>
      <point x="422" y="519" type="line"/>
      <point x="399" y="443"/>
      <point x="369" y="359"/>
      <point x="332" y="244" type="curve" smooth="yes"/>
      <point x="290" y="113"/>
      <point x="246" y="-12"/>
      <point x="201" y="-146" type="curve"/>
    </contour>
    <contour>
      <point x="247" y="-16" type="curve"/>
      <point x="275" y="0" type="line"/>
      <point x="243" y="83"/>
      <point x="212" y="149"/>
      <point x="179" y="235" type="curve" smooth="yes"/>
      <point x="140" y="337"/>
      <point x="104" y="419"/>
      <point x="69" y="514" type="curve"/>
      <point x="31" y="513" type="line"/>
      <point x="63" y="432"/>
      <point x="107" y="336"/>
      <point x="152" y="221" type="curve" smooth="yes"/>
      <point x="188" y="130"/>
      <point x="220" y="58"/>
    </contour>
  </outline>
</glyph>
<glyph name="z" format="2">
  <advance width="397"/>
  <unicode hex="007A"/>
  <anchor x="194" y="515" name="top"/>
  <outline>
    <contour>
      <point x="56" y="10" type="line"/>
      <point x="76" y="46"/>
      <point x="134" y="132"/>
      <point x="204" y="239" type="curve" smooth="yes"/>
      <point x="276" y="349"/>
      <point x="339" y="441"/>
      <point x="363" y="478" type="curve"/>
      <point x="334" y="497" type="line"/>
      <point x="310" y="455"/>
      <point x="244" y="356"/>
      <point x="173" y="246" type="curve" smooth="yes"/>
      <point x="104" y="139"/>
      <point x="48" y="57"/>
      <point x="30" y="30" type="curve"/>
    </contour>
    <contour>
      <point x="31" y="-4" type="line"/>
      <point x="31" y="-4"/>
      <point x="110" y="0"/>
      <point x="200" y="0" type="curve"/>
      <point x="250" y="-1"/>
      <point x="372" y="0"/>
      <point x="372" y="0" type="curve"/>
      <point x="372" y="32" type="line"/>
      <point x="372" y="32"/>
      <point x="263" y="29"/>
      <point x="215" y="29" type="curve" smooth="yes"/>
      <point x="166" y="29"/>
      <point x="30" y="30"/>
      <point x="30" y="30" type="curve"/>
    </contour>
    <contour>
      <point x="39" y="478" type="line"/>
      <point x="39" y="478"/>
      <point x="102" y="480"/>
      <point x="191" y="480" type="curve"/>
      <point x="239" y="480"/>
      <point x="363" y="478"/>
      <point x="363" y="478" type="curve"/>
      <point x="360" y="515" type="line"/>
      <point x="360" y="515"/>
      <point x="257" y="512"/>
      <point x="207" y="512" type="curve"/>
      <point x="157" y="511"/>
      <point x="40" y="512"/>
      <point x="40" y="512" type="curve"/>
    </contour>
  </outline>
</glyph>
<glyph name="braceleft" format="2">
  <advance width="684"/>
  <unicode hex="007B"/>
  <outline>
    <contour>
      <point x="413" y="-129" type="curve" smooth="yes"/>
      <point x="446" y="-129"/>
      <point x="484" y="-123"/>
      <point x="525" y="-113" type="curve"/>
      <point x="520" y="-92" type="line"/>
      <point x="480" y="-99"/>
      <point x="444" y="-104"/>
      <point x="412" y="-104" type="curve" smooth="yes"/>
      <point x="339" y="-104"/>
      <point x="296" y="-80"/>
      <point x="296" y="0" type="curve" smooth="yes"/>
      <point x="296" y="42"/>
      <point x="317" y="133"/>
      <point x="317" y="172" type="curve" smooth="yes"/>
      <point x="317" y="225"/>
      <point x="263" y="263"/>
      <point x="201" y="274" type="curve"/>
      <point x="265" y="288"/>
      <point x="315" y="325"/>
      <point x="315" y="379" type="curve" smooth="yes"/>
      <point x="315" y="420"/>
      <point x="284" y="525"/>
      <point x="284" y="574" type="curve" smooth="yes"/>
      <point x="284" y="651"/>
      <point x="326" y="676"/>
      <point x="400" y="676" type="curve" smooth="yes"/>
      <point x="430" y="676"/>
      <point x="465" y="671"/>
      <point x="503" y="664" type="curve"/>
      <point x="510" y="687" type="line"/>
      <point x="471" y="697"/>
      <point x="434" y="703"/>
      <point x="401" y="703" type="curve" smooth="yes"/>
      <point x="313" y="703"/>
      <point x="253" y="663"/>
      <point x="253" y="566" type="curve" smooth="yes"/>
      <point x="253" y="519"/>
      <point x="285" y="433"/>
      <point x="285" y="384" type="curve" smooth="yes"/>
      <point x="285" y="328"/>
      <point x="233" y="302"/>
      <point x="160" y="288" type="curve"/>
      <point x="163" y="257" type="line"/>
      <point x="235" y="246"/>
      <point x="285" y="225"/>
      <point x="285" y="167" type="curve" smooth="yes"/>
      <point x="285" y="119"/>
      <point x="263" y="54"/>
      <point x="263" y="7" type="curve" smooth="yes"/>
      <point x="263" y="-89"/>
      <point x="323" y="-129"/>
    </contour>
  </outline>
</glyph>
<glyph name="bar" format="2">
  <advance width="289"/>
  <unicode hex="007C"/>
  <outline>
    <contour>
      <point x="165" y="-136" type="line"/>
      <point x="163" y="-77"/>
      <point x="157" y="142"/>
      <point x="157" y="289" type="curve" smooth="yes"/>
      <point x="157" y="436"/>
      <point x="162" y="639"/>
      <point x="164" y="694" type="curve"/>
      <point x="126" y="693" type="line"/>
      <point x="127" y="639"/>
      <point x="127" y="433"/>
      <point x="127" y="288" type="curve" smooth="yes"/>
      <point x="127" y="142"/>
      <point x="126" y="-78"/>
      <point x="125" y="-134" type="curve"/>
    </contour>
  </outline>
</glyph>
<glyph name="braceright" format="2">
  <advance width="684"/>
  <unicode hex="007D"/>
  <outline>
    <contour>
      <point x="284" y="-129" type="curve" smooth="yes"/>
      <point x="372" y="-129"/>
      <point x="432" y="-89"/>
      <point x="432" y="8" type="curve" smooth="yes"/>
      <point x="432" y="55"/>
      <point x="400" y="141"/>
      <point x="400" y="190" type="curve" smooth="yes"/>
      <point x="400" y="246"/>
      <point x="452" y="272"/>
      <point x="525" y="286" type="curve"/>
      <point x="522" y="317" type="line"/>
      <point x="450" y="328"/>
      <point x="400" y="349"/>
      <point x="400" y="407" type="curve" smooth="yes"/>
      <point x="400" y="455"/>
      <point x="422" y="520"/>
      <point x="422" y="567" type="curve" smooth="yes"/>
      <point x="422" y="663"/>
      <point x="362" y="703"/>
      <point x="272" y="703" type="curve" smooth="yes"/>
      <point x="239" y="703"/>
      <point x="201" y="697"/>
      <point x="160" y="687" type="curve"/>
      <point x="165" y="666" type="line"/>
      <point x="205" y="673"/>
      <point x="241" y="678"/>
      <point x="273" y="678" type="curve" smooth="yes"/>
      <point x="346" y="678"/>
      <point x="389" y="654"/>
      <point x="389" y="574" type="curve" smooth="yes"/>
      <point x="389" y="532"/>
      <point x="368" y="441"/>
      <point x="368" y="402" type="curve" smooth="yes"/>
      <point x="368" y="349"/>
      <point x="422" y="311"/>
      <point x="484" y="300" type="curve"/>
      <point x="420" y="286"/>
      <point x="370" y="249"/>
      <point x="370" y="195" type="curve" smooth="yes"/>
      <point x="370" y="154"/>
      <point x="401" y="49"/>
      <point x="401" y="0" type="curve" smooth="yes"/>
      <point x="401" y="-77"/>
      <point x="359" y="-102"/>
      <point x="285" y="-102" type="curve" smooth="yes"/>
      <point x="255" y="-102"/>
      <point x="220" y="-97"/>
      <point x="182" y="-90" type="curve"/>
      <point x="175" y="-113" type="line"/>
      <point x="214" y="-123"/>
      <point x="251" y="-129"/>
    </contour>
  </outline>
</glyph>
<glyph name="asciitilde" format="2">
  <advance width="580"/>
  <unicode hex="007E"/>
  <outline>
    <contour>
      <point x="75" y="274" type="line"/>
      <point x="103" y="280"/>
      <point x="148" y="288"/>
      <point x="179" y="288" type="curve" smooth="yes"/>
      <point x="241" y="288"/>
      <point x="294" y="264"/>
      <point x="372" y="264" type="curve" smooth="yes"/>
      <point x="434" y="264"/>
      <point x="479" y="277"/>
      <point x="502" y="285" type="curve"/>
      <point x="501" y="319" type="line"/>
      <point x="469" y="310"/>
      <point x="423" y="298"/>
      <point x="369" y="298" type="curve" smooth="yes"/>
      <point x="292" y="298"/>
      <point x="244" y="323"/>
      <point x="176" y="323" type="curve" smooth="yes"/>
      <point x="148" y="323"/>
      <point x="101" y="313"/>
      <point x="74" y="305" type="curve"/>
    </contour>
  </outline>
</glyph>
<glyph name="exclamdown" format="2">
  <advance width="337"/>
  <unicode hex="00A1"/>
  <outline>
    <contour>
      <point x="142" y="-151" type="curve"/>
      <point x="194" y="-148" type="line"/>
      <point x="193" y="-102"/>
      <point x="188" y="44"/>
      <point x="186" y="134" type="curve" smooth="yes"/>
      <point x="184" y="211"/>
      <point x="183" y="313"/>
      <point x="182" y="341" type="curve"/>
      <point x="154" y="341" type="line"/>
      <point x="153" y="307"/>
      <point x="152" y="190"/>
      <point x="151" y="132" type="curve" smooth="yes"/>
      <point x="150" y="70"/>
      <point x="144" y="-98"/>
    </contour>
    <contour>
      <point x="149" y="456" type="line"/>
      <point x="186" y="458" type="line"/>
      <point x="189" y="555" type="line"/>
      <point x="144" y="551" type="line"/>
    </contour>
  </outline>
</glyph>
<glyph name="yen" format="2">
  <advance width="640"/>
  <unicode hex="00A5"/>
  <outline>
    <contour>
      <point x="298" y="0" type="line"/>
      <point x="337" y="1" type="line"/>
      <point x="332" y="255" type="line"/>
      <point x="364" y="322"/>
      <point x="401" y="396"/>
      <point x="437" y="475" type="curve" smooth="yes"/>
      <point x="469" y="545"/>
      <point x="504" y="619"/>
      <point x="540" y="697" type="curve"/>
      <point x="497" y="695" type="line"/>
      <point x="463" y="618"/>
      <point x="435" y="554"/>
      <point x="407" y="494" type="curve" smooth="yes"/>
      <point x="375" y="425"/>
      <point x="347" y="362"/>
      <point x="315" y="293" type="curve"/>
      <point x="287" y="357"/>
      <point x="260" y="422"/>
      <point x="233" y="486" type="curve" smooth="yes"/>
      <point x="202" y="559"/>
      <point x="174" y="632"/>
      <point x="143" y="704" type="curve"/>
      <point x="100" y="704" type="line"/>
      <point x="131" y="631"/>
      <point x="167" y="551"/>
      <point x="205" y="464" type="curve" smooth="yes"/>
      <point x="234" y="399"/>
      <point x="267" y="329"/>
      <point x="298" y="257" type="curve"/>
    </contour>
    <contour>
      <point x="123" y="134" type="line"/>
      <point x="178" y="137"/>
      <point x="269" y="141"/>
      <point x="318" y="141" type="curve" smooth="yes"/>
      <point x="368" y="141"/>
      <point x="447" y="139"/>
      <point x="493" y="138" type="curve"/>
      <point x="499" y="173" type="line"/>
      <point x="444" y="171"/>
      <point x="353" y="168"/>
      <point x="306" y="167" type="curve" smooth="yes"/>
      <point x="261" y="166"/>
      <point x="181" y="166"/>
      <point x="132" y="167" type="curve"/>
    </contour>
    <contour>
      <point x="123" y="241" type="line"/>
      <point x="178" y="244"/>
      <point x="269" y="248"/>
      <point x="318" y="248" type="curve" smooth="yes"/>
      <point x="368" y="248"/>
      <point x="447" y="246"/>
      <point x="493" y="245" type="curve"/>
      <point x="499" y="280" type="line"/>
      <point x="444" y="278"/>
      <point x="353" y="275"/>
      <point x="306" y="274" type="curve" smooth="yes"/>
      <point x="261" y="273"/>
      <point x="181" y="273"/>
      <point x="132" y="274" type="curve"/>
    </contour>
  </outline>
</glyph>
<glyph name="brokenbar" format="2">
  <advance width="289"/>
  <unicode hex="00A6"/>
  <outline>
    <contour>
      <point x="127" y="352" type="curve"/>
      <point x="157" y="352" type="line"/>
      <point x="158" y="489"/>
      <point x="162" y="646"/>
      <point x="164" y="694" type="curve"/>
      <point x="126" y="693" type="line"/>
      <point x="127" y="647"/>
      <point x="127" y="488"/>
    </contour>
    <contour>
      <point x="125" y="-134" type="curve"/>
      <point x="165" y="-136" type="line"/>
      <point x="163" y="-90"/>
      <point x="159" y="55"/>
      <point x="158" y="187" type="curve"/>
      <point x="127" y="187" type="line"/>
      <point x="127" y="56"/>
      <point x="126" y="-90"/>
    </contour>
  </outline>
</glyph>
<glyph name="section" format="2">
  <advance width="448"/>
  <unicode hex="00A7"/>
  <outline>
    <contour>
      <point x="229" y="702" type="curve" smooth="yes"/>
      <point x="135" y="702"/>
      <point x="60" y="645"/>
      <point x="60" y="550" type="curve" smooth="yes"/>
      <point x="60" y="455"/>
      <point x="123" y="424"/>
      <point x="192" y="404" type="curve" smooth="yes"/>
      <point x="271" y="381"/>
      <point x="356" y="361"/>
      <point x="356" y="290" type="curve" smooth="yes"/>
      <point x="356" y="208"/>
      <point x="249" y="198"/>
      <point x="217" y="192" type="curve"/>
      <point x="220" y="174" type="line"/>
      <point x="269" y="179"/>
      <point x="384" y="196"/>
      <point x="384" y="296" type="curve" smooth="yes"/>
      <point x="384" y="385"/>
      <point x="283" y="407"/>
      <point x="200" y="433" type="curve" smooth="yes"/>
      <point x="142" y="451"/>
      <point x="92" y="476"/>
      <point x="92" y="548" type="curve" smooth="yes"/>
      <point x="92" y="630"/>
      <point x="145" y="674"/>
      <point x="232" y="674" type="curve" smooth="yes"/>
      <point x="321" y="674"/>
      <point x="356" y="618"/>
      <point x="356" y="550" type="curve" smooth="yes"/>
      <point x="356" y="529"/>
      <point x="353" y="507"/>
      <point x="347" y="485" type="curve"/>
      <point x="379" y="485" type="line"/>
      <point x="385" y="509"/>
      <point x="388" y="532"/>
      <point x="388" y="554" type="curve" smooth="yes"/>
      <point x="388" y="640"/>
      <point x="341" y="702"/>
    </contour>
    <contour>
      <point x="219" y="-109" type="curve" smooth="yes"/>
      <point x="313" y="-109"/>
      <point x="388" y="-52"/>
      <point x="388" y="43" type="curve" smooth="yes"/>
      <point x="388" y="138"/>
      <point x="325" y="169"/>
      <point x="256" y="189" type="curve" smooth="yes"/>
      <point x="177" y="212"/>
      <point x="92" y="232"/>
      <point x="92" y="303" type="curve" smooth="yes"/>
      <point x="92" y="385"/>
      <point x="199" y="395"/>
      <point x="231" y="401" type="curve"/>
      <point x="228" y="419" type="line"/>
      <point x="179" y="414"/>
      <point x="64" y="397"/>
      <point x="64" y="297" type="curve" smooth="yes"/>
      <point x="64" y="208"/>
      <point x="165" y="186"/>
      <point x="248" y="160" type="curve" smooth="yes"/>
      <point x="306" y="142"/>
      <point x="356" y="117"/>
      <point x="356" y="45" type="curve" smooth="yes"/>
      <point x="356" y="-37"/>
      <point x="303" y="-81"/>
      <point x="216" y="-81" type="curve" smooth="yes"/>
      <point x="127" y="-81"/>
      <point x="92" y="-25"/>
      <point x="92" y="43" type="curve" smooth="yes"/>
      <point x="92" y="64"/>
      <point x="95" y="86"/>
      <point x="101" y="108" type="curve"/>
      <point x="69" y="108" type="line"/>
      <point x="63" y="84"/>
      <point x="60" y="61"/>
      <point x="60" y="39" type="curve" smooth="yes"/>
      <point x="60" y="-47"/>
      <point x="107" y="-109"/>
    </contour>
  </outline>
</glyph>
<glyph name="copyright" format="2">
  <advance width="807"/>
  <unicode hex="00A9"/>
  <outline>
    <contour>
      <point x="396" y="81" type="curve" smooth="yes"/>
      <point x="617" y="81"/>
      <point x="713" y="215"/>
      <point x="713" y="381" type="curve" smooth="yes"/>
      <point x="713" y="555"/>
      <point x="620" y="690"/>
      <point x="406" y="690" type="curve" smooth="yes"/>
      <point x="192" y="690"/>
      <point x="94" y="551"/>
      <point x="94" y="384" type="curve" smooth="yes"/>
      <point x="94" y="211"/>
      <point x="185" y="81"/>
    </contour>
    <contour>
      <point x="393" y="201" type="curve" smooth="yes"/>
      <point x="493" y="200"/>
      <point x="525" y="256"/>
      <point x="525" y="309" type="curve" smooth="yes"/>
      <point x="525" y="316"/>
      <point x="524" y="323"/>
      <point x="523" y="330" type="curve"/>
      <point x="490" y="330" type="line"/>
      <point x="491" y="322"/>
      <point x="492" y="314"/>
      <point x="492" y="306" type="curve" smooth="yes"/>
      <point x="492" y="269"/>
      <point x="475" y="232"/>
      <point x="396" y="232" type="curve" smooth="yes"/>
      <point x="351" y="232"/>
      <point x="325" y="251"/>
      <point x="310" y="278" type="curve" smooth="yes"/>
      <point x="291" y="312"/>
      <point x="289" y="360"/>
      <point x="289" y="398" type="curve" smooth="yes"/>
      <point x="289" y="427"/>
      <point x="291" y="461"/>
      <point x="303" y="490" type="curve" smooth="yes"/>
      <point x="317" y="523"/>
      <point x="344" y="550"/>
      <point x="396" y="550" type="curve" smooth="yes"/>
      <point x="474" y="550"/>
      <point x="492" y="501"/>
      <point x="492" y="447" type="curve" smooth="yes"/>
      <point x="492" y="434"/>
      <point x="491" y="421"/>
      <point x="489" y="408" type="curve"/>
      <point x="521" y="408" type="line"/>
      <point x="523" y="421"/>
      <point x="524" y="434"/>
      <point x="524" y="448" type="curve" smooth="yes"/>
      <point x="524" y="513"/>
      <point x="498" y="578"/>
      <point x="403" y="578" type="curve" smooth="yes"/>
      <point x="334" y="578"/>
      <point x="296" y="547"/>
      <point x="276" y="505" type="curve" smooth="yes"/>
      <point x="261" y="473"/>
      <point x="256" y="434"/>
      <point x="256" y="398" type="curve" smooth="yes"/>
      <point x="256" y="348"/>
      <point x="260" y="293"/>
      <point x="285" y="254" type="curve" smooth="yes"/>
      <point x="305" y="223"/>
      <point x="338" y="201"/>
    </contour>
    <contour>
      <point x="399" y="112" type="curve" smooth="yes"/>
      <point x="207" y="112"/>
      <point x="126" y="230"/>
      <point x="126" y="384" type="curve" smooth="yes"/>
      <point x="126" y="538"/>
      <point x="209" y="659"/>
      <point x="402" y="659" type="curve" smooth="yes"/>
      <point x="598" y="659"/>
      <point x="681" y="538"/>
      <point x="681" y="382" type="curve" smooth="yes"/>
      <point x="681" y="230"/>
      <point x="596" y="112"/>
    </contour>
  </outline>
</glyph>
<glyph name="ordfeminine" format="2">
  <advance width="440"/>
  <unicode hex="00AA"/>
  <outline>
    <contour>
      <point x="105" y="521" type="curve" smooth="yes"/>
      <point x="105" y="488"/>
      <point x="126" y="462"/>
      <point x="182" y="462" type="curve" smooth="yes"/>
      <point x="232" y="462"/>
      <point x="272" y="481"/>
      <point x="292" y="505" type="curve"/>
      <point x="293" y="491"/>
      <point x="299" y="473"/>
      <point x="308" y="464" type="curve"/>
      <point x="338" y="476" type="line"/>
      <point x="327" y="488"/>
      <point x="323" y="503"/>
      <point x="323" y="516" type="curve" smooth="yes"/>
      <point x="324" y="618" type="line" smooth="yes"/>
      <point x="325" y="674"/>
      <point x="301" y="703"/>
      <point x="225" y="703" type="curve" smooth="yes"/>
      <point x="148" y="703"/>
      <point x="115" y="666"/>
      <point x="114" y="626" type="curve"/>
      <point x="142" y="622" type="line"/>
      <point x="143" y="656"/>
      <point x="167" y="678"/>
      <point x="222" y="678" type="curve" smooth="yes"/>
      <point x="284" y="678"/>
      <point x="293" y="654"/>
      <point x="293" y="634" type="curve"/>
      <point x="293" y="608"/>
      <point x="246" y="602"/>
      <point x="197" y="591" type="curve" smooth="yes"/>
      <point x="150" y="580"/>
      <point x="105" y="568"/>
    </contour>
    <contour>
      <point x="135" y="521" type="curve" smooth="yes"/>
      <point x="135" y="557"/>
      <point x="168" y="559"/>
      <point x="207" y="568" type="curve" smooth="yes"/>
      <point x="239" y="575"/>
      <point x="271" y="581"/>
      <point x="292" y="596" type="curve"/>
      <point x="292" y="564" type="line" smooth="yes"/>
      <point x="292" y="517"/>
      <point x="250" y="487"/>
      <point x="180" y="487" type="curve" smooth="yes"/>
      <point x="147" y="487"/>
      <point x="135" y="501"/>
    </contour>
  </outline>
</glyph>
<glyph name="macron" format="2">
  <advance width="306"/>
  <unicode hex="00AF"/>
  <anchor x="153" y="555" name="_top"/>
  <outline>
    <contour>
      <point x="30" y="660" type="line"/>
      <point x="274" y="663" type="line"/>
      <point x="272" y="684" type="line"/>
      <point x="30" y="687" type="line"/>
    </contour>
  </outline>
</glyph>
<glyph name="twosuperior" format="2">
  <advance width="382"/>
  <unicode hex="00B2"/>
  <outline>
    <contour>
      <point x="120" y="573" type="line"/>
      <point x="201" y="607"/>
      <point x="276" y="652"/>
      <point x="276" y="727" type="curve" smooth="yes"/>
      <point x="276" y="764"/>
      <point x="256" y="805"/>
      <point x="192" y="805" type="curve" smooth="yes"/>
      <point x="131" y="805"/>
      <point x="104" y="769"/>
      <point x="104" y="724" type="curve" smooth="yes"/>
      <point x="104" y="716"/>
      <point x="105" y="709"/>
      <point x="106" y="701" type="curve"/>
      <point x="129" y="702" type="line"/>
      <point x="128" y="709"/>
      <point x="128" y="715"/>
      <point x="128" y="722" type="curve" smooth="yes"/>
      <point x="128" y="757"/>
      <point x="141" y="785"/>
      <point x="190" y="785" type="curve" smooth="yes"/>
      <point x="240" y="785"/>
      <point x="250" y="754"/>
      <point x="250" y="721" type="curve" smooth="yes"/>
      <point x="250" y="655"/>
      <point x="174" y="620"/>
      <point x="98" y="584" type="curve"/>
    </contour>
    <contour>
      <point x="97" y="563" type="line"/>
      <point x="113" y="564"/>
      <point x="164" y="565"/>
      <point x="189" y="565" type="curve" smooth="yes"/>
      <point x="204" y="565"/>
      <point x="264" y="565"/>
      <point x="280" y="565" type="curve"/>
      <point x="279" y="587" type="line"/>
      <point x="265" y="586"/>
      <point x="208" y="585"/>
      <point x="194" y="585" type="curve" smooth="yes"/>
      <point x="168" y="585"/>
      <point x="134" y="584"/>
      <point x="98" y="584" type="curve"/>
    </contour>
  </outline>
</glyph>
<glyph name="threesuperior" format="2">
  <advance width="382"/>
  <unicode hex="00B3"/>
  <outline>
    <contour>
      <point x="193" y="559" type="curve" smooth="yes"/>
      <point x="259" y="559"/>
      <point x="282" y="589"/>
      <point x="282" y="623" type="curve" smooth="yes"/>
      <point x="282" y="642"/>
      <point x="270" y="664"/>
      <point x="241" y="669" type="curve"/>
      <point x="267" y="678"/>
      <point x="286" y="704"/>
      <point x="286" y="738" type="curve" smooth="yes"/>
      <point x="286" y="771"/>
      <point x="264" y="806"/>
      <point x="200" y="806" type="curve" smooth="yes"/>
      <point x="135" y="806"/>
      <point x="112" y="770"/>
      <point x="112" y="734" type="curve" smooth="yes"/>
      <point x="112" y="728"/>
      <point x="113" y="721"/>
      <point x="114" y="715" type="curve"/>
      <point x="136" y="716" type="line"/>
      <point x="135" y="723"/>
      <point x="134" y="730"/>
      <point x="134" y="736" type="curve" smooth="yes"/>
      <point x="134" y="764"/>
      <point x="150" y="785"/>
      <point x="197" y="785" type="curve" smooth="yes"/>
      <point x="242" y="785"/>
      <point x="263" y="769"/>
      <point x="263" y="735" type="curve" smooth="yes"/>
      <point x="263" y="686"/>
      <point x="231" y="678"/>
      <point x="183" y="678" type="curve" smooth="yes"/>
      <point x="177" y="678"/>
      <point x="152" y="678"/>
      <point x="148" y="678" type="curve"/>
      <point x="148" y="657" type="line"/>
      <point x="154" y="657"/>
      <point x="182" y="657"/>
      <point x="185" y="657" type="curve" smooth="yes"/>
      <point x="232" y="657"/>
      <point x="258" y="651"/>
      <point x="258" y="622" type="curve" smooth="yes"/>
      <point x="258" y="594"/>
      <point x="247" y="578"/>
      <point x="194" y="578" type="curve" smooth="yes"/>
      <point x="142" y="578"/>
      <point x="133" y="597"/>
      <point x="131" y="616" type="curve"/>
      <point x="108" y="615" type="line"/>
      <point x="112" y="587"/>
      <point x="130" y="559"/>
    </contour>
  </outline>
</glyph>
<glyph name="acute" format="2">
  <advance width="189"/>
  <unicode hex="00B4"/>
  <anchor x="81" y="555" name="_top"/>
  <outline>
    <contour>
      <point x="27" y="625" type="line"/>
      <point x="50" y="635"/>
      <point x="77" y="647"/>
      <point x="101" y="659" type="curve" smooth="yes"/>
      <point x="128" y="671"/>
      <point x="155" y="682"/>
      <point x="180" y="693" type="curve"/>
      <point x="161" y="722" type="line"/>
      <point x="140" y="709"/>
      <point x="114" y="695"/>
      <point x="89" y="682" type="curve" smooth="yes"/>
      <point x="63" y="668"/>
      <point x="36" y="654"/>
      <point x="15" y="644" type="curve"/>
    </contour>
  </outline>
</glyph>
<glyph name="periodcentered" format="2">
  <advance width="330"/>
  <unicode hex="00B7"/>
  <outline>
    <contour>
      <point x="187" y="254" type="line"/>
      <point x="185" y="354" type="line"/>
      <point x="142" y="351" type="line"/>
      <point x="144" y="256" type="line"/>
    </contour>
  </outline>
</glyph>
<glyph name="cedilla" format="2">
  <advance width="302"/>
  <unicode hex="00B8"/>
  <anchor x="152" y="0" name="_bottom"/>
  <outline>
    <contour>
      <point x="114" y="-152" type="curve" smooth="yes"/>
      <point x="196" y="-152"/>
      <point x="256" y="-138"/>
      <point x="256" y="-98" type="curve" smooth="yes"/>
      <point x="256" y="-68"/>
      <point x="211" y="-45"/>
      <point x="116" y="-45" type="curve"/>
      <point x="107" y="-67" type="line"/>
      <point x="172" y="-68"/>
      <point x="216" y="-77"/>
      <point x="216" y="-99" type="curve" smooth="yes"/>
      <point x="216" y="-122"/>
      <point x="172" y="-129"/>
      <point x="121" y="-129" type="curve" smooth="yes"/>
      <point x="99" y="-129"/>
      <point x="76" y="-128"/>
      <point x="53" y="-126" type="curve"/>
      <point x="48" y="-150" type="line"/>
      <point x="65" y="-151"/>
      <point x="95" y="-152"/>
    </contour>
    <contour>
      <point x="157" y="0" type="line"/>
      <point x="128" y="0" type="line"/>
      <point x="107" y="-67" type="line"/>
      <point x="135" y="-67" type="line"/>
    </contour>
  </outline>
</glyph>
<glyph name="onesuperior" format="2">
  <advance width="382"/>
  <unicode hex="00B9"/>
  <outline>
    <contour>
      <point x="223" y="567" type="curve"/>
      <point x="254" y="567" type="line"/>
      <point x="251" y="638"/>
      <point x="251" y="728"/>
      <point x="255" y="801" type="curve"/>
      <point x="239" y="801" type="line"/>
      <point x="225" y="773" type="line"/>
      <point x="225" y="717"/>
      <point x="225" y="619"/>
    </contour>
    <contour>
      <point x="109" y="742" type="line"/>
      <point x="153" y="743"/>
      <point x="211" y="748"/>
      <point x="229" y="754" type="curve"/>
      <point x="239" y="801" type="line"/>
      <point x="216" y="776"/>
      <point x="157" y="770"/>
      <point x="108" y="764" type="curve"/>
    </contour>
  </outline>
</glyph>
<glyph name="ordmasculine" format="2">
  <advance width="440"/>
  <unicode hex="00BA"/>
  <outline>
    <contour>
      <point x="216" y="469" type="curve" smooth="yes"/>
      <point x="292" y="469"/>
      <point x="332" y="514"/>
      <point x="332" y="590" type="curve" smooth="yes"/>
      <point x="332" y="662"/>
      <point x="298" y="703"/>
      <point x="223" y="703" type="curve" smooth="yes"/>
      <point x="147" y="703"/>
      <point x="108" y="656"/>
      <point x="108" y="588" type="curve" smooth="yes"/>
      <point x="108" y="515"/>
      <point x="144" y="469"/>
    </contour>
    <contour>
      <point x="218" y="499" type="curve" smooth="yes"/>
      <point x="161" y="499"/>
      <point x="140" y="530"/>
      <point x="140" y="589" type="curve" smooth="yes"/>
      <point x="140" y="647"/>
      <point x="164" y="676"/>
      <point x="222" y="676" type="curve" smooth="yes"/>
      <point x="278" y="676"/>
      <point x="300" y="648"/>
      <point x="300" y="593" type="curve" smooth="yes"/>
      <point x="300" y="546"/>
      <point x="288" y="499"/>
    </contour>
  </outline>
</glyph>
<glyph name="onequarter" format="2">
  <advance width="890"/>
  <unicode hex="00BC"/>
  <outline>
    <contour>
      <point x="167" y="0" type="curve"/>
      <point x="204" y="1" type="line"/>
      <point x="290" y="116"/>
      <point x="375" y="230"/>
      <point x="461" y="345" type="curve" smooth="yes"/>
      <point x="550" y="462"/>
      <point x="639" y="578"/>
      <point x="728" y="695" type="curve"/>
      <point x="689" y="696" type="line"/>
      <point x="601" y="575"/>
      <point x="513" y="455"/>
      <point x="425" y="334" type="curve" smooth="yes"/>
      <point x="339" y="223"/>
      <point x="253" y="111"/>
    </contour>
    <contour>
      <point x="205" y="462" type="curve"/>
      <point x="236" y="462" type="line"/>
      <point x="233" y="533"/>
      <point x="233" y="623"/>
      <point x="237" y="696" type="curve"/>
      <point x="221" y="696" type="line"/>
      <point x="198" y="671"/>
      <point x="139" y="665"/>
      <point x="90" y="659" type="curve"/>
      <point x="91" y="637" type="line"/>
      <point x="132" y="638"/>
      <point x="186" y="642"/>
      <point x="207" y="648" type="curve"/>
      <point x="207" y="591"/>
      <point x="207" y="508"/>
    </contour>
    <contour>
      <point x="696" y="-1" type="line"/>
      <point x="721" y="0" type="line"/>
      <point x="720" y="59" type="line"/>
      <point x="774" y="59" type="line"/>
      <point x="774" y="81" type="line"/>
      <point x="720" y="80" type="line"/>
      <point x="720" y="127" type="line" smooth="yes"/>
      <point x="720" y="169"/>
      <point x="721" y="214"/>
      <point x="721" y="235" type="curve"/>
      <point x="695" y="236" type="line"/>
      <point x="671" y="209"/>
      <point x="648" y="181"/>
      <point x="624" y="154" type="curve" smooth="yes"/>
      <point x="559" y="79" type="line"/>
      <point x="564" y="58" type="line"/>
      <point x="697" y="59" type="line"/>
    </contour>
    <contour>
      <point x="585" y="79" type="line"/>
      <point x="696" y="205" type="line"/>
      <point x="697" y="79" type="line"/>
    </contour>
  </outline>
</glyph>
<glyph name="onehalf" format="2">
  <advance width="890"/>
  <unicode hex="00BD"/>
  <outline>
    <contour>
      <point x="167" y="0" type="curve"/>
      <point x="204" y="1" type="line"/>
      <point x="290" y="116"/>
      <point x="375" y="230"/>
      <point x="461" y="345" type="curve" smooth="yes"/>
      <point x="550" y="462"/>
      <point x="639" y="578"/>
      <point x="728" y="695" type="curve"/>
      <point x="689" y="696" type="line"/>
      <point x="601" y="575"/>
      <point x="513" y="455"/>
      <point x="425" y="334" type="curve" smooth="yes"/>
      <point x="339" y="223"/>
      <point x="253" y="111"/>
    </contour>
    <contour>
      <point x="586" y="-2" type="line"/>
      <point x="602" y="-1"/>
      <point x="653" y="0"/>
      <point x="678" y="0" type="curve" smooth="yes"/>
      <point x="769" y="0" type="line"/>
      <point x="768" y="22" type="line"/>
      <point x="759" y="21"/>
      <point x="716" y="20"/>
      <point x="635" y="19" type="curve"/>
      <point x="705" y="52"/>
      <point x="765" y="95"/>
      <point x="765" y="162" type="curve" smooth="yes"/>
      <point x="765" y="199"/>
      <point x="745" y="240"/>
      <point x="681" y="240" type="curve" smooth="yes"/>
      <point x="620" y="240"/>
      <point x="593" y="204"/>
      <point x="593" y="159" type="curve" smooth="yes"/>
      <point x="593" y="151"/>
      <point x="594" y="144"/>
      <point x="595" y="136" type="curve"/>
      <point x="618" y="137" type="line"/>
      <point x="617" y="144"/>
      <point x="617" y="150"/>
      <point x="617" y="157" type="curve" smooth="yes"/>
      <point x="617" y="192"/>
      <point x="630" y="220"/>
      <point x="679" y="220" type="curve" smooth="yes"/>
      <point x="729" y="220"/>
      <point x="739" y="189"/>
      <point x="739" y="156" type="curve" smooth="yes"/>
      <point x="739" y="90"/>
      <point x="663" y="55"/>
      <point x="587" y="19" type="curve"/>
    </contour>
    <contour>
      <point x="205" y="462" type="curve"/>
      <point x="236" y="462" type="line"/>
      <point x="233" y="533"/>
      <point x="233" y="623"/>
      <point x="237" y="696" type="curve"/>
      <point x="221" y="696" type="line"/>
      <point x="198" y="671"/>
      <point x="139" y="665"/>
      <point x="90" y="659" type="curve"/>
      <point x="91" y="637" type="line"/>
      <point x="132" y="638"/>
      <point x="186" y="642"/>
      <point x="207" y="648" type="curve"/>
      <point x="207" y="591"/>
      <point x="207" y="508"/>
    </contour>
  </outline>
</glyph>
<glyph name="threequarters" format="2">
  <advance width="890"/>
  <unicode hex="00BE"/>
  <outline>
    <contour>
      <point x="167" y="0" type="curve"/>
      <point x="204" y="1" type="line"/>
      <point x="290" y="116"/>
      <point x="375" y="230"/>
      <point x="461" y="345" type="curve" smooth="yes"/>
      <point x="550" y="462"/>
      <point x="639" y="578"/>
      <point x="728" y="695" type="curve"/>
      <point x="689" y="696" type="line"/>
      <point x="601" y="575"/>
      <point x="513" y="455"/>
      <point x="425" y="334" type="curve" smooth="yes"/>
      <point x="339" y="223"/>
      <point x="253" y="111"/>
    </contour>
    <contour>
      <point x="203" y="450" type="curve" smooth="yes"/>
      <point x="269" y="450"/>
      <point x="292" y="480"/>
      <point x="292" y="514" type="curve" smooth="yes"/>
      <point x="292" y="533"/>
      <point x="280" y="555"/>
      <point x="251" y="560" type="curve"/>
      <point x="277" y="569"/>
      <point x="296" y="595"/>
      <point x="296" y="629" type="curve" smooth="yes"/>
      <point x="296" y="662"/>
      <point x="274" y="697"/>
      <point x="210" y="697" type="curve" smooth="yes"/>
      <point x="145" y="697"/>
      <point x="122" y="661"/>
      <point x="122" y="625" type="curve" smooth="yes"/>
      <point x="122" y="619"/>
      <point x="123" y="612"/>
      <point x="124" y="606" type="curve"/>
      <point x="146" y="607" type="line"/>
      <point x="145" y="614"/>
      <point x="144" y="621"/>
      <point x="144" y="627" type="curve" smooth="yes"/>
      <point x="144" y="655"/>
      <point x="160" y="676"/>
      <point x="207" y="676" type="curve" smooth="yes"/>
      <point x="252" y="676"/>
      <point x="273" y="660"/>
      <point x="273" y="626" type="curve" smooth="yes"/>
      <point x="273" y="577"/>
      <point x="241" y="569"/>
      <point x="193" y="569" type="curve" smooth="yes"/>
      <point x="187" y="569"/>
      <point x="162" y="569"/>
      <point x="158" y="569" type="curve"/>
      <point x="158" y="548" type="line"/>
      <point x="164" y="548"/>
      <point x="192" y="548"/>
      <point x="195" y="548" type="curve" smooth="yes"/>
      <point x="242" y="548"/>
      <point x="268" y="542"/>
      <point x="268" y="513" type="curve" smooth="yes"/>
      <point x="268" y="485"/>
      <point x="257" y="469"/>
      <point x="204" y="469" type="curve" smooth="yes"/>
      <point x="152" y="469"/>
      <point x="143" y="488"/>
      <point x="141" y="507" type="curve"/>
      <point x="118" y="506" type="line"/>
      <point x="122" y="478"/>
      <point x="140" y="450"/>
    </contour>
    <contour>
      <point x="696" y="-1" type="line"/>
      <point x="721" y="0" type="line"/>
      <point x="720" y="59" type="line"/>
      <point x="774" y="59" type="line"/>
      <point x="774" y="81" type="line"/>
      <point x="720" y="80" type="line"/>
      <point x="720" y="127" type="line" smooth="yes"/>
      <point x="720" y="169"/>
      <point x="721" y="214"/>
      <point x="721" y="235" type="curve"/>
      <point x="695" y="236" type="line"/>
      <point x="671" y="209"/>
      <point x="648" y="181"/>
      <point x="624" y="154" type="curve" smooth="yes"/>
      <point x="559" y="79" type="line"/>
      <point x="564" y="58" type="line"/>
      <point x="697" y="59" type="line"/>
    </contour>
    <contour>
      <point x="585" y="79" type="line"/>
      <point x="696" y="205" type="line"/>
      <point x="697" y="79" type="line"/>
    </contour>
  </outline>
</glyph>
<glyph name="questiondown" format="2">
  <advance width="696"/>
  <unicode hex="00BF"/>
  <outline>
    <contour>
      <point x="336" y="338" type="line"/>
      <point x="338" y="323"/>
      <point x="340" y="309"/>
      <point x="340" y="295" type="curve" smooth="yes"/>
      <point x="340" y="247"/>
      <point x="304" y="218"/>
      <point x="263" y="186" type="curve" smooth="yes"/>
      <point x="214" y="145"/>
      <point x="158" y="99"/>
      <point x="158" y="3" type="curve" smooth="yes"/>
      <point x="158" y="-73"/>
      <point x="198" y="-161"/>
      <point x="344" y="-161" type="curve" smooth="yes"/>
      <point x="478" y="-161"/>
      <point x="538" y="-78"/>
      <point x="538" y="21" type="curve" smooth="yes"/>
      <point x="538" y="44"/>
      <point x="535" y="67"/>
      <point x="529" y="91" type="curve"/>
      <point x="496" y="92" type="line"/>
      <point x="502" y="69"/>
      <point x="505" y="47"/>
      <point x="505" y="24" type="curve" smooth="yes"/>
      <point x="505" y="-58"/>
      <point x="460" y="-130"/>
      <point x="346" y="-130" type="curve" smooth="yes"/>
      <point x="221" y="-130"/>
      <point x="194" y="-62"/>
      <point x="194" y="6" type="curve" smooth="yes"/>
      <point x="194" y="86"/>
      <point x="237" y="127"/>
      <point x="281" y="162" type="curve" smooth="yes"/>
      <point x="327" y="199"/>
      <point x="374" y="229"/>
      <point x="374" y="290" type="curve" smooth="yes"/>
      <point x="374" y="304"/>
      <point x="373" y="320"/>
      <point x="371" y="337" type="curve"/>
    </contour>
    <contour>
      <point x="372" y="558" type="line"/>
      <point x="327" y="554" type="line"/>
      <point x="331" y="464" type="line"/>
      <point x="368" y="462" type="line"/>
    </contour>
  </outline>
</glyph>
<glyph name="AE" format="2">
  <advance width="806"/>
  <unicode hex="00C6"/>
  <anchor x="454" y="693" name="top"/>
  <outline>
    <contour>
      <point x="50" y="7" type="curve"/>
      <point x="86" y="6" type="line"/>
      <point x="111" y="64"/>
      <point x="137" y="122"/>
      <point x="162" y="180" type="curve"/>
      <point x="374" y="184" type="line"/>
      <point x="371" y="-5" type="line"/>
      <point x="710" y="0" type="line"/>
      <point x="710" y="26" type="line"/>
      <point x="413" y="31" type="line"/>
      <point x="410" y="216" type="line"/>
      <point x="703" y="220" type="line"/>
      <point x="705" y="249" type="line"/>
      <point x="410" y="252" type="line"/>
      <point x="409" y="350" type="line" smooth="yes"/>
      <point x="409" y="442"/>
      <point x="411" y="599"/>
      <point x="412" y="661" type="curve"/>
      <point x="700" y="662" type="line"/>
      <point x="700" y="693" type="line"/>
      <point x="358" y="700" type="line"/>
      <point x="326" y="628"/>
      <point x="266" y="490"/>
      <point x="202" y="347" type="curve" smooth="yes"/>
      <point x="144" y="218"/>
      <point x="87" y="88"/>
    </contour>
    <contour>
      <point x="374" y="213" type="line"/>
      <point x="178" y="217" type="line"/>
      <point x="197" y="261"/>
      <point x="217" y="304"/>
      <point x="236" y="348" type="curve" smooth="yes"/>
      <point x="286" y="462"/>
      <point x="339" y="581"/>
      <point x="370" y="650" type="curve"/>
      <point x="372" y="586"/>
      <point x="375" y="468"/>
      <point x="375" y="352" type="curve" smooth="yes"/>
    </contour>
  </outline>
</glyph>
<glyph name="multiply" format="2">
  <advance width="580"/>
  <unicode hex="00D7"/>
  <outline>
    <contour>
      <point x="463" y="149" type="line"/>
      <point x="445" y="165"/>
      <point x="335" y="268"/>
      <point x="307" y="295" type="curve" smooth="yes"/>
      <point x="276" y="324"/>
      <point x="162" y="449"/>
      <point x="145" y="467" type="curve"/>
      <point x="120" y="444" type="line"/>
      <point x="141" y="425"/>
      <point x="257" y="304"/>
      <point x="288" y="274" type="curve" smooth="yes"/>
      <point x="318" y="244"/>
      <point x="422" y="142"/>
      <point x="434" y="128" type="curve"/>
    </contour>
    <contour>
      <point x="151" y="120" type="line"/>
      <point x="171" y="144"/>
      <point x="269" y="254"/>
      <point x="305" y="290" type="curve" smooth="yes"/>
      <point x="341" y="326"/>
      <point x="444" y="429"/>
      <point x="461" y="443" type="curve"/>
      <point x="432" y="468" type="line"/>
      <point x="414" y="449"/>
      <point x="317" y="344"/>
      <point x="284" y="310" type="curve" smooth="yes"/>
      <point x="251" y="275"/>
      <point x="141" y="165"/>
      <point x="121" y="146" type="curve"/>
    </contour>
  </outline>
</glyph>
<glyph name="Oslash" format="2">
  <advance width="585"/>
  <unicode hex="00D8"/>
  <anchor x="293" y="0" name="bottom"/>
  <anchor x="293" y="693" name="top"/>
  <outline>
    <contour>
      <point x="288" y="-2" type="curve" smooth="yes"/>
      <point x="378" y="-2"/>
      <point x="434" y="40"/>
      <point x="468" y="103" type="curve" smooth="yes"/>
      <point x="506" y="173"/>
      <point x="517" y="267"/>
      <point x="517" y="359" type="curve" smooth="yes"/>
      <point x="517" y="420"/>
      <point x="512" y="484"/>
      <point x="497" y="540" type="curve" smooth="yes"/>
      <point x="470" y="635"/>
      <point x="414" y="707"/>
      <point x="302" y="707" type="curve" smooth="yes"/>
      <point x="190" y="707"/>
      <point x="128" y="640"/>
      <point x="96" y="549" type="curve" smooth="yes"/>
      <point x="76" y="492"/>
      <point x="68" y="425"/>
      <point x="68" y="360" type="curve" smooth="yes"/>
      <point x="68" y="272"/>
      <point x="75" y="185"/>
      <point x="103" y="119" type="curve" smooth="yes"/>
      <point x="133" y="46"/>
      <point x="189" y="-2"/>
    </contour>
    <contour>
      <point x="289" y="31" type="curve" smooth="yes"/>
      <point x="204" y="31"/>
      <point x="157" y="71"/>
      <point x="132" y="134" type="curve" smooth="yes"/>
      <point x="110" y="192"/>
      <point x="105" y="267"/>
      <point x="105" y="348" type="curve" smooth="yes"/>
      <point x="105" y="414"/>
      <point x="111" y="480"/>
      <point x="130" y="536" type="curve" smooth="yes"/>
      <point x="156" y="617"/>
      <point x="206" y="676"/>
      <point x="298" y="676" type="curve" smooth="yes"/>
      <point x="396" y="676"/>
      <point x="442" y="617"/>
      <point x="463" y="530" type="curve" smooth="yes"/>
      <point x="474" y="481"/>
      <point x="478" y="424"/>
      <point x="478" y="363" type="curve" smooth="yes"/>
      <point x="478" y="276"/>
      <point x="471" y="187"/>
      <point x="440" y="124" type="curve" smooth="yes"/>
      <point x="413" y="68"/>
      <point x="366" y="31"/>
    </contour>
    <contour>
      <point x="159" y="-45" type="line"/>
      <point x="159" y="-45"/>
      <point x="259" y="192"/>
      <point x="306" y="314" type="curve" smooth="yes"/>
      <point x="356" y="436"/>
      <point x="471" y="717"/>
      <point x="471" y="717" type="curve"/>
      <point x="440" y="732" type="line"/>
      <point x="440" y="732"/>
      <point x="354" y="510"/>
      <point x="283" y="331" type="curve" smooth="yes"/>
      <point x="213" y="152"/>
      <point x="128" y="-32"/>
      <point x="128" y="-32" type="curve"/>
    </contour>
  </outline>
</glyph>
<glyph name="Thorn" format="2">
  <advance width="539"/>
  <unicode hex="00DE"/>
  <outline>
    <contour>
      <point x="138" y="140" type="line"/>
      <point x="353" y="140"/>
      <point x="476" y="189"/>
      <point x="476" y="367" type="curve" smooth="yes"/>
      <point x="476" y="530"/>
      <point x="398" y="583"/>
      <point x="228" y="583" type="curve" smooth="yes"/>
      <point x="194" y="583"/>
      <point x="156" y="581"/>
      <point x="114" y="578" type="curve"/>
      <point x="128" y="540" type="line"/>
      <point x="173" y="546"/>
      <point x="213" y="549"/>
      <point x="248" y="549" type="curve" smooth="yes"/>
      <point x="376" y="549"/>
      <point x="440" y="491"/>
      <point x="440" y="364" type="curve" smooth="yes"/>
      <point x="440" y="218"/>
      <point x="340" y="166"/>
      <point x="134" y="174" type="curve"/>
    </contour>
    <contour>
      <point x="107" y="-2" type="curve"/>
      <point x="149" y="1" type="line"/>
      <point x="147" y="101"/>
      <point x="145" y="265"/>
      <point x="145" y="350" type="curve"/>
      <point x="145" y="385"/>
      <point x="147" y="662"/>
      <point x="148" y="698" type="curve"/>
      <point x="104" y="708" type="line"/>
      <point x="107" y="628"/>
      <point x="111" y="477"/>
      <point x="111" y="352" type="curve"/>
      <point x="111" y="227"/>
      <point x="109" y="77"/>
    </contour>
  </outline>
</glyph>
<glyph name="germandbls" format="2">
  <advance width="607"/>
  <unicode hex="00DF"/>
  <outline>
    <contour>
      <point x="97" y="-1" type="curve"/>
      <point x="137" y="0" type="line"/>
      <point x="135" y="40"/>
      <point x="134" y="159"/>
      <point x="134" y="271" type="curve" smooth="yes"/>
      <point x="134" y="388"/>
      <point x="136" y="419"/>
      <point x="138" y="490" type="curve" smooth="yes"/>
      <point x="141" y="607"/>
      <point x="180" y="669"/>
      <point x="317" y="669" type="curve" smooth="yes"/>
      <point x="396" y="669"/>
      <point x="468" y="639"/>
      <point x="468" y="551" type="curve" smooth="yes"/>
      <point x="468" y="430"/>
      <point x="291" y="418"/>
      <point x="291" y="335" type="curve" smooth="yes"/>
      <point x="291" y="292"/>
      <point x="339" y="271"/>
      <point x="390" y="248" type="curve" smooth="yes"/>
      <point x="448" y="222"/>
      <point x="512" y="193"/>
      <point x="512" y="127" type="curve" smooth="yes"/>
      <point x="512" y="40"/>
      <point x="419" y="8"/>
      <point x="307" y="29" type="curve"/>
      <point x="305" y="0" type="line"/>
      <point x="438" y="-25"/>
      <point x="547" y="27"/>
      <point x="547" y="129" type="curve" smooth="yes"/>
      <point x="547" y="210"/>
      <point x="469" y="247"/>
      <point x="405" y="276" type="curve" smooth="yes"/>
      <point x="362" y="296"/>
      <point x="325" y="313"/>
      <point x="325" y="339" type="curve" smooth="yes"/>
      <point x="325" y="389"/>
      <point x="500" y="417"/>
      <point x="500" y="555" type="curve" smooth="yes"/>
      <point x="500" y="653"/>
      <point x="419" y="700"/>
      <point x="316" y="700" type="curve" smooth="yes"/>
      <point x="154" y="700"/>
      <point x="106" y="609"/>
      <point x="104" y="492" type="curve" smooth="yes"/>
      <point x="103" y="452"/>
      <point x="102" y="348"/>
      <point x="102" y="270" type="curve" smooth="yes"/>
      <point x="102" y="157"/>
      <point x="98" y="39"/>
    </contour>
  </outline>
</glyph>
<glyph name="ae" format="2">
  <advance width="803"/>
  <unicode hex="00E6"/>
  <anchor x="399" y="515" name="top"/>
  <outline>
    <contour>
      <point x="199" y="-10" type="curve" smooth="yes"/>
      <point x="309" y="-10"/>
      <point x="362" y="57"/>
      <point x="386" y="129" type="curve"/>
      <point x="410" y="39"/>
      <point x="466" y="-10"/>
      <point x="556" y="-10" type="curve" smooth="yes"/>
      <point x="681" y="-10"/>
      <point x="739" y="55"/>
      <point x="739" y="148" type="curve" smooth="yes"/>
      <point x="739" y="154"/>
      <point x="738" y="161"/>
      <point x="738" y="167" type="curve"/>
      <point x="703" y="167" type="line"/>
      <point x="704" y="159"/>
      <point x="705" y="150"/>
      <point x="705" y="143" type="curve" smooth="yes"/>
      <point x="705" y="68"/>
      <point x="657" y="20"/>
      <point x="560" y="20" type="curve" smooth="yes"/>
      <point x="492" y="20"/>
      <point x="451" y="54"/>
      <point x="428" y="107" type="curve" smooth="yes"/>
      <point x="413" y="141"/>
      <point x="405" y="187"/>
      <point x="403" y="253" type="curve"/>
      <point x="458" y="254"/>
      <point x="595" y="256"/>
      <point x="730" y="256" type="curve"/>
      <point x="735" y="283"/>
      <point x="738" y="310"/>
      <point x="738" y="336" type="curve" smooth="yes"/>
      <point x="738" y="442"/>
      <point x="690" y="525"/>
      <point x="571" y="525" type="curve" smooth="yes"/>
      <point x="492" y="525"/>
      <point x="433" y="490"/>
      <point x="398" y="419" type="curve"/>
      <point x="384" y="473"/>
      <point x="346" y="525"/>
      <point x="247" y="525" type="curve" smooth="yes"/>
      <point x="146" y="525"/>
      <point x="80" y="456"/>
      <point x="80" y="367" type="curve" smooth="yes"/>
      <point x="80" y="350"/>
      <point x="83" y="332"/>
      <point x="88" y="313" type="curve"/>
      <point x="119" y="316" type="line"/>
      <point x="115" y="333"/>
      <point x="113" y="349"/>
      <point x="113" y="365" type="curve" smooth="yes"/>
      <point x="113" y="439"/>
      <point x="159" y="495"/>
      <point x="247" y="495" type="curve" smooth="yes"/>
      <point x="336" y="495"/>
      <point x="370" y="449"/>
      <point x="370" y="366" type="curve" smooth="yes"/>
      <point x="370" y="325"/>
      <point x="346" y="314"/>
      <point x="220" y="275" type="curve" smooth="yes"/>
      <point x="142" y="251"/>
      <point x="64" y="216"/>
      <point x="64" y="119" type="curve" smooth="yes"/>
      <point x="64" y="42"/>
      <point x="115" y="-10"/>
    </contour>
    <contour>
      <point x="203" y="22" type="curve" smooth="yes"/>
      <point x="121" y="22"/>
      <point x="100" y="71"/>
      <point x="100" y="125" type="curve" smooth="yes"/>
      <point x="100" y="198"/>
      <point x="162" y="225"/>
      <point x="229" y="246" type="curve" smooth="yes"/>
      <point x="284" y="262"/>
      <point x="342" y="275"/>
      <point x="370" y="305" type="curve"/>
      <point x="370" y="281"/>
      <point x="370" y="256"/>
      <point x="370" y="232" type="curve" smooth="yes"/>
      <point x="370" y="120"/>
      <point x="315" y="22"/>
    </contour>
    <contour>
      <point x="404" y="284" type="line"/>
      <point x="409" y="363"/>
      <point x="412" y="390"/>
      <point x="441" y="434" type="curve" smooth="yes"/>
      <point x="466" y="473"/>
      <point x="506" y="498"/>
      <point x="565" y="498" type="curve" smooth="yes"/>
      <point x="666" y="498"/>
      <point x="706" y="433"/>
      <point x="706" y="347" type="curve" smooth="yes"/>
      <point x="706" y="327"/>
      <point x="704" y="307"/>
      <point x="701" y="286" type="curve"/>
    </contour>
  </outline>
</glyph>
<glyph name="eth" format="2">
  <advance width="513"/>
  <unicode hex="00F0"/>
  <outline>
    <contour>
      <point x="248" y="-10" type="curve" smooth="yes"/>
      <point x="376" y="-10"/>
      <point x="440" y="64"/>
      <point x="440" y="292" type="curve" smooth="yes"/>
      <point x="440" y="577"/>
      <point x="335" y="671"/>
      <point x="194" y="714" type="curve"/>
      <point x="180" y="688" type="line"/>
      <point x="329" y="649"/>
      <point x="404" y="527"/>
      <point x="404" y="363" type="curve" smooth="yes"/>
      <point x="404" y="314"/>
      <point x="404" y="280"/>
      <point x="404" y="226" type="curve" smooth="yes"/>
      <point x="404" y="95"/>
      <point x="360" y="19"/>
      <point x="249" y="19" type="curve" smooth="yes"/>
      <point x="161" y="19"/>
      <point x="103" y="71"/>
      <point x="103" y="204" type="curve" smooth="yes"/>
      <point x="103" y="349"/>
      <point x="167" y="405"/>
      <point x="259" y="405" type="curve" smooth="yes"/>
      <point x="345" y="405"/>
      <point x="414" y="344"/>
      <point x="404" y="226" type="curve"/>
      <point x="420" y="291" type="line"/>
      <point x="402" y="390"/>
      <point x="344" y="434"/>
      <point x="258" y="434" type="curve" smooth="yes"/>
      <point x="150" y="434"/>
      <point x="70" y="368"/>
      <point x="70" y="204" type="curve" smooth="yes"/>
      <point x="70" y="85"/>
      <point x="110" y="-10"/>
    </contour>
    <contour>
      <point x="235" y="514" type="line"/>
      <point x="250" y="525"/>
      <point x="309" y="564"/>
      <point x="342" y="587" type="curve" smooth="yes"/>
      <point x="366" y="604"/>
      <point x="437" y="647"/>
      <point x="458" y="661" type="curve"/>
      <point x="442" y="682" type="line"/>
      <point x="423" y="668"/>
      <point x="360" y="627"/>
      <point x="334" y="608" type="curve" smooth="yes"/>
      <point x="298" y="582"/>
      <point x="237" y="548"/>
      <point x="220" y="537" type="curve"/>
    </contour>
  </outline>
</glyph>
<glyph name="Hbar" format="2">
  <advance width="643"/>
  <unicode hex="0126"/>
  <anchor x="321" y="459" name="_center"/>
  <outline>
    <contour>
      <point x="63" y="445" type="line"/>
      <point x="63" y="445"/>
      <point x="227" y="446"/>
      <point x="318" y="446" type="curve"/>
      <point x="378" y="446"/>
      <point x="582" y="445"/>
      <point x="582" y="445" type="curve"/>
      <point x="583" y="472" type="line"/>
      <point x="583" y="472"/>
      <point x="391" y="469"/>
      <point x="325" y="470" type="curve"/>
      <point x="230" y="471"/>
      <point x="63" y="472"/>
      <point x="63" y="472" type="curve"/>
    </contour>
    <component base="H"/>
  </outline>
</glyph>
<glyph name="idotless" format="2">
  <advance width="275"/>
  <unicode hex="0131"/>
  <anchor x="135" y="0" name="bottom"/>
  <anchor x="138" y="515" name="top"/>
  <outline>
    <contour>
      <point x="154" y="0" type="line"/>
      <point x="154" y="0"/>
      <point x="152" y="122"/>
      <point x="152" y="265" type="curve"/>
      <point x="152" y="409"/>
      <point x="156" y="516"/>
      <point x="156" y="516" type="curve"/>
      <point x="119" y="516" type="line"/>
      <point x="119" y="516"/>
      <point x="120" y="412"/>
      <point x="120" y="266" type="curve"/>
      <point x="120" y="121"/>
      <point x="116" y="2"/>
      <point x="116" y="2" type="curve"/>
    </contour>
  </outline>
</glyph>
<glyph name="kgreenlandic" format="2">
  <advance width="482"/>
  <unicode hex="0138"/>
  <outline>
    <contour>
      <point x="411" y="0" type="curve"/>
      <point x="455" y="3" type="line"/>
      <point x="344" y="103"/>
      <point x="261" y="180"/>
      <point x="171" y="271" type="curve"/>
      <point x="267" y="367"/>
      <point x="342" y="438"/>
      <point x="431" y="519" type="curve"/>
      <point x="390" y="521" type="line"/>
      <point x="313" y="445"/>
      <point x="247" y="383"/>
      <point x="128" y="269" type="curve"/>
      <point x="228" y="177"/>
      <point x="320" y="88"/>
    </contour>
    <contour>
      <point x="108" y="0" type="curve"/>
      <point x="143" y="0" type="line"/>
      <point x="143" y="61"/>
      <point x="143" y="180"/>
      <point x="143" y="284" type="curve"/>
      <point x="143" y="389"/>
      <point x="144" y="480"/>
      <point x="145" y="519" type="curve"/>
      <point x="108" y="516" type="line"/>
      <point x="109" y="479"/>
      <point x="111" y="392"/>
      <point x="111" y="285" type="curve"/>
      <point x="111" y="179"/>
      <point x="109" y="60"/>
    </contour>
  </outline>
</glyph>
<glyph name="ldot" format="2">
  <advance width="283"/>
  <unicode hex="0140"/>
  <outline>
    <contour>
      <point x="121" y="0" type="curve"/>
      <point x="156" y="6" type="line"/>
      <point x="156" y="6"/>
      <point x="156" y="141"/>
      <point x="156" y="284" type="curve"/>
      <point x="156" y="428"/>
      <point x="158" y="694"/>
      <point x="158" y="694" type="curve"/>
      <point x="121" y="694" type="line"/>
      <point x="121" y="694"/>
      <point x="124" y="431"/>
      <point x="124" y="285" type="curve"/>
      <point x="124" y="140"/>
      <point x="121" y="0"/>
    </contour>
    <contour>
      <point x="306" y="319" type="line"/>
      <point x="304" y="390" type="line"/>
      <point x="262" y="387" type="line"/>
      <point x="267" y="321" type="line"/>
    </contour>
  </outline>
</glyph>
<glyph name="Eng" format="2">
  <advance width="645"/>
  <unicode hex="014A"/>
  <outline>
    <contour>
      <point x="374" y="-156" type="line"/>
      <point x="466" y="-155"/>
      <point x="529" y="-116"/>
      <point x="533" y="-10" type="curve" smooth="yes"/>
      <point x="535" y="45"/>
      <point x="533" y="248"/>
      <point x="534" y="391" type="curve" smooth="yes"/>
      <point x="535" y="500"/>
      <point x="535" y="607"/>
      <point x="538" y="715" type="curve"/>
      <point x="495" y="715" type="line"/>
      <point x="498" y="607"/>
      <point x="498" y="501"/>
      <point x="499" y="392" type="curve" smooth="yes"/>
      <point x="500" y="296"/>
      <point x="500" y="166"/>
      <point x="500" y="79" type="curve"/>
      <point x="449" y="167"/>
      <point x="402" y="258"/>
      <point x="351" y="348" type="curve" smooth="yes"/>
      <point x="282" y="470"/>
      <point x="220" y="591"/>
      <point x="158" y="704" type="curve"/>
      <point x="107" y="704" type="line"/>
      <point x="110" y="636"/>
      <point x="111" y="494"/>
      <point x="112" y="351" type="curve" smooth="yes"/>
      <point x="112" y="213"/>
      <point x="111" y="75"/>
      <point x="110" y="1" type="curve"/>
      <point x="150" y="0" type="line"/>
      <point x="149" y="53"/>
      <point x="147" y="210"/>
      <point x="146" y="360" type="curve" smooth="yes"/>
      <point x="145" y="475"/>
      <point x="146" y="585"/>
      <point x="146" y="641" type="curve"/>
      <point x="198" y="551"/>
      <point x="255" y="444"/>
      <point x="317" y="336" type="curve" smooth="yes"/>
      <point x="383" y="221"/>
      <point x="444" y="104"/>
      <point x="499" y="2" type="curve"/>
      <point x="499" y="-88"/>
      <point x="468" y="-128"/>
      <point x="373" y="-127" type="curve"/>
    </contour>
  </outline>
</glyph>
<glyph name="eng" format="2">
  <advance width="562"/>
  <unicode hex="014B"/>
  <outline>
    <contour>
      <point x="301" y="-156" type="line"/>
      <point x="393" y="-155"/>
      <point x="459" y="-113"/>
      <point x="461" y="-8" type="curve" smooth="yes"/>
      <point x="462" y="35"/>
      <point x="461" y="115"/>
      <point x="461" y="260" type="curve" smooth="yes"/>
      <point x="461" y="334" type="line" smooth="yes"/>
      <point x="461" y="438"/>
      <point x="425" y="520"/>
      <point x="315" y="520" type="curve" smooth="yes"/>
      <point x="244" y="520"/>
      <point x="179" y="473"/>
      <point x="146" y="381" type="curve"/>
      <point x="147" y="447"/>
      <point x="148" y="497"/>
      <point x="149" y="519" type="curve"/>
      <point x="109" y="516" type="line"/>
      <point x="111" y="484"/>
      <point x="112" y="381"/>
      <point x="113" y="245" type="curve" smooth="yes"/>
      <point x="114" y="112"/>
      <point x="111" y="51"/>
      <point x="109" y="0" type="curve"/>
      <point x="147" y="0" type="line"/>
      <point x="145" y="50"/>
      <point x="147" y="113"/>
      <point x="147" y="246" type="curve" smooth="yes"/>
      <point x="147" y="387"/>
      <point x="218" y="489"/>
      <point x="313" y="489" type="curve" smooth="yes"/>
      <point x="408" y="489"/>
      <point x="429" y="415"/>
      <point x="429" y="337" type="curve" smooth="yes"/>
      <point x="429" y="260" type="line" smooth="yes"/>
      <point x="429" y="67"/>
      <point x="429" y="35"/>
      <point x="426" y="-12" type="curve" smooth="yes"/>
      <point x="422" y="-98"/>
      <point x="378" y="-128"/>
      <point x="300" y="-127" type="curve"/>
    </contour>
  </outline>
</glyph>
<glyph name="OE" format="2">
  <advance width="838"/>
  <unicode hex="0152"/>
  <outline>
    <contour>
      <point x="288" y="-2" type="curve" smooth="yes"/>
      <point x="355" y="-2"/>
      <point x="393" y="0"/>
      <point x="441" y="0" type="curve" smooth="yes"/>
      <point x="744" y="0" type="line"/>
      <point x="744" y="26" type="line"/>
      <point x="447" y="31" type="line"/>
      <point x="444" y="216" type="line"/>
      <point x="737" y="220" type="line"/>
      <point x="739" y="249" type="line"/>
      <point x="444" y="252" type="line"/>
      <point x="443" y="350" type="line" smooth="yes"/>
      <point x="443" y="442"/>
      <point x="445" y="599"/>
      <point x="446" y="661" type="curve"/>
      <point x="734" y="662" type="line"/>
      <point x="734" y="693" type="line"/>
      <point x="455" y="693" type="line" smooth="yes"/>
      <point x="393" y="693"/>
      <point x="364" y="707"/>
      <point x="302" y="707" type="curve" smooth="yes"/>
      <point x="134" y="707"/>
      <point x="68" y="553"/>
      <point x="68" y="360" type="curve" smooth="yes"/>
      <point x="68" y="151"/>
      <point x="110" y="-2"/>
    </contour>
    <contour>
      <point x="304" y="26" type="curve" smooth="yes"/>
      <point x="135" y="26"/>
      <point x="105" y="153"/>
      <point x="105" y="348" type="curve" smooth="yes"/>
      <point x="105" y="528"/>
      <point x="152" y="676"/>
      <point x="309" y="676" type="curve" smooth="yes"/>
      <point x="339" y="676"/>
      <point x="370" y="670"/>
      <point x="403" y="660" type="curve"/>
      <point x="405" y="602"/>
      <point x="409" y="477"/>
      <point x="409" y="352" type="curve" smooth="yes"/>
      <point x="409" y="227"/>
      <point x="407" y="97"/>
      <point x="406" y="36" type="curve"/>
      <point x="369" y="29"/>
      <point x="335" y="26"/>
    </contour>
  </outline>
</glyph>
<glyph name="oe" format="2">
  <advance width="846"/>
  <unicode hex="0153"/>
  <outline>
    <contour>
      <point x="257" y="-10" type="curve" smooth="yes"/>
      <point x="339" y="-10"/>
      <point x="390" y="31"/>
      <point x="419" y="95" type="curve" smooth="yes"/>
      <point x="440" y="142"/>
      <point x="449" y="200"/>
      <point x="449" y="262" type="curve" smooth="yes"/>
      <point x="449" y="312"/>
      <point x="444" y="360"/>
      <point x="431" y="400" type="curve" smooth="yes"/>
      <point x="408" y="475"/>
      <point x="360" y="526"/>
      <point x="273" y="526" type="curve" smooth="yes"/>
      <point x="194" y="526"/>
      <point x="142" y="489"/>
      <point x="112" y="432" type="curve" smooth="yes"/>
      <point x="87" y="386"/>
      <point x="77" y="327"/>
      <point x="77" y="263" type="curve" smooth="yes"/>
      <point x="77" y="198"/>
      <point x="86" y="135"/>
      <point x="109" y="87" type="curve" smooth="yes"/>
      <point x="137" y="29"/>
      <point x="183" y="-10"/>
    </contour>
    <contour>
      <point x="260" y="20" type="curve" smooth="yes"/>
      <point x="198" y="20"/>
      <point x="158" y="55"/>
      <point x="136" y="106" type="curve" smooth="yes"/>
      <point x="118" y="145"/>
      <point x="111" y="194"/>
      <point x="111" y="243" type="curve" smooth="yes"/>
      <point x="111" y="308"/>
      <point x="118" y="369"/>
      <point x="140" y="415" type="curve" smooth="yes"/>
      <point x="164" y="465"/>
      <point x="204" y="497"/>
      <point x="271" y="497" type="curve" smooth="yes"/>
      <point x="343" y="497"/>
      <point x="384" y="447"/>
      <point x="403" y="381" type="curve" smooth="yes"/>
      <point x="413" y="345"/>
      <point x="416" y="305"/>
      <point x="415" y="266" type="curve" smooth="yes"/>
      <point x="413" y="211"/>
      <point x="406" y="157"/>
      <point x="389" y="114" type="curve" smooth="yes"/>
      <point x="367" y="58"/>
      <point x="328" y="20"/>
    </contour>
    <contour>
      <point x="602" y="-10" type="curve" smooth="yes"/>
      <point x="727" y="-10"/>
      <point x="785" y="55"/>
      <point x="785" y="148" type="curve" smooth="yes"/>
      <point x="785" y="154"/>
      <point x="784" y="161"/>
      <point x="784" y="167" type="curve"/>
      <point x="749" y="167" type="line"/>
      <point x="750" y="159"/>
      <point x="751" y="150"/>
      <point x="751" y="143" type="curve" smooth="yes"/>
      <point x="751" y="68"/>
      <point x="703" y="20"/>
      <point x="606" y="20" type="curve" smooth="yes"/>
      <point x="538" y="20"/>
      <point x="497" y="54"/>
      <point x="474" y="107" type="curve" smooth="yes"/>
      <point x="455" y="151"/>
      <point x="448" y="209"/>
      <point x="448" y="270" type="curve" smooth="yes"/>
      <point x="448" y="332"/>
      <point x="459" y="391"/>
      <point x="487" y="434" type="curve" smooth="yes"/>
      <point x="512" y="473"/>
      <point x="552" y="498"/>
      <point x="611" y="498" type="curve" smooth="yes"/>
      <point x="712" y="498"/>
      <point x="752" y="433"/>
      <point x="752" y="347" type="curve" smooth="yes"/>
      <point x="752" y="326"/>
      <point x="750" y="305"/>
      <point x="746" y="283" type="curve"/>
      <point x="776" y="256" type="line"/>
      <point x="781" y="283"/>
      <point x="784" y="310"/>
      <point x="784" y="336" type="curve" smooth="yes"/>
      <point x="784" y="442"/>
      <point x="736" y="525"/>
      <point x="617" y="525" type="curve" smooth="yes"/>
      <point x="544" y="525"/>
      <point x="493" y="495"/>
      <point x="461" y="448" type="curve" smooth="yes"/>
      <point x="429" y="402"/>
      <point x="415" y="339"/>
      <point x="415" y="271" type="curve" smooth="yes"/>
      <point x="415" y="201"/>
      <point x="424" y="136"/>
      <point x="447" y="86" type="curve" smooth="yes"/>
      <point x="475" y="27"/>
      <point x="523" y="-10"/>
    </contour>
    <contour>
      <point x="431" y="252" type="line"/>
      <point x="467" y="254"/>
      <point x="623" y="256"/>
      <point x="776" y="256" type="curve"/>
      <point x="778" y="286" type="line"/>
      <point x="431" y="284" type="line"/>
    </contour>
  </outline>
</glyph>
<glyph name="Schwa" format="2">
  <advance width="564"/>
  <unicode hex="018F"/>
  <outline>
    <contour>
      <point x="265" y="-8" type="curve" smooth="yes"/>
      <point x="372" y="-8"/>
      <point x="434" y="52"/>
      <point x="466" y="139" type="curve" smooth="yes"/>
      <point x="488" y="197"/>
      <point x="496" y="268"/>
      <point x="496" y="341" type="curve" smooth="yes"/>
      <point x="496" y="426"/>
      <point x="489" y="508"/>
      <point x="464" y="573" type="curve" smooth="yes"/>
      <point x="434" y="651"/>
      <point x="378" y="703"/>
      <point x="277" y="703" type="curve" smooth="yes"/>
      <point x="136" y="703"/>
      <point x="80" y="627"/>
      <point x="80" y="532" type="curve" smooth="yes"/>
      <point x="80" y="520"/>
      <point x="81" y="507"/>
      <point x="83" y="494" type="curve"/>
      <point x="117" y="494" type="line"/>
      <point x="115" y="507"/>
      <point x="114" y="519"/>
      <point x="114" y="532" type="curve" smooth="yes"/>
      <point x="114" y="610"/>
      <point x="154" y="670"/>
      <point x="278" y="670" type="curve" smooth="yes"/>
      <point x="358" y="670"/>
      <point x="404" y="628"/>
      <point x="430" y="563" type="curve" smooth="yes"/>
      <point x="452" y="507"/>
      <point x="459" y="433"/>
      <point x="459" y="356" type="curve" smooth="yes"/>
      <point x="459" y="287"/>
      <point x="452" y="219"/>
      <point x="434" y="161" type="curve" smooth="yes"/>
      <point x="408" y="80"/>
      <point x="358" y="23"/>
      <point x="270" y="23" type="curve" smooth="yes"/>
      <point x="150" y="23"/>
      <point x="106" y="104"/>
      <point x="106" y="230" type="curve" smooth="yes"/>
      <point x="106" y="265"/>
      <point x="109" y="303"/>
      <point x="115" y="343" type="curve"/>
      <point x="80" y="343" type="line"/>
      <point x="73" y="301"/>
      <point x="69" y="261"/>
      <point x="69" y="225" type="curve" smooth="yes"/>
      <point x="69" y="86"/>
      <point x="124" y="-8"/>
    </contour>
    <contour>
      <point x="86" y="316" type="line"/>
      <point x="481" y="318" type="line"/>
      <point x="480" y="350" type="line"/>
      <point x="398" y="345"/>
      <point x="80" y="343"/>
      <point x="80" y="343" type="curve"/>
    </contour>
  </outline>
</glyph>
<glyph name="florin" format="2">
  <advance width="640"/>
  <unicode hex="0192"/>
  <outline>
    <contour>
      <point x="138" y="-140" type="curve" smooth="yes"/>
      <point x="237" y="-140"/>
      <point x="291" y="-96"/>
      <point x="303" y="22" type="curve" smooth="yes"/>
      <point x="306" y="51"/>
      <point x="324" y="205"/>
      <point x="329" y="274" type="curve" smooth="yes"/>
      <point x="337" y="382"/>
      <point x="346" y="483"/>
      <point x="353" y="545" type="curve" smooth="yes"/>
      <point x="364" y="646"/>
      <point x="400" y="671"/>
      <point x="482" y="671" type="curve" smooth="yes"/>
      <point x="512" y="671"/>
      <point x="548" y="667"/>
      <point x="589" y="660" type="curve"/>
      <point x="600" y="689" type="line"/>
      <point x="559" y="698"/>
      <point x="521" y="703"/>
      <point x="488" y="703" type="curve" smooth="yes"/>
      <point x="389" y="703"/>
      <point x="327" y="660"/>
      <point x="319" y="542" type="curve" smooth="yes"/>
      <point x="311" y="428"/>
      <point x="307" y="404"/>
      <point x="296" y="271" type="curve" smooth="yes"/>
      <point x="284" y="128"/>
      <point x="274" y="68"/>
      <point x="270" y="21" type="curve" smooth="yes"/>
      <point x="262" y="-75"/>
      <point x="224" y="-110"/>
      <point x="140" y="-110" type="curve" smooth="yes"/>
      <point x="110" y="-110"/>
      <point x="75" y="-105"/>
      <point x="34" y="-97" type="curve"/>
      <point x="26" y="-127" type="line"/>
      <point x="69" y="-135"/>
      <point x="106" y="-140"/>
    </contour>
    <contour>
      <point x="189" y="518" type="line"/>
      <point x="211" y="519"/>
      <point x="321" y="521"/>
      <point x="355" y="521" type="curve" smooth="yes"/>
      <point x="363" y="521"/>
      <point x="524" y="521"/>
      <point x="537" y="521" type="curve"/>
      <point x="545" y="550" type="line"/>
      <point x="523" y="549"/>
      <point x="395" y="549"/>
      <point x="362" y="549" type="curve" smooth="yes"/>
      <point x="326" y="549"/>
      <point x="216" y="550"/>
      <point x="197" y="550" type="curve"/>
    </contour>
  </outline>
</glyph>
<glyph name="Nhookleft" format="2">
  <advance width="645"/>
  <unicode hex="019D"/>
  <outline>
    <contour>
      <point x="-15" y="-127" type="curve"/>
      <point x="-14" y="-156" type="line"/>
      <point x="78" y="-155"/>
      <point x="140" y="-116"/>
      <point x="144" y="-10" type="curve" smooth="yes"/>
      <point x="146" y="45"/>
      <point x="146" y="217"/>
      <point x="146" y="360" type="curve" smooth="yes"/>
      <point x="145" y="475"/>
      <point x="146" y="585"/>
      <point x="146" y="641" type="curve"/>
      <point x="178" y="586"/>
      <point x="240" y="470"/>
      <point x="308" y="345" type="curve" smooth="yes"/>
      <point x="375" y="222"/>
      <point x="440" y="91"/>
      <point x="489" y="-1" type="curve"/>
      <point x="536" y="3" type="line"/>
      <point x="534" y="87"/>
      <point x="534" y="243"/>
      <point x="534" y="391" type="curve" smooth="yes"/>
      <point x="534" y="526"/>
      <point x="536" y="655"/>
      <point x="538" y="715" type="curve"/>
      <point x="495" y="715" type="line"/>
      <point x="496" y="669"/>
      <point x="498" y="533"/>
      <point x="499" y="392" type="curve" smooth="yes"/>
      <point x="500" y="265"/>
      <point x="499" y="134"/>
      <point x="499" y="59" type="curve"/>
      <point x="474" y="105"/>
      <point x="406" y="235"/>
      <point x="333" y="369" type="curve" smooth="yes"/>
      <point x="258" y="507"/>
      <point x="187" y="648"/>
      <point x="158" y="704" type="curve"/>
      <point x="107" y="704" type="line"/>
      <point x="110" y="636"/>
      <point x="111" y="494"/>
      <point x="112" y="351" type="curve" smooth="yes"/>
      <point x="112" y="207"/>
      <point x="109" y="29"/>
      <point x="108" y="-12" type="curve" smooth="yes"/>
      <point x="105" y="-98"/>
      <point x="63" y="-128"/>
    </contour>
  </outline>
</glyph>
<glyph name="ohorn" format="2">
  <advance width="546"/>
  <unicode hex="01A1"/>
  <anchor x="276" y="0" name="bottom"/>
  <anchor x="273" y="256" name="center"/>
  <anchor x="321" y="1" name="ogonek"/>
  <anchor x="275" y="515" name="top"/>
  <anchor x="336" y="515" name="topright"/>
  <outline>
    <contour>
      <point x="267" y="-10" type="curve" smooth="yes"/>
      <point x="349" y="-10"/>
      <point x="400" y="31"/>
      <point x="429" y="95" type="curve" smooth="yes"/>
      <point x="450" y="142"/>
      <point x="459" y="200"/>
      <point x="459" y="262" type="curve" smooth="yes"/>
      <point x="459" y="312"/>
      <point x="454" y="360"/>
      <point x="441" y="400" type="curve" smooth="yes"/>
      <point x="418" y="475"/>
      <point x="370" y="526"/>
      <point x="283" y="526" type="curve" smooth="yes"/>
      <point x="204" y="526"/>
      <point x="152" y="489"/>
      <point x="122" y="432" type="curve" smooth="yes"/>
      <point x="97" y="386"/>
      <point x="87" y="327"/>
      <point x="87" y="263" type="curve" smooth="yes"/>
      <point x="87" y="198"/>
      <point x="96" y="135"/>
      <point x="119" y="87" type="curve" smooth="yes"/>
      <point x="147" y="29"/>
      <point x="193" y="-10"/>
    </contour>
    <contour>
      <point x="270" y="20" type="curve" smooth="yes"/>
      <point x="208" y="20"/>
      <point x="168" y="55"/>
      <point x="146" y="106" type="curve" smooth="yes"/>
      <point x="128" y="145"/>
      <point x="121" y="194"/>
      <point x="121" y="243" type="curve" smooth="yes"/>
      <point x="121" y="308"/>
      <point x="128" y="369"/>
      <point x="150" y="415" type="curve" smooth="yes"/>
      <point x="174" y="465"/>
      <point x="214" y="497"/>
      <point x="281" y="497" type="curve" smooth="yes"/>
      <point x="353" y="497"/>
      <point x="394" y="447"/>
      <point x="413" y="381" type="curve" smooth="yes"/>
      <point x="423" y="345"/>
      <point x="426" y="305"/>
      <point x="425" y="266" type="curve" smooth="yes"/>
      <point x="423" y="211"/>
      <point x="416" y="157"/>
      <point x="399" y="114" type="curve" smooth="yes"/>
      <point x="377" y="58"/>
      <point x="338" y="20"/>
    </contour>
    <contour>
      <point x="399" y="433" type="line"/>
      <point x="471" y="446"/>
      <point x="510" y="482"/>
      <point x="515" y="540" type="curve"/>
      <point x="515" y="559"/>
      <point x="514" y="595"/>
      <point x="514" y="616" type="curve"/>
      <point x="467" y="619" type="line"/>
      <point x="470" y="545" type="line"/>
      <point x="495" y="544" type="line"/>
      <point x="495" y="489"/>
      <point x="444" y="459"/>
      <point x="395" y="452" type="curve"/>
    </contour>
  </outline>
</glyph>
<glyph name="uhorn" format="2">
  <advance width="541"/>
  <unicode hex="01B0"/>
  <anchor x="267" y="0" name="bottom"/>
  <anchor x="449" y="5" name="ogonek"/>
  <anchor x="277" y="515" name="top"/>
  <anchor x="360" y="515" name="topright"/>
  <outline>
    <contour>
      <point x="225" y="-10" type="curve" smooth="yes"/>
      <point x="360" y="-10"/>
      <point x="433" y="130"/>
      <point x="433" y="285" type="curve"/>
      <point x="407" y="268" type="line"/>
      <point x="407" y="127"/>
      <point x="324" y="20"/>
      <point x="229" y="20" type="curve" smooth="yes"/>
      <point x="147" y="20"/>
      <point x="124" y="89"/>
      <point x="124" y="214" type="curve" smooth="yes"/>
      <point x="124" y="255"/>
      <point x="124" y="301"/>
      <point x="127" y="353" type="curve" smooth="yes"/>
      <point x="130" y="415"/>
      <point x="134" y="446"/>
      <point x="140" y="524" type="curve"/>
      <point x="102" y="519" type="line"/>
      <point x="97" y="451"/>
      <point x="95" y="429"/>
      <point x="93" y="373" type="curve" smooth="yes"/>
      <point x="91" y="319"/>
      <point x="91" y="271"/>
      <point x="91" y="229" type="curve" smooth="yes"/>
      <point x="91" y="68"/>
      <point x="119" y="-10"/>
    </contour>
    <contour>
      <point x="412" y="0" type="line"/>
      <point x="444" y="0" type="line"/>
      <point x="444" y="90"/>
      <point x="438" y="171"/>
      <point x="438" y="260" type="curve" smooth="yes"/>
      <point x="438" y="384"/>
      <point x="441" y="405"/>
      <point x="442" y="523" type="curve"/>
      <point x="404" y="526" type="line"/>
      <point x="406" y="411"/>
      <point x="407" y="383"/>
      <point x="407" y="268" type="curve" smooth="yes"/>
      <point x="407" y="229"/>
      <point x="407" y="181"/>
      <point x="408" y="160" type="curve"/>
    </contour>
    <contour>
      <point x="423" y="433" type="line"/>
      <point x="495" y="446"/>
      <point x="534" y="482"/>
      <point x="539" y="540" type="curve"/>
      <point x="539" y="559"/>
      <point x="538" y="595"/>
      <point x="538" y="616" type="curve"/>
      <point x="491" y="619" type="line"/>
      <point x="494" y="545" type="line"/>
      <point x="519" y="544" type="line"/>
      <point x="519" y="489"/>
      <point x="468" y="459"/>
      <point x="419" y="452" type="curve"/>
    </contour>
  </outline>
</glyph>
<glyph name="LJ" format="2">
  <advance width="1015"/>
  <unicode hex="01C7"/>
  <outline>
    <contour>
      <point x="729" y="-10" type="curve"/>
      <point x="898" y="-10"/>
      <point x="909" y="147"/>
      <point x="909" y="258" type="curve" smooth="yes"/>
      <point x="909" y="328"/>
      <point x="909" y="384"/>
      <point x="909" y="452" type="curve"/>
      <point x="909" y="542"/>
      <point x="909" y="607"/>
      <point x="911" y="700" type="curve"/>
      <point x="868" y="698" type="line"/>
      <point x="872" y="611"/>
      <point x="874" y="514"/>
      <point x="874" y="446" type="curve"/>
      <point x="874" y="421"/>
      <point x="874" y="270"/>
      <point x="874" y="243" type="curve" smooth="yes"/>
      <point x="874" y="142"/>
      <point x="856" y="21"/>
      <point x="734" y="21" type="curve"/>
      <point x="622" y="21"/>
      <point x="593" y="103"/>
      <point x="593" y="206" type="curve" smooth="yes"/>
      <point x="593" y="235"/>
      <point x="595" y="266"/>
      <point x="599" y="298" type="curve"/>
      <point x="563" y="299" type="line"/>
      <point x="560" y="267"/>
      <point x="558" y="235"/>
      <point x="558" y="205" type="curve" smooth="yes"/>
      <point x="558" y="86"/>
      <point x="590" y="-10"/>
    </contour>
    <contour>
      <point x="107" y="-5" type="line"/>
      <point x="446" y="0" type="line"/>
      <point x="446" y="28" type="line"/>
      <point x="142" y="31" type="line"/>
    </contour>
    <contour>
      <point x="107" y="-5" type="curve"/>
      <point x="149" y="1" type="line"/>
      <point x="147" y="101"/>
      <point x="145" y="265"/>
      <point x="145" y="350" type="curve"/>
      <point x="145" y="435"/>
      <point x="147" y="602"/>
      <point x="148" y="704" type="curve"/>
      <point x="104" y="700" type="line"/>
      <point x="107" y="624"/>
      <point x="111" y="477"/>
      <point x="111" y="352" type="curve"/>
      <point x="111" y="227"/>
      <point x="109" y="75"/>
    </contour>
  </outline>
</glyph>
<glyph name="jdotless" format="2">
  <advance width="263"/>
  <unicode hex="0237"/>
  <anchor x="136" y="515" name="top"/>
  <outline>
    <contour>
      <point x="-10" y="-156" type="line"/>
      <point x="82" y="-155"/>
      <point x="144" y="-116"/>
      <point x="148" y="-10" type="curve" smooth="yes"/>
      <point x="150" y="45"/>
      <point x="150" y="122"/>
      <point x="150" y="265" type="curve"/>
      <point x="150" y="409"/>
      <point x="154" y="516"/>
      <point x="154" y="516" type="curve"/>
      <point x="117" y="516" type="line"/>
      <point x="117" y="516"/>
      <point x="118" y="412"/>
      <point x="118" y="266" type="curve"/>
      <point x="118" y="122"/>
      <point x="115" y="29"/>
      <point x="114" y="-12" type="curve" smooth="yes"/>
      <point x="111" y="-98"/>
      <point x="67" y="-128"/>
      <point x="-11" y="-127" type="curve"/>
    </contour>
  </outline>
</glyph>
<glyph name="nhookleft" format="2">
  <advance width="562"/>
  <unicode hex="0272"/>
  <outline>
    <contour>
      <point x="464" y="-1" type="line"/>
      <point x="464" y="50"/>
      <point x="461" y="94"/>
      <point x="461" y="177" type="curve" smooth="yes"/>
      <point x="461" y="250"/>
      <point x="461" y="286"/>
      <point x="461" y="334" type="curve" smooth="yes"/>
      <point x="461" y="438"/>
      <point x="425" y="520"/>
      <point x="315" y="520" type="curve" smooth="yes"/>
      <point x="213" y="520"/>
      <point x="123" y="422"/>
      <point x="123" y="233" type="curve"/>
      <point x="147" y="246" type="line"/>
      <point x="147" y="387"/>
      <point x="218" y="489"/>
      <point x="313" y="489" type="curve" smooth="yes"/>
      <point x="408" y="489"/>
      <point x="429" y="415"/>
      <point x="429" y="337" type="curve" smooth="yes"/>
      <point x="429" y="292"/>
      <point x="429" y="228"/>
      <point x="429" y="176" type="curve" smooth="yes"/>
      <point x="429" y="96"/>
      <point x="426" y="46"/>
      <point x="423" y="0" type="curve"/>
    </contour>
    <contour>
      <point x="-13" y="-156" type="line"/>
      <point x="79" y="-155"/>
      <point x="141" y="-116"/>
      <point x="145" y="-10" type="curve" smooth="yes"/>
      <point x="147" y="45"/>
      <point x="147" y="103"/>
      <point x="147" y="246" type="curve"/>
      <point x="147" y="387"/>
      <point x="147" y="483"/>
      <point x="149" y="519" type="curve"/>
      <point x="109" y="516" type="line"/>
      <point x="111" y="484"/>
      <point x="113" y="381"/>
      <point x="113" y="245" type="curve"/>
      <point x="113" y="101"/>
      <point x="110" y="29"/>
      <point x="109" y="-12" type="curve" smooth="yes"/>
      <point x="106" y="-98"/>
      <point x="64" y="-128"/>
      <point x="-14" y="-127" type="curve"/>
    </contour>
  </outline>
</glyph>
<glyph name="primemod" format="2">
  <advance width="436"/>
  <unicode hex="02B9"/>
  <outline>
    <contour>
      <point x="168" y="533" type="line"/>
      <point x="182" y="551"/>
      <point x="222" y="607"/>
      <point x="243" y="630" type="curve"/>
      <point x="259" y="649"/>
      <point x="286" y="681"/>
      <point x="298" y="693" type="curve"/>
      <point x="250" y="721" type="line"/>
      <point x="241" y="705"/>
      <point x="216" y="666"/>
      <point x="199" y="639" type="curve" smooth="yes"/>
      <point x="181" y="611"/>
      <point x="150" y="563"/>
      <point x="138" y="545" type="curve"/>
    </contour>
  </outline>
</glyph>
